%TF.GenerationSoftware,KiCad,Pcbnew,(6.0.8)*%
%TF.CreationDate,2022-10-14T13:46:08-03:00*%
%TF.ProjectId,epu-interface,6570752d-696e-4746-9572-666163652e6b,rev?*%
%TF.SameCoordinates,Original*%
%TF.FileFunction,Copper,L2,Bot*%
%TF.FilePolarity,Positive*%
%FSLAX46Y46*%
G04 Gerber Fmt 4.6, Leading zero omitted, Abs format (unit mm)*
G04 Created by KiCad (PCBNEW (6.0.8)) date 2022-10-14 13:46:08*
%MOMM*%
%LPD*%
G01*
G04 APERTURE LIST*
%TA.AperFunction,ComponentPad*%
%ADD10C,1.500000*%
%TD*%
%TA.AperFunction,ComponentPad*%
%ADD11C,5.500000*%
%TD*%
%TA.AperFunction,ComponentPad*%
%ADD12R,1.700000X1.700000*%
%TD*%
%TA.AperFunction,ComponentPad*%
%ADD13O,1.700000X1.700000*%
%TD*%
%TA.AperFunction,ComponentPad*%
%ADD14R,1.600000X1.600000*%
%TD*%
%TA.AperFunction,ComponentPad*%
%ADD15O,1.600000X1.600000*%
%TD*%
%TA.AperFunction,ViaPad*%
%ADD16C,0.800000*%
%TD*%
%TA.AperFunction,Conductor*%
%ADD17C,0.400000*%
%TD*%
G04 APERTURE END LIST*
D10*
%TO.P,J2,1*%
%TO.N,/Start_A*%
X91724000Y-70946200D03*
%TO.P,J2,2*%
%TO.N,/Enable_A*%
X94274000Y-69926200D03*
%TO.P,J2,3*%
%TO.N,/Halt_A*%
X91724000Y-68906200D03*
%TO.P,J2,4*%
%TO.N,GND*%
X94274000Y-67886200D03*
%TD*%
%TO.P,J5,1*%
%TO.N,/Start_I*%
X91724000Y-130946200D03*
%TO.P,J5,2*%
%TO.N,/Enable_I*%
X94274000Y-129926200D03*
%TO.P,J5,3*%
%TO.N,/Halt_I*%
X91724000Y-128906200D03*
%TO.P,J5,4*%
%TO.N,GND*%
X94274000Y-127886200D03*
%TD*%
%TO.P,J3,1*%
%TO.N,/Start_B*%
X91724000Y-90946200D03*
%TO.P,J3,2*%
%TO.N,/Enable_B*%
X94274000Y-89926200D03*
%TO.P,J3,3*%
%TO.N,/Halt_B*%
X91724000Y-88906200D03*
%TO.P,J3,4*%
%TO.N,GND*%
X94274000Y-87886200D03*
%TD*%
%TO.P,J4,1*%
%TO.N,/Start_S*%
X91724000Y-110946200D03*
%TO.P,J4,2*%
%TO.N,/Enable_S*%
X94274000Y-109926200D03*
%TO.P,J4,3*%
%TO.N,/Halt_S*%
X91724000Y-108906200D03*
%TO.P,J4,4*%
%TO.N,GND*%
X94274000Y-107886200D03*
%TD*%
D11*
%TO.P,,1*%
%TO.N,N/C*%
X104379000Y-54941200D03*
%TD*%
D12*
%TO.P,J1,1,Pin_1*%
%TO.N,+3V3*%
X102478500Y-87981200D03*
D13*
%TO.P,J1,2,Pin_2*%
X105018500Y-87981200D03*
%TO.P,J1,3,Pin_3*%
%TO.N,GND*%
X102478500Y-90521200D03*
%TO.P,J1,4,Pin_4*%
X105018500Y-90521200D03*
%TO.P,J1,5,Pin_5*%
%TO.N,+5V*%
X102478500Y-93061200D03*
%TO.P,J1,6,Pin_6*%
X105018500Y-93061200D03*
%TO.P,J1,7,Pin_7*%
%TO.N,unconnected-(J1-Pad7)*%
X102478500Y-95601200D03*
%TO.P,J1,8,Pin_8*%
%TO.N,unconnected-(J1-Pad8)*%
X105018500Y-95601200D03*
%TO.P,J1,9,Pin_9*%
%TO.N,unconnected-(J1-Pad9)*%
X102478500Y-98141200D03*
%TO.P,J1,10,Pin_10*%
%TO.N,unconnected-(J1-Pad10)*%
X105018500Y-98141200D03*
%TO.P,J1,11,Pin_11*%
%TO.N,/MISO*%
X102478500Y-100681200D03*
%TO.P,J1,12,Pin_12*%
%TO.N,/MOSI*%
X105018500Y-100681200D03*
%TO.P,J1,13,Pin_13*%
%TO.N,unconnected-(J1-Pad13)*%
X102478500Y-103221200D03*
%TO.P,J1,14,Pin_14*%
%TO.N,unconnected-(J1-Pad14)*%
X105018500Y-103221200D03*
%TO.P,J1,15,Pin_15*%
%TO.N,/CS*%
X102478500Y-105761200D03*
%TO.P,J1,16,Pin_16*%
%TO.N,unconnected-(J1-Pad16)*%
X105018500Y-105761200D03*
%TO.P,J1,17,Pin_17*%
%TO.N,GND*%
X102478500Y-108301200D03*
%TO.P,J1,18,Pin_18*%
%TO.N,/CLK*%
X105018500Y-108301200D03*
%TO.P,J1,19,Pin_19*%
%TO.N,unconnected-(J1-Pad19)*%
X102478500Y-110841200D03*
%TO.P,J1,20,Pin_20*%
%TO.N,GND*%
X105018500Y-110841200D03*
%TD*%
D11*
%TO.P,,1*%
%TO.N,N/C*%
X104379000Y-143941200D03*
%TD*%
D14*
%TO.P,RN1,1,common*%
%TO.N,GND*%
X121490000Y-123255000D03*
D15*
%TO.P,RN1,2,R1*%
%TO.N,unconnected-(RN1-Pad2)*%
X121490000Y-125795000D03*
%TO.P,RN1,3,R2*%
%TO.N,unconnected-(RN1-Pad3)*%
X121490000Y-128335000D03*
%TO.P,RN1,4,R3*%
%TO.N,Net-(RN1-Pad4)*%
X121490000Y-130875000D03*
%TO.P,RN1,5,R4*%
%TO.N,Net-(RN1-Pad5)*%
X121490000Y-133415000D03*
%TO.P,RN1,6,R5*%
%TO.N,Net-(RN1-Pad6)*%
X121490000Y-135955000D03*
%TO.P,RN1,7,R6*%
%TO.N,Net-(RN1-Pad7)*%
X121490000Y-138495000D03*
%TO.P,RN1,8,R7*%
%TO.N,Net-(RN1-Pad8)*%
X121490000Y-141035000D03*
%TO.P,RN1,9,R8*%
%TO.N,Net-(RN1-Pad9)*%
X121490000Y-143575000D03*
%TD*%
D14*
%TO.P,RN2,1,common*%
%TO.N,GND*%
X121490000Y-56000000D03*
D15*
%TO.P,RN2,2,R1*%
%TO.N,unconnected-(RN2-Pad2)*%
X121490000Y-58540000D03*
%TO.P,RN2,3,R2*%
%TO.N,unconnected-(RN2-Pad3)*%
X121490000Y-61080000D03*
%TO.P,RN2,4,R3*%
%TO.N,Net-(RN2-Pad4)*%
X121490000Y-63620000D03*
%TO.P,RN2,5,R4*%
%TO.N,Net-(RN2-Pad5)*%
X121490000Y-66160000D03*
%TO.P,RN2,6,R5*%
%TO.N,Net-(RN2-Pad6)*%
X121490000Y-68700000D03*
%TO.P,RN2,7,R6*%
%TO.N,Net-(RN2-Pad7)*%
X121490000Y-71240000D03*
%TO.P,RN2,8,R7*%
%TO.N,Net-(RN2-Pad8)*%
X121490000Y-73780000D03*
%TO.P,RN2,9,R8*%
%TO.N,Net-(RN2-Pad9)*%
X121490000Y-76320000D03*
%TD*%
D16*
%TO.N,Net-(RN2-Pad5)*%
X115095000Y-106525000D03*
%TO.N,Net-(RN2-Pad4)*%
X116270000Y-107880000D03*
X114790000Y-100980000D03*
%TO.N,Net-(RN2-Pad5)*%
X113380000Y-101650000D03*
%TO.N,Net-(RN2-Pad6)*%
X117110000Y-109030000D03*
X111810000Y-99680000D03*
%TO.N,Net-(RN2-Pad7)*%
X115750000Y-102950000D03*
X117170000Y-104570000D03*
%TO.N,+3V3*%
X108440000Y-89450000D03*
X118760000Y-97490000D03*
%TO.N,GND*%
X97500000Y-94290000D03*
%TO.N,/MOSI*%
X109780000Y-108410000D03*
%TO.N,/MISO*%
X108660000Y-109320000D03*
%TO.N,/CLK*%
X107588800Y-108301200D03*
%TO.N,/CS*%
X99570000Y-105760000D03*
X130560000Y-102870000D03*
%TO.N,/MISO*%
X128800000Y-101150000D03*
%TO.N,/CLK*%
X129480000Y-102050000D03*
%TO.N,/MOSI*%
X118105000Y-102625000D03*
%TO.N,Net-(RN1-Pad9)*%
X134370000Y-106525000D03*
%TO.N,Net-(RN1-Pad8)*%
X133320000Y-108850000D03*
%TO.N,Net-(RN1-Pad7)*%
X132310000Y-107660000D03*
%TO.N,Net-(RN1-Pad5)*%
X130380000Y-105225000D03*
%TO.N,Net-(RN1-Pad8)*%
X128500000Y-108850000D03*
%TO.N,Net-(RN1-Pad7)*%
X128500000Y-107660000D03*
%TO.N,Net-(RN1-Pad9)*%
X128500000Y-106525000D03*
%TO.N,GND*%
X99090000Y-123473800D03*
X99650000Y-66950000D03*
X99820000Y-108300000D03*
X97500000Y-87886200D03*
%TO.N,/Start_A*%
X98470000Y-72340000D03*
%TO.N,/Enable_A*%
X101020000Y-75480000D03*
%TO.N,/Halt_A*%
X99480000Y-74380000D03*
%TO.N,/Start_B*%
X98500000Y-83860000D03*
%TO.N,/Enable_B*%
X92980000Y-82810000D03*
%TO.N,/Halt_B*%
X91724000Y-82276000D03*
%TO.N,/Start_S*%
X106825000Y-119313800D03*
%TO.N,/Enable_S*%
X108095000Y-119033800D03*
%TO.N,/Halt_S*%
X107295500Y-118151966D03*
%TO.N,/Start_I*%
X99866200Y-129013800D03*
%TO.N,/Enable_I*%
X99866200Y-126740000D03*
%TO.N,/Halt_I*%
X99866200Y-127813800D03*
%TO.N,Net-(RN1-Pad5)*%
X128500000Y-105225000D03*
%TD*%
D17*
%TO.N,/CS*%
X99570000Y-106420000D02*
X99570000Y-105760000D01*
X102100000Y-112800000D02*
X100670000Y-111370000D01*
X127440000Y-111010000D02*
X125650000Y-112800000D01*
X127440000Y-104110000D02*
X127440000Y-111010000D01*
X128680000Y-102870000D02*
X127440000Y-104110000D01*
X100670000Y-111370000D02*
X100670000Y-107520000D01*
X100670000Y-107520000D02*
X99570000Y-106420000D01*
X130560000Y-102870000D02*
X128680000Y-102870000D01*
X125650000Y-112800000D02*
X102100000Y-112800000D01*
%TO.N,Net-(RN2-Pad5)*%
X114135000Y-106525000D02*
X115095000Y-106525000D01*
X113380000Y-101650000D02*
X113380000Y-105770000D01*
X113380000Y-105770000D02*
X114135000Y-106525000D01*
%TO.N,/MOSI*%
X120515000Y-102625000D02*
X118105000Y-102625000D01*
X121320000Y-109240000D02*
X121320000Y-103430000D01*
X120480000Y-110080000D02*
X121320000Y-109240000D01*
X121320000Y-103430000D02*
X120515000Y-102625000D01*
X110580000Y-110080000D02*
X120480000Y-110080000D01*
X109780000Y-108410000D02*
X109780000Y-109280000D01*
X109780000Y-109280000D02*
X110580000Y-110080000D01*
%TO.N,Net-(RN2-Pad4)*%
X116270000Y-105860000D02*
X116270000Y-107880000D01*
X114790000Y-104380000D02*
X116270000Y-105860000D01*
X114790000Y-100980000D02*
X114790000Y-104380000D01*
%TO.N,Net-(RN2-Pad6)*%
X113470000Y-109030000D02*
X117110000Y-109030000D01*
X111810000Y-107370000D02*
X113470000Y-109030000D01*
X111810000Y-99680000D02*
X111810000Y-107370000D01*
%TO.N,Net-(RN2-Pad7)*%
X117170000Y-103640000D02*
X117170000Y-104570000D01*
X116480000Y-102950000D02*
X117170000Y-103640000D01*
X115750000Y-102950000D02*
X116480000Y-102950000D01*
%TO.N,+3V3*%
X116900000Y-89450000D02*
X108440000Y-89450000D01*
X118760000Y-97490000D02*
X118760000Y-91310000D01*
X118760000Y-91310000D02*
X116900000Y-89450000D01*
%TO.N,GND*%
X97500000Y-106420000D02*
X97500000Y-94290000D01*
X99320000Y-107100000D02*
X98180000Y-107100000D01*
X99820000Y-107600000D02*
X99320000Y-107100000D01*
X98180000Y-107100000D02*
X97500000Y-106420000D01*
X99820000Y-108300000D02*
X99820000Y-107600000D01*
X96876200Y-107886200D02*
X94274000Y-107886200D01*
X97290000Y-108300000D02*
X96876200Y-107886200D01*
X99820000Y-108300000D02*
X97290000Y-108300000D01*
%TO.N,/MISO*%
X109570000Y-111030000D02*
X108660000Y-110120000D01*
X108660000Y-110120000D02*
X108660000Y-109320000D01*
X125770000Y-109960000D02*
X124700000Y-111030000D01*
X124700000Y-111030000D02*
X109570000Y-111030000D01*
X125770000Y-102850000D02*
X125770000Y-109960000D01*
X127470000Y-101150000D02*
X125770000Y-102850000D01*
X128800000Y-101150000D02*
X127470000Y-101150000D01*
%TO.N,/CLK*%
X125170000Y-111950000D02*
X108720000Y-111950000D01*
X126570000Y-110550000D02*
X125170000Y-111950000D01*
X126570000Y-103490000D02*
X126570000Y-110550000D01*
X107588800Y-110818800D02*
X107588800Y-108301200D01*
X128010000Y-102050000D02*
X126570000Y-103490000D01*
X129480000Y-102050000D02*
X128010000Y-102050000D01*
X108720000Y-111950000D02*
X107588800Y-110818800D01*
%TO.N,Net-(RN1-Pad9)*%
X134370000Y-106525000D02*
X128500000Y-106525000D01*
%TO.N,Net-(RN1-Pad8)*%
X133320000Y-108850000D02*
X128500000Y-108850000D01*
%TO.N,Net-(RN1-Pad7)*%
X132310000Y-107660000D02*
X128500000Y-107660000D01*
%TO.N,Net-(RN1-Pad5)*%
X130380000Y-105225000D02*
X128500000Y-105225000D01*
%TO.N,GND*%
X99650000Y-66950000D02*
X95210200Y-66950000D01*
X95796200Y-123473800D02*
X94274000Y-124996000D01*
X99090000Y-123473800D02*
X95796200Y-123473800D01*
X94274000Y-124996000D02*
X94274000Y-127886200D01*
X97500000Y-87886200D02*
X94274000Y-87886200D01*
X95210200Y-66950000D02*
X94274000Y-67886200D01*
%TO.N,/Start_A*%
X94460000Y-72340000D02*
X93066200Y-70946200D01*
X93066200Y-70946200D02*
X91724000Y-70946200D01*
X98470000Y-72340000D02*
X94460000Y-72340000D01*
%TO.N,/Enable_A*%
X101020000Y-70940000D02*
X100006200Y-69926200D01*
X101020000Y-75480000D02*
X101020000Y-70940000D01*
X100006200Y-69926200D02*
X94274000Y-69926200D01*
%TO.N,/Halt_A*%
X99480000Y-74380000D02*
X93720000Y-74380000D01*
X90700000Y-72510000D02*
X90070000Y-71880000D01*
X91850000Y-72510000D02*
X90700000Y-72510000D01*
X90623800Y-68906200D02*
X91724000Y-68906200D01*
X90070000Y-69460000D02*
X90623800Y-68906200D01*
X90070000Y-71880000D02*
X90070000Y-69460000D01*
X93720000Y-74380000D02*
X91850000Y-72510000D01*
%TO.N,/Start_B*%
X91724000Y-90946200D02*
X92617800Y-91840000D01*
X98500000Y-90820000D02*
X98500000Y-83860000D01*
X97480000Y-91840000D02*
X98500000Y-90820000D01*
X92617800Y-91840000D02*
X97480000Y-91840000D01*
%TO.N,/Enable_B*%
X92980000Y-88632200D02*
X92980000Y-82810000D01*
X94274000Y-89926200D02*
X92980000Y-88632200D01*
%TO.N,/Halt_B*%
X91724000Y-82276000D02*
X91724000Y-88906200D01*
%TO.N,/Start_S*%
X91724000Y-117464000D02*
X91724000Y-110946200D01*
X93573800Y-119313800D02*
X91724000Y-117464000D01*
X106825000Y-119313800D02*
X93573800Y-119313800D01*
%TO.N,/Enable_S*%
X94274000Y-109926200D02*
X94274000Y-115464000D01*
X95610000Y-116800000D02*
X107270000Y-116800000D01*
X108095000Y-117625000D02*
X108095000Y-119033800D01*
X94274000Y-115464000D02*
X95610000Y-116800000D01*
X107270000Y-116800000D02*
X108095000Y-117625000D01*
%TO.N,/Halt_S*%
X93040000Y-116530000D02*
X93040000Y-110222200D01*
X94661966Y-118151966D02*
X93040000Y-116530000D01*
X107295500Y-118151966D02*
X94661966Y-118151966D01*
X93040000Y-110222200D02*
X91724000Y-108906200D01*
%TO.N,/Start_I*%
X91724000Y-130946200D02*
X93387800Y-132610000D01*
X99866200Y-131463800D02*
X99866200Y-129013800D01*
X98720000Y-132610000D02*
X99866200Y-131463800D01*
X93387800Y-132610000D02*
X98720000Y-132610000D01*
%TO.N,/Enable_I*%
X94274000Y-129926200D02*
X96993800Y-129926200D01*
X97780000Y-129140000D02*
X97780000Y-127770000D01*
X98810000Y-126740000D02*
X99866200Y-126740000D01*
X96993800Y-129926200D02*
X97780000Y-129140000D01*
X97780000Y-127770000D02*
X98810000Y-126740000D01*
%TO.N,/Halt_I*%
X98780000Y-128310000D02*
X98780000Y-130920000D01*
X98780000Y-130920000D02*
X97910000Y-131790000D01*
X97910000Y-131790000D02*
X93930000Y-131790000D01*
X99866200Y-127813800D02*
X99276200Y-127813800D01*
X93000000Y-130860000D02*
X93000000Y-130182200D01*
X99276200Y-127813800D02*
X98780000Y-128310000D01*
X93930000Y-131790000D02*
X93000000Y-130860000D01*
X93000000Y-130182200D02*
X91724000Y-128906200D01*
%TD*%
%TA.AperFunction,Conductor*%
%TO.N,GND*%
G36*
X103405209Y-51940002D02*
G01*
X103451702Y-51993658D01*
X103461806Y-52063932D01*
X103432312Y-52128512D01*
X103377901Y-52165207D01*
X103265723Y-52203614D01*
X103265718Y-52203616D01*
X103262292Y-52204789D01*
X102955177Y-52351276D01*
X102666934Y-52532090D01*
X102664098Y-52534362D01*
X102664091Y-52534367D01*
X102509760Y-52658009D01*
X102401384Y-52744835D01*
X102162047Y-52986693D01*
X102159811Y-52989545D01*
X102159809Y-52989547D01*
X101954331Y-53251603D01*
X101952094Y-53254456D01*
X101774308Y-53544576D01*
X101772783Y-53547861D01*
X101772781Y-53547865D01*
X101663394Y-53783520D01*
X101631046Y-53853208D01*
X101524206Y-54176260D01*
X101455206Y-54509452D01*
X101424958Y-54848366D01*
X101425053Y-54851996D01*
X101425053Y-54851997D01*
X101432818Y-55148514D01*
X101433865Y-55188510D01*
X101481809Y-55525376D01*
X101568152Y-55854500D01*
X101691753Y-56171518D01*
X101850971Y-56472229D01*
X101853021Y-56475212D01*
X101853023Y-56475215D01*
X102041640Y-56749655D01*
X102041646Y-56749662D01*
X102043697Y-56752647D01*
X102267376Y-57009055D01*
X102519044Y-57238055D01*
X102521992Y-57240173D01*
X102521994Y-57240175D01*
X102603133Y-57298479D01*
X102795364Y-57436611D01*
X103092674Y-57602092D01*
X103407035Y-57732304D01*
X103410529Y-57733299D01*
X103410531Y-57733300D01*
X103730777Y-57824525D01*
X103730782Y-57824526D01*
X103734278Y-57825522D01*
X103927204Y-57857115D01*
X104066485Y-57879923D01*
X104066492Y-57879924D01*
X104070066Y-57880509D01*
X104240007Y-57888523D01*
X104406322Y-57896367D01*
X104406323Y-57896367D01*
X104409949Y-57896538D01*
X104419272Y-57895902D01*
X104745791Y-57873643D01*
X104745799Y-57873642D01*
X104749422Y-57873395D01*
X104752998Y-57872732D01*
X104753000Y-57872732D01*
X105080421Y-57812048D01*
X105080425Y-57812047D01*
X105083986Y-57811387D01*
X105409205Y-57711337D01*
X105720769Y-57574570D01*
X106014549Y-57402899D01*
X106114302Y-57328002D01*
X106283743Y-57200782D01*
X106283747Y-57200779D01*
X106286650Y-57198599D01*
X106533467Y-56964379D01*
X106633560Y-56844669D01*
X120182001Y-56844669D01*
X120182371Y-56851490D01*
X120187895Y-56902352D01*
X120191521Y-56917604D01*
X120236676Y-57038054D01*
X120245214Y-57053649D01*
X120321715Y-57155724D01*
X120334276Y-57168285D01*
X120436351Y-57244786D01*
X120451946Y-57253324D01*
X120572394Y-57298478D01*
X120587649Y-57302105D01*
X120638514Y-57307631D01*
X120645328Y-57308000D01*
X121257866Y-57308000D01*
X121325987Y-57328002D01*
X121372480Y-57381658D01*
X121382584Y-57451932D01*
X121353090Y-57516512D01*
X121293445Y-57554871D01*
X121113393Y-57607864D01*
X121107928Y-57610721D01*
X120944972Y-57695912D01*
X120944968Y-57695915D01*
X120939512Y-57698767D01*
X120934712Y-57702627D01*
X120934711Y-57702627D01*
X120923878Y-57711337D01*
X120786600Y-57821711D01*
X120660480Y-57972016D01*
X120657516Y-57977408D01*
X120657513Y-57977412D01*
X120578813Y-58120567D01*
X120565956Y-58143954D01*
X120506628Y-58330978D01*
X120484757Y-58525963D01*
X120501175Y-58721483D01*
X120555258Y-58910091D01*
X120558076Y-58915574D01*
X120642123Y-59079113D01*
X120642126Y-59079117D01*
X120644944Y-59084601D01*
X120766818Y-59238369D01*
X120916238Y-59365535D01*
X120921616Y-59368541D01*
X120921618Y-59368542D01*
X120957932Y-59388837D01*
X121087513Y-59461257D01*
X121274118Y-59521889D01*
X121468946Y-59545121D01*
X121475081Y-59544649D01*
X121475083Y-59544649D01*
X121658434Y-59530541D01*
X121658438Y-59530540D01*
X121664576Y-59530068D01*
X121853556Y-59477303D01*
X122028689Y-59388837D01*
X122058515Y-59365535D01*
X122178453Y-59271829D01*
X122183303Y-59268040D01*
X122213084Y-59233539D01*
X122307485Y-59124173D01*
X122307485Y-59124172D01*
X122311509Y-59119511D01*
X122408425Y-58948909D01*
X122470358Y-58762732D01*
X122494949Y-58568071D01*
X122495341Y-58540000D01*
X122476194Y-58344728D01*
X122474413Y-58338829D01*
X122474412Y-58338824D01*
X122421265Y-58162793D01*
X122419484Y-58156894D01*
X122327370Y-57983653D01*
X122203361Y-57831602D01*
X122052180Y-57706535D01*
X121879585Y-57613213D01*
X121692152Y-57555193D01*
X121692671Y-57553517D01*
X121637320Y-57524123D01*
X121602574Y-57462211D01*
X121606816Y-57391341D01*
X121648699Y-57334015D01*
X121714927Y-57308433D01*
X121725375Y-57307999D01*
X122334669Y-57307999D01*
X122341490Y-57307629D01*
X122392352Y-57302105D01*
X122407604Y-57298479D01*
X122528054Y-57253324D01*
X122543649Y-57244786D01*
X122645724Y-57168285D01*
X122658285Y-57155724D01*
X122734786Y-57053649D01*
X122743324Y-57038054D01*
X122788478Y-56917606D01*
X122792105Y-56902351D01*
X122797631Y-56851486D01*
X122798000Y-56844672D01*
X122798000Y-56272115D01*
X122793525Y-56256876D01*
X122792135Y-56255671D01*
X122784452Y-56254000D01*
X120200116Y-56254000D01*
X120184877Y-56258475D01*
X120183672Y-56259865D01*
X120182001Y-56267548D01*
X120182001Y-56844669D01*
X106633560Y-56844669D01*
X106751727Y-56703343D01*
X106901579Y-56475215D01*
X106936551Y-56421976D01*
X106936556Y-56421967D01*
X106938538Y-56418950D01*
X107020659Y-56255671D01*
X107089797Y-56118207D01*
X107089800Y-56118199D01*
X107091424Y-56114971D01*
X107188028Y-55850988D01*
X107207110Y-55798845D01*
X107207113Y-55798835D01*
X107208358Y-55795433D01*
X107209203Y-55791911D01*
X107209206Y-55791903D01*
X107224575Y-55727885D01*
X120182000Y-55727885D01*
X120186475Y-55743124D01*
X120187865Y-55744329D01*
X120195548Y-55746000D01*
X121217885Y-55746000D01*
X121233124Y-55741525D01*
X121234329Y-55740135D01*
X121236000Y-55732452D01*
X121236000Y-55727885D01*
X121744000Y-55727885D01*
X121748475Y-55743124D01*
X121749865Y-55744329D01*
X121757548Y-55746000D01*
X122779884Y-55746000D01*
X122795123Y-55741525D01*
X122796328Y-55740135D01*
X122797999Y-55732452D01*
X122797999Y-55155331D01*
X122797629Y-55148510D01*
X122792105Y-55097648D01*
X122788479Y-55082396D01*
X122743324Y-54961946D01*
X122734786Y-54946351D01*
X122658285Y-54844276D01*
X122645724Y-54831715D01*
X122543649Y-54755214D01*
X122528054Y-54746676D01*
X122407606Y-54701522D01*
X122392351Y-54697895D01*
X122341486Y-54692369D01*
X122334672Y-54692000D01*
X121762115Y-54692000D01*
X121746876Y-54696475D01*
X121745671Y-54697865D01*
X121744000Y-54705548D01*
X121744000Y-55727885D01*
X121236000Y-55727885D01*
X121236000Y-54710116D01*
X121231525Y-54694877D01*
X121230135Y-54693672D01*
X121222452Y-54692001D01*
X120645331Y-54692001D01*
X120638510Y-54692371D01*
X120587648Y-54697895D01*
X120572396Y-54701521D01*
X120451946Y-54746676D01*
X120436351Y-54755214D01*
X120334276Y-54831715D01*
X120321715Y-54844276D01*
X120245214Y-54946351D01*
X120236676Y-54961946D01*
X120191522Y-55082394D01*
X120187895Y-55097649D01*
X120182369Y-55148514D01*
X120182000Y-55155328D01*
X120182000Y-55727885D01*
X107224575Y-55727885D01*
X107286943Y-55468103D01*
X107286944Y-55468099D01*
X107287790Y-55464574D01*
X107320763Y-55192101D01*
X107328332Y-55129556D01*
X107328333Y-55129549D01*
X107328668Y-55126777D01*
X107329584Y-55097649D01*
X107334412Y-54943997D01*
X107334500Y-54941200D01*
X107329147Y-54848366D01*
X107315122Y-54605123D01*
X107315121Y-54605118D01*
X107314913Y-54601503D01*
X107256412Y-54266309D01*
X107230793Y-54179818D01*
X107160805Y-53943545D01*
X107159773Y-53940060D01*
X107122728Y-53853208D01*
X107027699Y-53630418D01*
X107026276Y-53627081D01*
X106857691Y-53331519D01*
X106656252Y-53057293D01*
X106424629Y-52808038D01*
X106421875Y-52805686D01*
X106421871Y-52805682D01*
X106326831Y-52724510D01*
X106165893Y-52587056D01*
X106162890Y-52585038D01*
X106162882Y-52585032D01*
X105987072Y-52466894D01*
X105883472Y-52397277D01*
X105581110Y-52241216D01*
X105376408Y-52163866D01*
X105319755Y-52121076D01*
X105295230Y-52054450D01*
X105310618Y-51985142D01*
X105361035Y-51935155D01*
X105420946Y-51920000D01*
X136873000Y-51920000D01*
X136941121Y-51940002D01*
X136987614Y-51993658D01*
X136999000Y-52046000D01*
X136999000Y-146783946D01*
X136978998Y-146852067D01*
X136925342Y-146898560D01*
X136872950Y-146909946D01*
X105585508Y-146897528D01*
X105517396Y-146877499D01*
X105470925Y-146823825D01*
X105460849Y-146753547D01*
X105490367Y-146688978D01*
X105534913Y-146656155D01*
X105717441Y-146576031D01*
X105717443Y-146576030D01*
X105720769Y-146574570D01*
X106014549Y-146402899D01*
X106017458Y-146400715D01*
X106283743Y-146200782D01*
X106283747Y-146200779D01*
X106286650Y-146198599D01*
X106533467Y-145964379D01*
X106751727Y-145703343D01*
X106901579Y-145475215D01*
X106936551Y-145421976D01*
X106936556Y-145421967D01*
X106938538Y-145418950D01*
X107064685Y-145168136D01*
X107089797Y-145118207D01*
X107089800Y-145118199D01*
X107091424Y-145114971D01*
X107188028Y-144850988D01*
X107207110Y-144798845D01*
X107207113Y-144798835D01*
X107208358Y-144795433D01*
X107209203Y-144791911D01*
X107209206Y-144791903D01*
X107286943Y-144468103D01*
X107286944Y-144468099D01*
X107287790Y-144464574D01*
X107307338Y-144303040D01*
X107328332Y-144129556D01*
X107328333Y-144129549D01*
X107328668Y-144126777D01*
X107334500Y-143941200D01*
X107329147Y-143848366D01*
X107315122Y-143605123D01*
X107315121Y-143605118D01*
X107314913Y-143601503D01*
X107307838Y-143560963D01*
X120484757Y-143560963D01*
X120501175Y-143756483D01*
X120555258Y-143945091D01*
X120558076Y-143950574D01*
X120642123Y-144114113D01*
X120642126Y-144114117D01*
X120644944Y-144119601D01*
X120766818Y-144273369D01*
X120916238Y-144400535D01*
X120921616Y-144403541D01*
X120921618Y-144403542D01*
X120957932Y-144423837D01*
X121087513Y-144496257D01*
X121274118Y-144556889D01*
X121468946Y-144580121D01*
X121475081Y-144579649D01*
X121475083Y-144579649D01*
X121658434Y-144565541D01*
X121658438Y-144565540D01*
X121664576Y-144565068D01*
X121853556Y-144512303D01*
X122028689Y-144423837D01*
X122058515Y-144400535D01*
X122178453Y-144306829D01*
X122183303Y-144303040D01*
X122213084Y-144268539D01*
X122307485Y-144159173D01*
X122307485Y-144159172D01*
X122311509Y-144154511D01*
X122325686Y-144129556D01*
X122405378Y-143989272D01*
X122408425Y-143983909D01*
X122470358Y-143797732D01*
X122494949Y-143603071D01*
X122495341Y-143575000D01*
X122476194Y-143379728D01*
X122474413Y-143373829D01*
X122474412Y-143373824D01*
X122421265Y-143197793D01*
X122419484Y-143191894D01*
X122327370Y-143018653D01*
X122203361Y-142866602D01*
X122052180Y-142741535D01*
X121879585Y-142648213D01*
X121785868Y-142619203D01*
X121698039Y-142592015D01*
X121698036Y-142592014D01*
X121692152Y-142590193D01*
X121686027Y-142589549D01*
X121686026Y-142589549D01*
X121503147Y-142570327D01*
X121503146Y-142570327D01*
X121497019Y-142569683D01*
X121374383Y-142580844D01*
X121307759Y-142586907D01*
X121307758Y-142586907D01*
X121301618Y-142587466D01*
X121295704Y-142589207D01*
X121295702Y-142589207D01*
X121177708Y-142623935D01*
X121113393Y-142642864D01*
X121107928Y-142645721D01*
X120944972Y-142730912D01*
X120944968Y-142730915D01*
X120939512Y-142733767D01*
X120934712Y-142737627D01*
X120934711Y-142737627D01*
X120900326Y-142765273D01*
X120786600Y-142856711D01*
X120660480Y-143007016D01*
X120657516Y-143012408D01*
X120657513Y-143012412D01*
X120578813Y-143155567D01*
X120565956Y-143178954D01*
X120506628Y-143365978D01*
X120484757Y-143560963D01*
X107307838Y-143560963D01*
X107298228Y-143505902D01*
X107257036Y-143269882D01*
X107257034Y-143269875D01*
X107256412Y-143266309D01*
X107234370Y-143191894D01*
X107181636Y-143013869D01*
X107159773Y-142940060D01*
X107128441Y-142866602D01*
X107036539Y-142651143D01*
X107026276Y-142627081D01*
X107004869Y-142589549D01*
X106859482Y-142334659D01*
X106857691Y-142331519D01*
X106656252Y-142057293D01*
X106564133Y-141958161D01*
X106427101Y-141810698D01*
X106427099Y-141810697D01*
X106424629Y-141808038D01*
X106421875Y-141805686D01*
X106421871Y-141805682D01*
X106326831Y-141724510D01*
X106165893Y-141587056D01*
X106162890Y-141585038D01*
X106162882Y-141585032D01*
X105952868Y-141443909D01*
X105883472Y-141397277D01*
X105581110Y-141241216D01*
X105262815Y-141120943D01*
X104932805Y-141038050D01*
X104803016Y-141020963D01*
X120484757Y-141020963D01*
X120501175Y-141216483D01*
X120555258Y-141405091D01*
X120558076Y-141410574D01*
X120642123Y-141574113D01*
X120642126Y-141574117D01*
X120644944Y-141579601D01*
X120766818Y-141733369D01*
X120771511Y-141737363D01*
X120771512Y-141737364D01*
X120857680Y-141810698D01*
X120916238Y-141860535D01*
X120921616Y-141863541D01*
X120921618Y-141863542D01*
X120957932Y-141883837D01*
X121087513Y-141956257D01*
X121274118Y-142016889D01*
X121468946Y-142040121D01*
X121475081Y-142039649D01*
X121475083Y-142039649D01*
X121658434Y-142025541D01*
X121658438Y-142025540D01*
X121664576Y-142025068D01*
X121853556Y-141972303D01*
X122028689Y-141883837D01*
X122058515Y-141860535D01*
X122178453Y-141766829D01*
X122183303Y-141763040D01*
X122200977Y-141742565D01*
X122307485Y-141619173D01*
X122307485Y-141619172D01*
X122311509Y-141614511D01*
X122408425Y-141443909D01*
X122470358Y-141257732D01*
X122494949Y-141063071D01*
X122495341Y-141035000D01*
X122476194Y-140839728D01*
X122474413Y-140833829D01*
X122474412Y-140833824D01*
X122421265Y-140657793D01*
X122419484Y-140651894D01*
X122327370Y-140478653D01*
X122203361Y-140326602D01*
X122052180Y-140201535D01*
X121879585Y-140108213D01*
X121785869Y-140079203D01*
X121698039Y-140052015D01*
X121698036Y-140052014D01*
X121692152Y-140050193D01*
X121686027Y-140049549D01*
X121686026Y-140049549D01*
X121503147Y-140030327D01*
X121503146Y-140030327D01*
X121497019Y-140029683D01*
X121374383Y-140040844D01*
X121307759Y-140046907D01*
X121307758Y-140046907D01*
X121301618Y-140047466D01*
X121295704Y-140049207D01*
X121295702Y-140049207D01*
X121166734Y-140087165D01*
X121113393Y-140102864D01*
X121107928Y-140105721D01*
X120944972Y-140190912D01*
X120944968Y-140190915D01*
X120939512Y-140193767D01*
X120934712Y-140197627D01*
X120934711Y-140197627D01*
X120900326Y-140225273D01*
X120786600Y-140316711D01*
X120660480Y-140467016D01*
X120657516Y-140472408D01*
X120657513Y-140472412D01*
X120578813Y-140615567D01*
X120565956Y-140638954D01*
X120506628Y-140825978D01*
X120484757Y-141020963D01*
X104803016Y-141020963D01*
X104790627Y-141019332D01*
X104599059Y-140994111D01*
X104599051Y-140994110D01*
X104595455Y-140993637D01*
X104453428Y-140991406D01*
X104258879Y-140988349D01*
X104258875Y-140988349D01*
X104255237Y-140988292D01*
X104251623Y-140988653D01*
X104251617Y-140988653D01*
X104014277Y-141012343D01*
X103916658Y-141022087D01*
X103584207Y-141094573D01*
X103580780Y-141095746D01*
X103580774Y-141095748D01*
X103265718Y-141203616D01*
X103262292Y-141204789D01*
X102955177Y-141351276D01*
X102666934Y-141532090D01*
X102664098Y-141534362D01*
X102664091Y-141534367D01*
X102570743Y-141609153D01*
X102401384Y-141744835D01*
X102162047Y-141986693D01*
X102159811Y-141989545D01*
X102159809Y-141989547D01*
X101954331Y-142251603D01*
X101952094Y-142254456D01*
X101774308Y-142544576D01*
X101772783Y-142547861D01*
X101772781Y-142547865D01*
X101729493Y-142641122D01*
X101631046Y-142853208D01*
X101524206Y-143176260D01*
X101523470Y-143179815D01*
X101523469Y-143179818D01*
X101483293Y-143373824D01*
X101455206Y-143509452D01*
X101446538Y-143606575D01*
X101433159Y-143756483D01*
X101424958Y-143848366D01*
X101425053Y-143851996D01*
X101425053Y-143851997D01*
X101432175Y-144123986D01*
X101433865Y-144188510D01*
X101481809Y-144525376D01*
X101568152Y-144854500D01*
X101691753Y-145171518D01*
X101850971Y-145472229D01*
X101853021Y-145475212D01*
X101853023Y-145475215D01*
X102041640Y-145749655D01*
X102041646Y-145749662D01*
X102043697Y-145752647D01*
X102267376Y-146009055D01*
X102519044Y-146238055D01*
X102795364Y-146436611D01*
X103092674Y-146602092D01*
X103096023Y-146603479D01*
X103218378Y-146654160D01*
X103273659Y-146698708D01*
X103296080Y-146766072D01*
X103278522Y-146834863D01*
X103226560Y-146883241D01*
X103170110Y-146896569D01*
X92318609Y-146892262D01*
X86730950Y-146890044D01*
X86662837Y-146870015D01*
X86616366Y-146816341D01*
X86605000Y-146764044D01*
X86605000Y-138480963D01*
X120484757Y-138480963D01*
X120501175Y-138676483D01*
X120555258Y-138865091D01*
X120558076Y-138870574D01*
X120642123Y-139034113D01*
X120642126Y-139034117D01*
X120644944Y-139039601D01*
X120766818Y-139193369D01*
X120916238Y-139320535D01*
X120921616Y-139323541D01*
X120921618Y-139323542D01*
X120957932Y-139343837D01*
X121087513Y-139416257D01*
X121274118Y-139476889D01*
X121468946Y-139500121D01*
X121475081Y-139499649D01*
X121475083Y-139499649D01*
X121658434Y-139485541D01*
X121658438Y-139485540D01*
X121664576Y-139485068D01*
X121853556Y-139432303D01*
X122028689Y-139343837D01*
X122058515Y-139320535D01*
X122178453Y-139226829D01*
X122183303Y-139223040D01*
X122213084Y-139188539D01*
X122307485Y-139079173D01*
X122307485Y-139079172D01*
X122311509Y-139074511D01*
X122408425Y-138903909D01*
X122470358Y-138717732D01*
X122494949Y-138523071D01*
X122495341Y-138495000D01*
X122476194Y-138299728D01*
X122474413Y-138293829D01*
X122474412Y-138293824D01*
X122421265Y-138117793D01*
X122419484Y-138111894D01*
X122327370Y-137938653D01*
X122203361Y-137786602D01*
X122052180Y-137661535D01*
X121879585Y-137568213D01*
X121785868Y-137539203D01*
X121698039Y-137512015D01*
X121698036Y-137512014D01*
X121692152Y-137510193D01*
X121686027Y-137509549D01*
X121686026Y-137509549D01*
X121503147Y-137490327D01*
X121503146Y-137490327D01*
X121497019Y-137489683D01*
X121374383Y-137500844D01*
X121307759Y-137506907D01*
X121307758Y-137506907D01*
X121301618Y-137507466D01*
X121295704Y-137509207D01*
X121295702Y-137509207D01*
X121166734Y-137547165D01*
X121113393Y-137562864D01*
X121107928Y-137565721D01*
X120944972Y-137650912D01*
X120944968Y-137650915D01*
X120939512Y-137653767D01*
X120934712Y-137657627D01*
X120934711Y-137657627D01*
X120900326Y-137685273D01*
X120786600Y-137776711D01*
X120660480Y-137927016D01*
X120657516Y-137932408D01*
X120657513Y-137932412D01*
X120578813Y-138075567D01*
X120565956Y-138098954D01*
X120506628Y-138285978D01*
X120484757Y-138480963D01*
X86605000Y-138480963D01*
X86605000Y-135940963D01*
X120484757Y-135940963D01*
X120501175Y-136136483D01*
X120555258Y-136325091D01*
X120558076Y-136330574D01*
X120642123Y-136494113D01*
X120642126Y-136494117D01*
X120644944Y-136499601D01*
X120766818Y-136653369D01*
X120916238Y-136780535D01*
X120921616Y-136783541D01*
X120921618Y-136783542D01*
X120957932Y-136803837D01*
X121087513Y-136876257D01*
X121274118Y-136936889D01*
X121468946Y-136960121D01*
X121475081Y-136959649D01*
X121475083Y-136959649D01*
X121658434Y-136945541D01*
X121658438Y-136945540D01*
X121664576Y-136945068D01*
X121853556Y-136892303D01*
X122028689Y-136803837D01*
X122058515Y-136780535D01*
X122178453Y-136686829D01*
X122183303Y-136683040D01*
X122213084Y-136648539D01*
X122307485Y-136539173D01*
X122307485Y-136539172D01*
X122311509Y-136534511D01*
X122408425Y-136363909D01*
X122470358Y-136177732D01*
X122494949Y-135983071D01*
X122495341Y-135955000D01*
X122476194Y-135759728D01*
X122474413Y-135753829D01*
X122474412Y-135753824D01*
X122421265Y-135577793D01*
X122419484Y-135571894D01*
X122327370Y-135398653D01*
X122203361Y-135246602D01*
X122052180Y-135121535D01*
X121879585Y-135028213D01*
X121785869Y-134999203D01*
X121698039Y-134972015D01*
X121698036Y-134972014D01*
X121692152Y-134970193D01*
X121686027Y-134969549D01*
X121686026Y-134969549D01*
X121503147Y-134950327D01*
X121503146Y-134950327D01*
X121497019Y-134949683D01*
X121374383Y-134960844D01*
X121307759Y-134966907D01*
X121307758Y-134966907D01*
X121301618Y-134967466D01*
X121295704Y-134969207D01*
X121295702Y-134969207D01*
X121166734Y-135007165D01*
X121113393Y-135022864D01*
X121107928Y-135025721D01*
X120944972Y-135110912D01*
X120944968Y-135110915D01*
X120939512Y-135113767D01*
X120934712Y-135117627D01*
X120934711Y-135117627D01*
X120900326Y-135145273D01*
X120786600Y-135236711D01*
X120660480Y-135387016D01*
X120657516Y-135392408D01*
X120657513Y-135392412D01*
X120650717Y-135404774D01*
X120565956Y-135558954D01*
X120564095Y-135564821D01*
X120564094Y-135564823D01*
X120559980Y-135577793D01*
X120506628Y-135745978D01*
X120484757Y-135940963D01*
X86605000Y-135940963D01*
X86605000Y-134517729D01*
X87952074Y-134517729D01*
X87988153Y-134753502D01*
X88062255Y-134980218D01*
X88064643Y-134984806D01*
X88064645Y-134984810D01*
X88170001Y-135187197D01*
X88172390Y-135191786D01*
X88175493Y-135195919D01*
X88175495Y-135195922D01*
X88312497Y-135378390D01*
X88315602Y-135382525D01*
X88488042Y-135547313D01*
X88492314Y-135550227D01*
X88492315Y-135550228D01*
X88520354Y-135569355D01*
X88685082Y-135681725D01*
X88793255Y-135731937D01*
X88896733Y-135779970D01*
X88896736Y-135779971D01*
X88901428Y-135782149D01*
X89131272Y-135845891D01*
X89136409Y-135846440D01*
X89322651Y-135866344D01*
X89322659Y-135866344D01*
X89325986Y-135866700D01*
X89464463Y-135866700D01*
X89467036Y-135866488D01*
X89467047Y-135866488D01*
X89636565Y-135852551D01*
X89636571Y-135852550D01*
X89641716Y-135852127D01*
X89757382Y-135823074D01*
X89868037Y-135795280D01*
X89868041Y-135795279D01*
X89873048Y-135794021D01*
X89877781Y-135791963D01*
X89877784Y-135791962D01*
X90087047Y-135700972D01*
X90087050Y-135700970D01*
X90091784Y-135698912D01*
X90292049Y-135569355D01*
X90303480Y-135558954D01*
X90464642Y-135412307D01*
X90464643Y-135412305D01*
X90468464Y-135408829D01*
X90471663Y-135404778D01*
X90471667Y-135404774D01*
X90613091Y-135225700D01*
X90613093Y-135225696D01*
X90616293Y-135221645D01*
X90731564Y-135012831D01*
X90744855Y-134975300D01*
X90809459Y-134792863D01*
X90809460Y-134792861D01*
X90811183Y-134787994D01*
X90853012Y-134553172D01*
X90854913Y-134397618D01*
X90855863Y-134319840D01*
X90855863Y-134319838D01*
X90855926Y-134314671D01*
X90819847Y-134078898D01*
X90745745Y-133852182D01*
X90727981Y-133818056D01*
X90637999Y-133645203D01*
X90637998Y-133645202D01*
X90635610Y-133640614D01*
X90610147Y-133606700D01*
X90495503Y-133454010D01*
X90495501Y-133454008D01*
X90492398Y-133449875D01*
X90441215Y-133400963D01*
X120484757Y-133400963D01*
X120501175Y-133596483D01*
X120555258Y-133785091D01*
X120558076Y-133790574D01*
X120642123Y-133954113D01*
X120642126Y-133954117D01*
X120644944Y-133959601D01*
X120766818Y-134113369D01*
X120916238Y-134240535D01*
X120921616Y-134243541D01*
X120921618Y-134243542D01*
X120957932Y-134263837D01*
X121087513Y-134336257D01*
X121274118Y-134396889D01*
X121468946Y-134420121D01*
X121475081Y-134419649D01*
X121475083Y-134419649D01*
X121658434Y-134405541D01*
X121658438Y-134405540D01*
X121664576Y-134405068D01*
X121853556Y-134352303D01*
X122028689Y-134263837D01*
X122058515Y-134240535D01*
X122178453Y-134146829D01*
X122183303Y-134143040D01*
X122213084Y-134108539D01*
X122307485Y-133999173D01*
X122307485Y-133999172D01*
X122311509Y-133994511D01*
X122408425Y-133823909D01*
X122470358Y-133637732D01*
X122494949Y-133443071D01*
X122495341Y-133415000D01*
X122476194Y-133219728D01*
X122474413Y-133213829D01*
X122474412Y-133213824D01*
X122421265Y-133037793D01*
X122419484Y-133031894D01*
X122327370Y-132858653D01*
X122203361Y-132706602D01*
X122052180Y-132581535D01*
X121879585Y-132488213D01*
X121785868Y-132459203D01*
X121698039Y-132432015D01*
X121698036Y-132432014D01*
X121692152Y-132430193D01*
X121686027Y-132429549D01*
X121686026Y-132429549D01*
X121503147Y-132410327D01*
X121503146Y-132410327D01*
X121497019Y-132409683D01*
X121374383Y-132420844D01*
X121307759Y-132426907D01*
X121307758Y-132426907D01*
X121301618Y-132427466D01*
X121295704Y-132429207D01*
X121295702Y-132429207D01*
X121166734Y-132467165D01*
X121113393Y-132482864D01*
X121107928Y-132485721D01*
X120944972Y-132570912D01*
X120944968Y-132570915D01*
X120939512Y-132573767D01*
X120934712Y-132577627D01*
X120934711Y-132577627D01*
X120900326Y-132605273D01*
X120786600Y-132696711D01*
X120660480Y-132847016D01*
X120657516Y-132852408D01*
X120657513Y-132852412D01*
X120622835Y-132915491D01*
X120565956Y-133018954D01*
X120506628Y-133205978D01*
X120484757Y-133400963D01*
X90441215Y-133400963D01*
X90319958Y-133285087D01*
X90122918Y-133150675D01*
X90014745Y-133100463D01*
X89911267Y-133052430D01*
X89911264Y-133052429D01*
X89906572Y-133050251D01*
X89676728Y-132986509D01*
X89668784Y-132985660D01*
X89485349Y-132966056D01*
X89485341Y-132966056D01*
X89482014Y-132965700D01*
X89343537Y-132965700D01*
X89340964Y-132965912D01*
X89340953Y-132965912D01*
X89171435Y-132979849D01*
X89171429Y-132979850D01*
X89166284Y-132980273D01*
X89050618Y-133009326D01*
X88939963Y-133037120D01*
X88939959Y-133037121D01*
X88934952Y-133038379D01*
X88930219Y-133040437D01*
X88930216Y-133040438D01*
X88720953Y-133131428D01*
X88720950Y-133131430D01*
X88716216Y-133133488D01*
X88515951Y-133263045D01*
X88512128Y-133266524D01*
X88512125Y-133266526D01*
X88343358Y-133420093D01*
X88339536Y-133423571D01*
X88336337Y-133427622D01*
X88336333Y-133427626D01*
X88202978Y-133596483D01*
X88191707Y-133610755D01*
X88189211Y-133615276D01*
X88189210Y-133615278D01*
X88172691Y-133645203D01*
X88076436Y-133819569D01*
X88074712Y-133824438D01*
X88074710Y-133824442D01*
X88016383Y-133989153D01*
X87996817Y-134044406D01*
X87990673Y-134078898D01*
X87957730Y-134263837D01*
X87954988Y-134279228D01*
X87954925Y-134284391D01*
X87953542Y-134397618D01*
X87952074Y-134517729D01*
X86605000Y-134517729D01*
X86605000Y-130932865D01*
X90768994Y-130932865D01*
X90769510Y-130939009D01*
X90782890Y-131098342D01*
X90784592Y-131118614D01*
X90786291Y-131124539D01*
X90828829Y-131272887D01*
X90835971Y-131297795D01*
X90838790Y-131303280D01*
X90916513Y-131454511D01*
X90921176Y-131463585D01*
X91036959Y-131609668D01*
X91178912Y-131730479D01*
X91341627Y-131821417D01*
X91518907Y-131879019D01*
X91703998Y-131901090D01*
X91710133Y-131900618D01*
X91710135Y-131900618D01*
X91883710Y-131887262D01*
X91883715Y-131887261D01*
X91889851Y-131886789D01*
X91895786Y-131885132D01*
X91981808Y-131861115D01*
X92052798Y-131862062D01*
X92104786Y-131893379D01*
X93126891Y-132915484D01*
X93126895Y-132915487D01*
X93149458Y-132938050D01*
X93158292Y-132942551D01*
X93158293Y-132942552D01*
X93169057Y-132948037D01*
X93185913Y-132958366D01*
X93203711Y-132971297D01*
X93224636Y-132978096D01*
X93242897Y-132985660D01*
X93247276Y-132987891D01*
X93262496Y-132995646D01*
X93272289Y-132997197D01*
X93284222Y-132999087D01*
X93303448Y-133003703D01*
X93314933Y-133007435D01*
X93314935Y-133007435D01*
X93324367Y-133010500D01*
X98783433Y-133010500D01*
X98792864Y-133007436D01*
X98792868Y-133007435D01*
X98804353Y-133003703D01*
X98823578Y-132999087D01*
X98835512Y-132997197D01*
X98835513Y-132997197D01*
X98845304Y-132995646D01*
X98854137Y-132991145D01*
X98854141Y-132991144D01*
X98864906Y-132985659D01*
X98883166Y-132978095D01*
X98904090Y-132971296D01*
X98921893Y-132958361D01*
X98938745Y-132948035D01*
X98949502Y-132942554D01*
X98958342Y-132938050D01*
X98980905Y-132915487D01*
X98980909Y-132915484D01*
X100171684Y-131724709D01*
X100171687Y-131724705D01*
X100194250Y-131702142D01*
X100198752Y-131693307D01*
X100204237Y-131682543D01*
X100214566Y-131665687D01*
X100221667Y-131655913D01*
X100227497Y-131647889D01*
X100234296Y-131626964D01*
X100241860Y-131608703D01*
X100247344Y-131597940D01*
X100247344Y-131597939D01*
X100251846Y-131589104D01*
X100255287Y-131567378D01*
X100259903Y-131548152D01*
X100263635Y-131536667D01*
X100263635Y-131536665D01*
X100266700Y-131527233D01*
X100266700Y-130860963D01*
X120484757Y-130860963D01*
X120501175Y-131056483D01*
X120555258Y-131245091D01*
X120558076Y-131250574D01*
X120642123Y-131414113D01*
X120642126Y-131414117D01*
X120644944Y-131419601D01*
X120766818Y-131573369D01*
X120771511Y-131577363D01*
X120771512Y-131577364D01*
X120884719Y-131673710D01*
X120916238Y-131700535D01*
X120921616Y-131703541D01*
X120921618Y-131703542D01*
X120957932Y-131723837D01*
X121087513Y-131796257D01*
X121274118Y-131856889D01*
X121468946Y-131880121D01*
X121475081Y-131879649D01*
X121475083Y-131879649D01*
X121658434Y-131865541D01*
X121658438Y-131865540D01*
X121664576Y-131865068D01*
X121853556Y-131812303D01*
X122028689Y-131723837D01*
X122056458Y-131702142D01*
X122115628Y-131655913D01*
X122183303Y-131603040D01*
X122187706Y-131597940D01*
X122307485Y-131459173D01*
X122307485Y-131459172D01*
X122311509Y-131454511D01*
X122408425Y-131283909D01*
X122470358Y-131097732D01*
X122494949Y-130903071D01*
X122495341Y-130875000D01*
X122476194Y-130679728D01*
X122474413Y-130673829D01*
X122474412Y-130673824D01*
X122421265Y-130497793D01*
X122419484Y-130491894D01*
X122327370Y-130318653D01*
X122203361Y-130166602D01*
X122052180Y-130041535D01*
X121879585Y-129948213D01*
X121760716Y-129911417D01*
X121698039Y-129892015D01*
X121698036Y-129892014D01*
X121692152Y-129890193D01*
X121686027Y-129889549D01*
X121686026Y-129889549D01*
X121503147Y-129870327D01*
X121503146Y-129870327D01*
X121497019Y-129869683D01*
X121374383Y-129880844D01*
X121307759Y-129886907D01*
X121307758Y-129886907D01*
X121301618Y-129887466D01*
X121295704Y-129889207D01*
X121295702Y-129889207D01*
X121220240Y-129911417D01*
X121113393Y-129942864D01*
X121107928Y-129945721D01*
X120944972Y-130030912D01*
X120944968Y-130030915D01*
X120939512Y-130033767D01*
X120934712Y-130037627D01*
X120934711Y-130037627D01*
X120923485Y-130046653D01*
X120786600Y-130156711D01*
X120660480Y-130307016D01*
X120657516Y-130312408D01*
X120657513Y-130312412D01*
X120602766Y-130411997D01*
X120565956Y-130478954D01*
X120506628Y-130665978D01*
X120484757Y-130860963D01*
X100266700Y-130860963D01*
X100266700Y-129520531D01*
X100286702Y-129452410D01*
X100294818Y-129442340D01*
X100294482Y-129442082D01*
X100373081Y-129339649D01*
X100390736Y-129316641D01*
X100451244Y-129170562D01*
X100471882Y-129013800D01*
X100451244Y-128857038D01*
X100390736Y-128710959D01*
X100294482Y-128585518D01*
X100280935Y-128575123D01*
X100200969Y-128513763D01*
X100159102Y-128456425D01*
X100154880Y-128385554D01*
X100189644Y-128323651D01*
X100192746Y-128320963D01*
X120484757Y-128320963D01*
X120501175Y-128516483D01*
X120555258Y-128705091D01*
X120558076Y-128710574D01*
X120642123Y-128874113D01*
X120642126Y-128874117D01*
X120644944Y-128879601D01*
X120766818Y-129033369D01*
X120771511Y-129037363D01*
X120771512Y-129037364D01*
X120876843Y-129127007D01*
X120916238Y-129160535D01*
X120921616Y-129163541D01*
X120921618Y-129163542D01*
X120992995Y-129203433D01*
X121087513Y-129256257D01*
X121274118Y-129316889D01*
X121468946Y-129340121D01*
X121475081Y-129339649D01*
X121475083Y-129339649D01*
X121658434Y-129325541D01*
X121658438Y-129325540D01*
X121664576Y-129325068D01*
X121853556Y-129272303D01*
X122028689Y-129183837D01*
X122045681Y-129170562D01*
X122121045Y-129111681D01*
X122183303Y-129063040D01*
X122198246Y-129045729D01*
X122307485Y-128919173D01*
X122307485Y-128919172D01*
X122311509Y-128914511D01*
X122316231Y-128906200D01*
X122405378Y-128749272D01*
X122408425Y-128743909D01*
X122470358Y-128557732D01*
X122494949Y-128363071D01*
X122495341Y-128335000D01*
X122476194Y-128139728D01*
X122474413Y-128133829D01*
X122474412Y-128133824D01*
X122421265Y-127957793D01*
X122419484Y-127951894D01*
X122327370Y-127778653D01*
X122203361Y-127626602D01*
X122052180Y-127501535D01*
X121879585Y-127408213D01*
X121746612Y-127367051D01*
X121698039Y-127352015D01*
X121698036Y-127352014D01*
X121692152Y-127350193D01*
X121686027Y-127349549D01*
X121686026Y-127349549D01*
X121503147Y-127330327D01*
X121503146Y-127330327D01*
X121497019Y-127329683D01*
X121374383Y-127340844D01*
X121307759Y-127346907D01*
X121307758Y-127346907D01*
X121301618Y-127347466D01*
X121295704Y-127349207D01*
X121295702Y-127349207D01*
X121235074Y-127367051D01*
X121113393Y-127402864D01*
X121107928Y-127405721D01*
X120944972Y-127490912D01*
X120944968Y-127490915D01*
X120939512Y-127493767D01*
X120934712Y-127497627D01*
X120934711Y-127497627D01*
X120910106Y-127517410D01*
X120786600Y-127616711D01*
X120660480Y-127767016D01*
X120657516Y-127772408D01*
X120657513Y-127772412D01*
X120593327Y-127889166D01*
X120565956Y-127938954D01*
X120564095Y-127944821D01*
X120564094Y-127944823D01*
X120555929Y-127970562D01*
X120506628Y-128125978D01*
X120484757Y-128320963D01*
X100192746Y-128320963D01*
X100200969Y-128313837D01*
X100287936Y-128247105D01*
X100294482Y-128242082D01*
X100390736Y-128116641D01*
X100451244Y-127970562D01*
X100471882Y-127813800D01*
X100451244Y-127657038D01*
X100390736Y-127510959D01*
X100294482Y-127385518D01*
X100287936Y-127380495D01*
X100287934Y-127380493D01*
X100283201Y-127376861D01*
X100241335Y-127319522D01*
X100237114Y-127248651D01*
X100271880Y-127186749D01*
X100283201Y-127176939D01*
X100287934Y-127173307D01*
X100287936Y-127173305D01*
X100294482Y-127168282D01*
X100390736Y-127042841D01*
X100451244Y-126896762D01*
X100471882Y-126740000D01*
X100451244Y-126583238D01*
X100390736Y-126437159D01*
X100294482Y-126311718D01*
X100169041Y-126215464D01*
X100022962Y-126154956D01*
X99866200Y-126134318D01*
X99709438Y-126154956D01*
X99563359Y-126215464D01*
X99437918Y-126311718D01*
X99436128Y-126309386D01*
X99386252Y-126336621D01*
X99359469Y-126339500D01*
X98746567Y-126339500D01*
X98737136Y-126342564D01*
X98737132Y-126342565D01*
X98725647Y-126346297D01*
X98706422Y-126350913D01*
X98694488Y-126352803D01*
X98694487Y-126352803D01*
X98684696Y-126354354D01*
X98675863Y-126358855D01*
X98675859Y-126358856D01*
X98665094Y-126364341D01*
X98646834Y-126371905D01*
X98625910Y-126378704D01*
X98608107Y-126391639D01*
X98591254Y-126401965D01*
X98571658Y-126411950D01*
X98549095Y-126434513D01*
X98549091Y-126434516D01*
X97474516Y-127509091D01*
X97474513Y-127509095D01*
X97451950Y-127531658D01*
X97447446Y-127540498D01*
X97441965Y-127551255D01*
X97431639Y-127568107D01*
X97418704Y-127585910D01*
X97411907Y-127606830D01*
X97404341Y-127625094D01*
X97398856Y-127635859D01*
X97398855Y-127635863D01*
X97394354Y-127644696D01*
X97392803Y-127654487D01*
X97392803Y-127654488D01*
X97390913Y-127666422D01*
X97386297Y-127685647D01*
X97382565Y-127697132D01*
X97382564Y-127697136D01*
X97379500Y-127706567D01*
X97379500Y-128921917D01*
X97359498Y-128990038D01*
X97342595Y-129011012D01*
X96864812Y-129488795D01*
X96802500Y-129522821D01*
X96775717Y-129525700D01*
X95213312Y-129525700D01*
X95145191Y-129505698D01*
X95102061Y-129458853D01*
X95072416Y-129403098D01*
X95072414Y-129403095D01*
X95069522Y-129397656D01*
X95065632Y-129392886D01*
X95065629Y-129392882D01*
X94955605Y-129257980D01*
X94955602Y-129257977D01*
X94951710Y-129253205D01*
X94891547Y-129203433D01*
X94877251Y-129191606D01*
X94837513Y-129132772D01*
X94835892Y-129061794D01*
X94872901Y-129001207D01*
X94896151Y-128985761D01*
X94895652Y-128984897D01*
X94909912Y-128976664D01*
X94951148Y-128947790D01*
X94959523Y-128937312D01*
X94952457Y-128923868D01*
X94286811Y-128258221D01*
X94272868Y-128250608D01*
X94271034Y-128250739D01*
X94264420Y-128254990D01*
X93594820Y-128924591D01*
X93588393Y-128936361D01*
X93597687Y-128948375D01*
X93638088Y-128976664D01*
X93652348Y-128984897D01*
X93651164Y-128986948D01*
X93696890Y-129027186D01*
X93716371Y-129095458D01*
X93695849Y-129163424D01*
X93669327Y-129192691D01*
X93610558Y-129239943D01*
X93610553Y-129239948D01*
X93605752Y-129243808D01*
X93485935Y-129386601D01*
X93482971Y-129391993D01*
X93482968Y-129391997D01*
X93429753Y-129488795D01*
X93396135Y-129549946D01*
X93394273Y-129555815D01*
X93394272Y-129555818D01*
X93347536Y-129703149D01*
X93307873Y-129762034D01*
X93242671Y-129790126D01*
X93172631Y-129778509D01*
X93138339Y-129754146D01*
X92672106Y-129287913D01*
X92638080Y-129225601D01*
X92641643Y-129159048D01*
X92655364Y-129117801D01*
X92665526Y-129037364D01*
X92678285Y-128936370D01*
X92678286Y-128936361D01*
X92678727Y-128932868D01*
X92679099Y-128906200D01*
X92660909Y-128720687D01*
X92659128Y-128714788D01*
X92659127Y-128714783D01*
X92608814Y-128548139D01*
X92607033Y-128542240D01*
X92561404Y-128456425D01*
X92522416Y-128383098D01*
X92522414Y-128383095D01*
X92519522Y-128377656D01*
X92515632Y-128372886D01*
X92515629Y-128372882D01*
X92405605Y-128237980D01*
X92405602Y-128237977D01*
X92401710Y-128233205D01*
X92396056Y-128228527D01*
X92281580Y-128133824D01*
X92258085Y-128114387D01*
X92094116Y-128025729D01*
X92005082Y-127998169D01*
X91921936Y-127972431D01*
X91921933Y-127972430D01*
X91916049Y-127970609D01*
X91909924Y-127969965D01*
X91909923Y-127969965D01*
X91736796Y-127951768D01*
X91736795Y-127951768D01*
X91730668Y-127951124D01*
X91657387Y-127957793D01*
X91551171Y-127967459D01*
X91551168Y-127967460D01*
X91545032Y-127968018D01*
X91539122Y-127969757D01*
X91539119Y-127969758D01*
X91372129Y-128018907D01*
X91366214Y-128020648D01*
X91201023Y-128107007D01*
X91055752Y-128223808D01*
X90935935Y-128366601D01*
X90932971Y-128371993D01*
X90932968Y-128371997D01*
X90884609Y-128459962D01*
X90846135Y-128529946D01*
X90844274Y-128535813D01*
X90844273Y-128535815D01*
X90832856Y-128571807D01*
X90789772Y-128707624D01*
X90768994Y-128892865D01*
X90769510Y-128899009D01*
X90783180Y-129061794D01*
X90784592Y-129078614D01*
X90786291Y-129084539D01*
X90828829Y-129232887D01*
X90835971Y-129257795D01*
X90838790Y-129263280D01*
X90914026Y-129409672D01*
X90921176Y-129423585D01*
X91036959Y-129569668D01*
X91178912Y-129690479D01*
X91341627Y-129781417D01*
X91417124Y-129805947D01*
X91475729Y-129846020D01*
X91503366Y-129911417D01*
X91491259Y-129981374D01*
X91443253Y-130033680D01*
X91413763Y-130046653D01*
X91372129Y-130058907D01*
X91366214Y-130060648D01*
X91201023Y-130147007D01*
X91055752Y-130263808D01*
X90935935Y-130406601D01*
X90932971Y-130411993D01*
X90932968Y-130411997D01*
X90858256Y-130547899D01*
X90846135Y-130569946D01*
X90844274Y-130575813D01*
X90844273Y-130575815D01*
X90793651Y-130735395D01*
X90789772Y-130747624D01*
X90768994Y-130932865D01*
X86605000Y-130932865D01*
X86605000Y-127891675D01*
X93011674Y-127891675D01*
X93029901Y-128100004D01*
X93031804Y-128110799D01*
X93085928Y-128312795D01*
X93089674Y-128323087D01*
X93178054Y-128512617D01*
X93183534Y-128522107D01*
X93212411Y-128563349D01*
X93222887Y-128571723D01*
X93236334Y-128564655D01*
X93901979Y-127899011D01*
X93908356Y-127887332D01*
X94638408Y-127887332D01*
X94638539Y-127889166D01*
X94642790Y-127895780D01*
X95312391Y-128565380D01*
X95324161Y-128571807D01*
X95336176Y-128562511D01*
X95364466Y-128522107D01*
X95369946Y-128512617D01*
X95458326Y-128323087D01*
X95462072Y-128312795D01*
X95516196Y-128110799D01*
X95518099Y-128100004D01*
X95536326Y-127891675D01*
X95536326Y-127880725D01*
X95518099Y-127672396D01*
X95516196Y-127661601D01*
X95462072Y-127459605D01*
X95458326Y-127449313D01*
X95369946Y-127259783D01*
X95364466Y-127250293D01*
X95335589Y-127209051D01*
X95325113Y-127200677D01*
X95311666Y-127207745D01*
X94646021Y-127873389D01*
X94638408Y-127887332D01*
X93908356Y-127887332D01*
X93909592Y-127885068D01*
X93909461Y-127883234D01*
X93905210Y-127876620D01*
X93235609Y-127207020D01*
X93223839Y-127200593D01*
X93211824Y-127209889D01*
X93183534Y-127250293D01*
X93178054Y-127259783D01*
X93089674Y-127449313D01*
X93085928Y-127459605D01*
X93031804Y-127661601D01*
X93029901Y-127672396D01*
X93011674Y-127880725D01*
X93011674Y-127891675D01*
X86605000Y-127891675D01*
X86605000Y-126835087D01*
X93588477Y-126835087D01*
X93595545Y-126848534D01*
X94261189Y-127514179D01*
X94275132Y-127521792D01*
X94276966Y-127521661D01*
X94283580Y-127517410D01*
X94953180Y-126847809D01*
X94959607Y-126836039D01*
X94950313Y-126824025D01*
X94909912Y-126795736D01*
X94900416Y-126790253D01*
X94710887Y-126701874D01*
X94700595Y-126698128D01*
X94498599Y-126644004D01*
X94487804Y-126642101D01*
X94279475Y-126623874D01*
X94268525Y-126623874D01*
X94060196Y-126642101D01*
X94049401Y-126644004D01*
X93847405Y-126698128D01*
X93837113Y-126701874D01*
X93647583Y-126790254D01*
X93638093Y-126795734D01*
X93596851Y-126824611D01*
X93588477Y-126835087D01*
X86605000Y-126835087D01*
X86605000Y-124517729D01*
X87952074Y-124517729D01*
X87988153Y-124753502D01*
X88062255Y-124980218D01*
X88064643Y-124984806D01*
X88064645Y-124984810D01*
X88117635Y-125086602D01*
X88172390Y-125191786D01*
X88175493Y-125195919D01*
X88175495Y-125195922D01*
X88312497Y-125378390D01*
X88315602Y-125382525D01*
X88488042Y-125547313D01*
X88492314Y-125550227D01*
X88492315Y-125550228D01*
X88553693Y-125592097D01*
X88685082Y-125681725D01*
X88793255Y-125731937D01*
X88896733Y-125779970D01*
X88896736Y-125779971D01*
X88901428Y-125782149D01*
X89131272Y-125845891D01*
X89136409Y-125846440D01*
X89322651Y-125866344D01*
X89322659Y-125866344D01*
X89325986Y-125866700D01*
X89464463Y-125866700D01*
X89467036Y-125866488D01*
X89467047Y-125866488D01*
X89636565Y-125852551D01*
X89636571Y-125852550D01*
X89641716Y-125852127D01*
X89771428Y-125819546D01*
X89868037Y-125795280D01*
X89868041Y-125795279D01*
X89873048Y-125794021D01*
X89877781Y-125791963D01*
X89877784Y-125791962D01*
X90087047Y-125700972D01*
X90087050Y-125700970D01*
X90091784Y-125698912D01*
X90292049Y-125569355D01*
X90313070Y-125550228D01*
X90464642Y-125412307D01*
X90464643Y-125412305D01*
X90468464Y-125408829D01*
X90471663Y-125404778D01*
X90471667Y-125404774D01*
X90613091Y-125225700D01*
X90613093Y-125225696D01*
X90616293Y-125221645D01*
X90731564Y-125012831D01*
X90744855Y-124975300D01*
X90809459Y-124792863D01*
X90809460Y-124792861D01*
X90811183Y-124787994D01*
X90838141Y-124636658D01*
X90852106Y-124558260D01*
X90852106Y-124558256D01*
X90853012Y-124553172D01*
X90855926Y-124314671D01*
X90823025Y-124099669D01*
X120182001Y-124099669D01*
X120182371Y-124106490D01*
X120187895Y-124157352D01*
X120191521Y-124172604D01*
X120236676Y-124293054D01*
X120245214Y-124308649D01*
X120321715Y-124410724D01*
X120334276Y-124423285D01*
X120436351Y-124499786D01*
X120451946Y-124508324D01*
X120572394Y-124553478D01*
X120587649Y-124557105D01*
X120638514Y-124562631D01*
X120645328Y-124563000D01*
X121257866Y-124563000D01*
X121325987Y-124583002D01*
X121372480Y-124636658D01*
X121382584Y-124706932D01*
X121353090Y-124771512D01*
X121293445Y-124809871D01*
X121113393Y-124862864D01*
X121107928Y-124865721D01*
X120944972Y-124950912D01*
X120944968Y-124950915D01*
X120939512Y-124953767D01*
X120934712Y-124957627D01*
X120934711Y-124957627D01*
X120912730Y-124975300D01*
X120786600Y-125076711D01*
X120660480Y-125227016D01*
X120657516Y-125232408D01*
X120657513Y-125232412D01*
X120578813Y-125375567D01*
X120565956Y-125398954D01*
X120506628Y-125585978D01*
X120484757Y-125780963D01*
X120501175Y-125976483D01*
X120555258Y-126165091D01*
X120558076Y-126170574D01*
X120642123Y-126334113D01*
X120642126Y-126334117D01*
X120644944Y-126339601D01*
X120766818Y-126493369D01*
X120916238Y-126620535D01*
X120921616Y-126623541D01*
X120921618Y-126623542D01*
X120954826Y-126642101D01*
X121087513Y-126716257D01*
X121274118Y-126776889D01*
X121468946Y-126800121D01*
X121475081Y-126799649D01*
X121475083Y-126799649D01*
X121658434Y-126785541D01*
X121658438Y-126785540D01*
X121664576Y-126785068D01*
X121853556Y-126732303D01*
X122028689Y-126643837D01*
X122058515Y-126620535D01*
X122178453Y-126526829D01*
X122183303Y-126523040D01*
X122213084Y-126488539D01*
X122307485Y-126379173D01*
X122307485Y-126379172D01*
X122311509Y-126374511D01*
X122314730Y-126368842D01*
X122399005Y-126220491D01*
X122408425Y-126203909D01*
X122470358Y-126017732D01*
X122494949Y-125823071D01*
X122495341Y-125795000D01*
X122476194Y-125599728D01*
X122474413Y-125593829D01*
X122474412Y-125593824D01*
X122421265Y-125417793D01*
X122419484Y-125411894D01*
X122327370Y-125238653D01*
X122203361Y-125086602D01*
X122052180Y-124961535D01*
X121879585Y-124868213D01*
X121692152Y-124810193D01*
X121692671Y-124808517D01*
X121637320Y-124779123D01*
X121602574Y-124717211D01*
X121606816Y-124646341D01*
X121648699Y-124589015D01*
X121714927Y-124563433D01*
X121725375Y-124562999D01*
X122334669Y-124562999D01*
X122341490Y-124562629D01*
X122392352Y-124557105D01*
X122407604Y-124553479D01*
X122528054Y-124508324D01*
X122543649Y-124499786D01*
X122645724Y-124423285D01*
X122658285Y-124410724D01*
X122734786Y-124308649D01*
X122743324Y-124293054D01*
X122788478Y-124172606D01*
X122792105Y-124157351D01*
X122797631Y-124106486D01*
X122798000Y-124099672D01*
X122798000Y-123527115D01*
X122793525Y-123511876D01*
X122792135Y-123510671D01*
X122784452Y-123509000D01*
X120200116Y-123509000D01*
X120184877Y-123513475D01*
X120183672Y-123514865D01*
X120182001Y-123522548D01*
X120182001Y-124099669D01*
X90823025Y-124099669D01*
X90819847Y-124078898D01*
X90745745Y-123852182D01*
X90635610Y-123640614D01*
X90610147Y-123606700D01*
X90495503Y-123454010D01*
X90495501Y-123454008D01*
X90492398Y-123449875D01*
X90319958Y-123285087D01*
X90122918Y-123150675D01*
X90014745Y-123100463D01*
X89911267Y-123052430D01*
X89911264Y-123052429D01*
X89906572Y-123050251D01*
X89676728Y-122986509D01*
X89642818Y-122982885D01*
X120182000Y-122982885D01*
X120186475Y-122998124D01*
X120187865Y-122999329D01*
X120195548Y-123001000D01*
X121217885Y-123001000D01*
X121233124Y-122996525D01*
X121234329Y-122995135D01*
X121236000Y-122987452D01*
X121236000Y-122982885D01*
X121744000Y-122982885D01*
X121748475Y-122998124D01*
X121749865Y-122999329D01*
X121757548Y-123001000D01*
X122779884Y-123001000D01*
X122795123Y-122996525D01*
X122796328Y-122995135D01*
X122797999Y-122987452D01*
X122797999Y-122410331D01*
X122797629Y-122403510D01*
X122792105Y-122352648D01*
X122788479Y-122337396D01*
X122743324Y-122216946D01*
X122734786Y-122201351D01*
X122658285Y-122099276D01*
X122645724Y-122086715D01*
X122543649Y-122010214D01*
X122528054Y-122001676D01*
X122407606Y-121956522D01*
X122392351Y-121952895D01*
X122341486Y-121947369D01*
X122334672Y-121947000D01*
X121762115Y-121947000D01*
X121746876Y-121951475D01*
X121745671Y-121952865D01*
X121744000Y-121960548D01*
X121744000Y-122982885D01*
X121236000Y-122982885D01*
X121236000Y-121965116D01*
X121231525Y-121949877D01*
X121230135Y-121948672D01*
X121222452Y-121947001D01*
X120645331Y-121947001D01*
X120638510Y-121947371D01*
X120587648Y-121952895D01*
X120572396Y-121956521D01*
X120451946Y-122001676D01*
X120436351Y-122010214D01*
X120334276Y-122086715D01*
X120321715Y-122099276D01*
X120245214Y-122201351D01*
X120236676Y-122216946D01*
X120191522Y-122337394D01*
X120187895Y-122352649D01*
X120182369Y-122403514D01*
X120182000Y-122410328D01*
X120182000Y-122982885D01*
X89642818Y-122982885D01*
X89485349Y-122966056D01*
X89485341Y-122966056D01*
X89482014Y-122965700D01*
X89343537Y-122965700D01*
X89340964Y-122965912D01*
X89340953Y-122965912D01*
X89171435Y-122979849D01*
X89171429Y-122979850D01*
X89166284Y-122980273D01*
X89083766Y-123001000D01*
X88939963Y-123037120D01*
X88939959Y-123037121D01*
X88934952Y-123038379D01*
X88930219Y-123040437D01*
X88930216Y-123040438D01*
X88720953Y-123131428D01*
X88720950Y-123131430D01*
X88716216Y-123133488D01*
X88515951Y-123263045D01*
X88512128Y-123266524D01*
X88512125Y-123266526D01*
X88343358Y-123420093D01*
X88339536Y-123423571D01*
X88336337Y-123427622D01*
X88336333Y-123427626D01*
X88194909Y-123606700D01*
X88191707Y-123610755D01*
X88076436Y-123819569D01*
X88074712Y-123824438D01*
X88074710Y-123824442D01*
X87998541Y-124039537D01*
X87996817Y-124044406D01*
X87954988Y-124279228D01*
X87952074Y-124517729D01*
X86605000Y-124517729D01*
X86605000Y-114517729D01*
X87952074Y-114517729D01*
X87988153Y-114753502D01*
X88062255Y-114980218D01*
X88172390Y-115191786D01*
X88175493Y-115195919D01*
X88175495Y-115195922D01*
X88279928Y-115335012D01*
X88315602Y-115382525D01*
X88488042Y-115547313D01*
X88685082Y-115681725D01*
X88793255Y-115731937D01*
X88896733Y-115779970D01*
X88896736Y-115779971D01*
X88901428Y-115782149D01*
X89131272Y-115845891D01*
X89136409Y-115846440D01*
X89322651Y-115866344D01*
X89322659Y-115866344D01*
X89325986Y-115866700D01*
X89464463Y-115866700D01*
X89467036Y-115866488D01*
X89467047Y-115866488D01*
X89636565Y-115852551D01*
X89636571Y-115852550D01*
X89641716Y-115852127D01*
X89757382Y-115823074D01*
X89868037Y-115795280D01*
X89868041Y-115795279D01*
X89873048Y-115794021D01*
X89877781Y-115791963D01*
X89877784Y-115791962D01*
X90087047Y-115700972D01*
X90087050Y-115700970D01*
X90091784Y-115698912D01*
X90292049Y-115569355D01*
X90304766Y-115557784D01*
X90464642Y-115412307D01*
X90464643Y-115412305D01*
X90468464Y-115408829D01*
X90471663Y-115404778D01*
X90471667Y-115404774D01*
X90613091Y-115225700D01*
X90613093Y-115225696D01*
X90616293Y-115221645D01*
X90731564Y-115012831D01*
X90744855Y-114975300D01*
X90809459Y-114792863D01*
X90809460Y-114792861D01*
X90811183Y-114787994D01*
X90853012Y-114553172D01*
X90855926Y-114314671D01*
X90819847Y-114078898D01*
X90745745Y-113852182D01*
X90635610Y-113640614D01*
X90610147Y-113606700D01*
X90495503Y-113454010D01*
X90495501Y-113454008D01*
X90492398Y-113449875D01*
X90319958Y-113285087D01*
X90195959Y-113200500D01*
X90127197Y-113153594D01*
X90122918Y-113150675D01*
X90014745Y-113100463D01*
X89911267Y-113052430D01*
X89911264Y-113052429D01*
X89906572Y-113050251D01*
X89676728Y-112986509D01*
X89671591Y-112985960D01*
X89485349Y-112966056D01*
X89485341Y-112966056D01*
X89482014Y-112965700D01*
X89343537Y-112965700D01*
X89340964Y-112965912D01*
X89340953Y-112965912D01*
X89171435Y-112979849D01*
X89171429Y-112979850D01*
X89166284Y-112980273D01*
X89050618Y-113009326D01*
X88939963Y-113037120D01*
X88939959Y-113037121D01*
X88934952Y-113038379D01*
X88930219Y-113040437D01*
X88930216Y-113040438D01*
X88720953Y-113131428D01*
X88720950Y-113131430D01*
X88716216Y-113133488D01*
X88515951Y-113263045D01*
X88512128Y-113266524D01*
X88512125Y-113266526D01*
X88343358Y-113420093D01*
X88339536Y-113423571D01*
X88336337Y-113427622D01*
X88336333Y-113427626D01*
X88194909Y-113606700D01*
X88191707Y-113610755D01*
X88076436Y-113819569D01*
X88074712Y-113824438D01*
X88074710Y-113824442D01*
X87998541Y-114039537D01*
X87996817Y-114044406D01*
X87954988Y-114279228D01*
X87952074Y-114517729D01*
X86605000Y-114517729D01*
X86605000Y-110932865D01*
X90768994Y-110932865D01*
X90769510Y-110939009D01*
X90781325Y-111079705D01*
X90784592Y-111118614D01*
X90786291Y-111124539D01*
X90829695Y-111275907D01*
X90835971Y-111297795D01*
X90838790Y-111303280D01*
X90916422Y-111454334D01*
X90921176Y-111463585D01*
X91036959Y-111609668D01*
X91178912Y-111730479D01*
X91184290Y-111733485D01*
X91184292Y-111733486D01*
X91258970Y-111775222D01*
X91308676Y-111825916D01*
X91323500Y-111885210D01*
X91323500Y-117527433D01*
X91326564Y-117536864D01*
X91326565Y-117536868D01*
X91330297Y-117548353D01*
X91334913Y-117567578D01*
X91338354Y-117589304D01*
X91342855Y-117598137D01*
X91342856Y-117598141D01*
X91348341Y-117608906D01*
X91355905Y-117627166D01*
X91362704Y-117648090D01*
X91375639Y-117665893D01*
X91385965Y-117682745D01*
X91395950Y-117702342D01*
X91418513Y-117724905D01*
X91418516Y-117724909D01*
X93245750Y-119552142D01*
X93335458Y-119641850D01*
X93344292Y-119646351D01*
X93344293Y-119646352D01*
X93355059Y-119651838D01*
X93371916Y-119662168D01*
X93389710Y-119675096D01*
X93410632Y-119681894D01*
X93428893Y-119689458D01*
X93439661Y-119694945D01*
X93439665Y-119694946D01*
X93448496Y-119699446D01*
X93458285Y-119700997D01*
X93458293Y-119700999D01*
X93470227Y-119702889D01*
X93489447Y-119707503D01*
X93500933Y-119711235D01*
X93500940Y-119711236D01*
X93510367Y-119714299D01*
X93542277Y-119714299D01*
X93542281Y-119714300D01*
X106318269Y-119714300D01*
X106386390Y-119734302D01*
X106396460Y-119742418D01*
X106396718Y-119742082D01*
X106522159Y-119838336D01*
X106668238Y-119898844D01*
X106825000Y-119919482D01*
X106833188Y-119918404D01*
X106973574Y-119899922D01*
X106981762Y-119898844D01*
X107127841Y-119838336D01*
X107253282Y-119742082D01*
X107349536Y-119616641D01*
X107410044Y-119470562D01*
X107411121Y-119462380D01*
X107411205Y-119462067D01*
X107448156Y-119401445D01*
X107512017Y-119370423D01*
X107582512Y-119378853D01*
X107632874Y-119417976D01*
X107661692Y-119455533D01*
X107661695Y-119455536D01*
X107666718Y-119462082D01*
X107673264Y-119467105D01*
X107702918Y-119489859D01*
X107792159Y-119558336D01*
X107938238Y-119618844D01*
X107946426Y-119619922D01*
X108016619Y-119629163D01*
X108095000Y-119639482D01*
X108103188Y-119638404D01*
X108243574Y-119619922D01*
X108251762Y-119618844D01*
X108397841Y-119558336D01*
X108487082Y-119489859D01*
X108516736Y-119467105D01*
X108523282Y-119462082D01*
X108619536Y-119336641D01*
X108680044Y-119190562D01*
X108684458Y-119157038D01*
X108699604Y-119041988D01*
X108700682Y-119033800D01*
X108680044Y-118877038D01*
X108619536Y-118730959D01*
X108523282Y-118605518D01*
X108525614Y-118603728D01*
X108498379Y-118553852D01*
X108495500Y-118527069D01*
X108495500Y-117593481D01*
X108495499Y-117593475D01*
X108495499Y-117561567D01*
X108492436Y-117552140D01*
X108492435Y-117552133D01*
X108488703Y-117540647D01*
X108484089Y-117521427D01*
X108482199Y-117509493D01*
X108482197Y-117509485D01*
X108480646Y-117499696D01*
X108476146Y-117490865D01*
X108476145Y-117490861D01*
X108470658Y-117480093D01*
X108463094Y-117461832D01*
X108456296Y-117440910D01*
X108443368Y-117423116D01*
X108433038Y-117406259D01*
X108427552Y-117395493D01*
X108427551Y-117395492D01*
X108423050Y-117386658D01*
X108333342Y-117296950D01*
X107530909Y-116494516D01*
X107530905Y-116494513D01*
X107508342Y-116471950D01*
X107488746Y-116461965D01*
X107471893Y-116451639D01*
X107454090Y-116438704D01*
X107433166Y-116431905D01*
X107414906Y-116424341D01*
X107404141Y-116418856D01*
X107404137Y-116418855D01*
X107395304Y-116414354D01*
X107385513Y-116412803D01*
X107385512Y-116412803D01*
X107373578Y-116410913D01*
X107354353Y-116406297D01*
X107342868Y-116402565D01*
X107342864Y-116402564D01*
X107333433Y-116399500D01*
X95828082Y-116399500D01*
X95759961Y-116379498D01*
X95738987Y-116362595D01*
X94711405Y-115335012D01*
X94677379Y-115272700D01*
X94674500Y-115245917D01*
X94674500Y-110866338D01*
X94694502Y-110798217D01*
X94743690Y-110753872D01*
X94780267Y-110735396D01*
X94780269Y-110735395D01*
X94785768Y-110732617D01*
X94899469Y-110643784D01*
X94927794Y-110621654D01*
X94927795Y-110621653D01*
X94932655Y-110617856D01*
X95054454Y-110476750D01*
X95146526Y-110314674D01*
X95205364Y-110137801D01*
X95220988Y-110014126D01*
X95228285Y-109956370D01*
X95228286Y-109956363D01*
X95228727Y-109952868D01*
X95229099Y-109926200D01*
X95210909Y-109740687D01*
X95209128Y-109734788D01*
X95209127Y-109734783D01*
X95158814Y-109568139D01*
X95157033Y-109562240D01*
X95102002Y-109458741D01*
X95072416Y-109403098D01*
X95072414Y-109403095D01*
X95069522Y-109397656D01*
X95065632Y-109392886D01*
X95065629Y-109392882D01*
X94955605Y-109257980D01*
X94955602Y-109257977D01*
X94951710Y-109253205D01*
X94880617Y-109194391D01*
X94877251Y-109191606D01*
X94837513Y-109132772D01*
X94835892Y-109061794D01*
X94872901Y-109001207D01*
X94896151Y-108985761D01*
X94895652Y-108984897D01*
X94909912Y-108976664D01*
X94951148Y-108947790D01*
X94959523Y-108937312D01*
X94952457Y-108923868D01*
X94286811Y-108258221D01*
X94272868Y-108250608D01*
X94271034Y-108250739D01*
X94264420Y-108254990D01*
X93594820Y-108924591D01*
X93588393Y-108936361D01*
X93597687Y-108948375D01*
X93638088Y-108976664D01*
X93652348Y-108984897D01*
X93651164Y-108986948D01*
X93696890Y-109027186D01*
X93716371Y-109095458D01*
X93695849Y-109163424D01*
X93669327Y-109192691D01*
X93610558Y-109239943D01*
X93610553Y-109239948D01*
X93605752Y-109243808D01*
X93485935Y-109386601D01*
X93482971Y-109391993D01*
X93482968Y-109391997D01*
X93412745Y-109519732D01*
X93396135Y-109549946D01*
X93394273Y-109555815D01*
X93394272Y-109555818D01*
X93347536Y-109703149D01*
X93307873Y-109762034D01*
X93242671Y-109790126D01*
X93172631Y-109778509D01*
X93138339Y-109754146D01*
X92672106Y-109287913D01*
X92638080Y-109225601D01*
X92641643Y-109159048D01*
X92655364Y-109117801D01*
X92670426Y-108998574D01*
X92678285Y-108936370D01*
X92678286Y-108936361D01*
X92678727Y-108932868D01*
X92679099Y-108906200D01*
X92660909Y-108720687D01*
X92659128Y-108714788D01*
X92659127Y-108714783D01*
X92608814Y-108548139D01*
X92607033Y-108542240D01*
X92554733Y-108443878D01*
X92522416Y-108383098D01*
X92522414Y-108383095D01*
X92519522Y-108377656D01*
X92515632Y-108372886D01*
X92515629Y-108372882D01*
X92405605Y-108237980D01*
X92405602Y-108237977D01*
X92401710Y-108233205D01*
X92396056Y-108228527D01*
X92307222Y-108155037D01*
X92258085Y-108114387D01*
X92094116Y-108025729D01*
X91973084Y-107988264D01*
X91921936Y-107972431D01*
X91921933Y-107972430D01*
X91916049Y-107970609D01*
X91909924Y-107969965D01*
X91909923Y-107969965D01*
X91736796Y-107951768D01*
X91736795Y-107951768D01*
X91730668Y-107951124D01*
X91652549Y-107958233D01*
X91551171Y-107967459D01*
X91551168Y-107967460D01*
X91545032Y-107968018D01*
X91539122Y-107969757D01*
X91539119Y-107969758D01*
X91425421Y-108003222D01*
X91366214Y-108020648D01*
X91201023Y-108107007D01*
X91055752Y-108223808D01*
X90935935Y-108366601D01*
X90932971Y-108371993D01*
X90932968Y-108371997D01*
X90876532Y-108474654D01*
X90846135Y-108529946D01*
X90844274Y-108535813D01*
X90844273Y-108535815D01*
X90793692Y-108695266D01*
X90789772Y-108707624D01*
X90768994Y-108892865D01*
X90769510Y-108899009D01*
X90783180Y-109061794D01*
X90784592Y-109078614D01*
X90786291Y-109084539D01*
X90828829Y-109232887D01*
X90835971Y-109257795D01*
X90859426Y-109303433D01*
X90916589Y-109414659D01*
X90921176Y-109423585D01*
X91036959Y-109569668D01*
X91178912Y-109690479D01*
X91184290Y-109693485D01*
X91184292Y-109693486D01*
X91243969Y-109726838D01*
X91341627Y-109781417D01*
X91417124Y-109805947D01*
X91475729Y-109846020D01*
X91503366Y-109911417D01*
X91491259Y-109981374D01*
X91443253Y-110033680D01*
X91413763Y-110046653D01*
X91372129Y-110058907D01*
X91366214Y-110060648D01*
X91201023Y-110147007D01*
X91055752Y-110263808D01*
X90935935Y-110406601D01*
X90932971Y-110411993D01*
X90932968Y-110411997D01*
X90894807Y-110481412D01*
X90846135Y-110569946D01*
X90844274Y-110575813D01*
X90844273Y-110575815D01*
X90794065Y-110734090D01*
X90789772Y-110747624D01*
X90768994Y-110932865D01*
X86605000Y-110932865D01*
X86605000Y-107891675D01*
X93011674Y-107891675D01*
X93029901Y-108100004D01*
X93031804Y-108110799D01*
X93085928Y-108312795D01*
X93089674Y-108323087D01*
X93178054Y-108512617D01*
X93183534Y-108522107D01*
X93212411Y-108563349D01*
X93222887Y-108571723D01*
X93236334Y-108564655D01*
X93901979Y-107899011D01*
X93908356Y-107887332D01*
X94638408Y-107887332D01*
X94638539Y-107889166D01*
X94642790Y-107895780D01*
X95312391Y-108565380D01*
X95324161Y-108571807D01*
X95336176Y-108562511D01*
X95364466Y-108522107D01*
X95369946Y-108512617D01*
X95458326Y-108323087D01*
X95462072Y-108312795D01*
X95516196Y-108110799D01*
X95518099Y-108100004D01*
X95536326Y-107891675D01*
X95536326Y-107880725D01*
X95518099Y-107672396D01*
X95516196Y-107661601D01*
X95462072Y-107459605D01*
X95458326Y-107449313D01*
X95369946Y-107259783D01*
X95364466Y-107250293D01*
X95335589Y-107209051D01*
X95325113Y-107200677D01*
X95311666Y-107207745D01*
X94646021Y-107873389D01*
X94638408Y-107887332D01*
X93908356Y-107887332D01*
X93909592Y-107885068D01*
X93909461Y-107883234D01*
X93905210Y-107876620D01*
X93235609Y-107207020D01*
X93223839Y-107200593D01*
X93211824Y-107209889D01*
X93183534Y-107250293D01*
X93178054Y-107259783D01*
X93089674Y-107449313D01*
X93085928Y-107459605D01*
X93031804Y-107661601D01*
X93029901Y-107672396D01*
X93011674Y-107880725D01*
X93011674Y-107891675D01*
X86605000Y-107891675D01*
X86605000Y-106835087D01*
X93588477Y-106835087D01*
X93595545Y-106848534D01*
X94261189Y-107514179D01*
X94275132Y-107521792D01*
X94276966Y-107521661D01*
X94283580Y-107517410D01*
X94953180Y-106847809D01*
X94959607Y-106836039D01*
X94950313Y-106824025D01*
X94909912Y-106795736D01*
X94900416Y-106790253D01*
X94710887Y-106701874D01*
X94700595Y-106698128D01*
X94498599Y-106644004D01*
X94487804Y-106642101D01*
X94279475Y-106623874D01*
X94268525Y-106623874D01*
X94060196Y-106642101D01*
X94049401Y-106644004D01*
X93847405Y-106698128D01*
X93837113Y-106701874D01*
X93647583Y-106790254D01*
X93638093Y-106795734D01*
X93596851Y-106824611D01*
X93588477Y-106835087D01*
X86605000Y-106835087D01*
X86605000Y-104517729D01*
X87952074Y-104517729D01*
X87988153Y-104753502D01*
X88062255Y-104980218D01*
X88064643Y-104984806D01*
X88064645Y-104984810D01*
X88163629Y-105174956D01*
X88172390Y-105191786D01*
X88175493Y-105195919D01*
X88175495Y-105195922D01*
X88302330Y-105364849D01*
X88315602Y-105382525D01*
X88346767Y-105412307D01*
X88459682Y-105520211D01*
X88488042Y-105547313D01*
X88685082Y-105681725D01*
X88737943Y-105706262D01*
X88896733Y-105779970D01*
X88896736Y-105779971D01*
X88901428Y-105782149D01*
X89131272Y-105845891D01*
X89136409Y-105846440D01*
X89322651Y-105866344D01*
X89322659Y-105866344D01*
X89325986Y-105866700D01*
X89464463Y-105866700D01*
X89467036Y-105866488D01*
X89467047Y-105866488D01*
X89636565Y-105852551D01*
X89636571Y-105852550D01*
X89641716Y-105852127D01*
X89757382Y-105823074D01*
X89868037Y-105795280D01*
X89868041Y-105795279D01*
X89873048Y-105794021D01*
X89877781Y-105791963D01*
X89877784Y-105791962D01*
X89951292Y-105760000D01*
X98964318Y-105760000D01*
X98965396Y-105768188D01*
X98976503Y-105852551D01*
X98984956Y-105916762D01*
X99045464Y-106062841D01*
X99112078Y-106149654D01*
X99141718Y-106188282D01*
X99139386Y-106190072D01*
X99166621Y-106239948D01*
X99169500Y-106266731D01*
X99169500Y-106483433D01*
X99172564Y-106492864D01*
X99172565Y-106492868D01*
X99176297Y-106504353D01*
X99180913Y-106523578D01*
X99184354Y-106545304D01*
X99188855Y-106554137D01*
X99188856Y-106554141D01*
X99194341Y-106564906D01*
X99201905Y-106583166D01*
X99208704Y-106604090D01*
X99221639Y-106621893D01*
X99231965Y-106638745D01*
X99241950Y-106658342D01*
X99264513Y-106680905D01*
X99264516Y-106680909D01*
X100232595Y-107648988D01*
X100266621Y-107711300D01*
X100269500Y-107738083D01*
X100269500Y-111433433D01*
X100272564Y-111442864D01*
X100272565Y-111442868D01*
X100276297Y-111454353D01*
X100280913Y-111473578D01*
X100284354Y-111495304D01*
X100288855Y-111504137D01*
X100288856Y-111504141D01*
X100294341Y-111514906D01*
X100301905Y-111533166D01*
X100308704Y-111554090D01*
X100321639Y-111571893D01*
X100331965Y-111588745D01*
X100341950Y-111608342D01*
X100364513Y-111630905D01*
X100364516Y-111630909D01*
X101771950Y-113038342D01*
X101861658Y-113128050D01*
X101870492Y-113132551D01*
X101870493Y-113132552D01*
X101881259Y-113138038D01*
X101898116Y-113148368D01*
X101915910Y-113161296D01*
X101936830Y-113168093D01*
X101955093Y-113175658D01*
X101965861Y-113181145D01*
X101965865Y-113181146D01*
X101974696Y-113185646D01*
X101984485Y-113187197D01*
X101984493Y-113187199D01*
X101996427Y-113189089D01*
X102015647Y-113193703D01*
X102027133Y-113197435D01*
X102027140Y-113197436D01*
X102036567Y-113200499D01*
X102068477Y-113200499D01*
X102068481Y-113200500D01*
X125713433Y-113200500D01*
X125722864Y-113197436D01*
X125722868Y-113197435D01*
X125734353Y-113193703D01*
X125753578Y-113189087D01*
X125765512Y-113187197D01*
X125765513Y-113187197D01*
X125775304Y-113185646D01*
X125784137Y-113181145D01*
X125784141Y-113181144D01*
X125794906Y-113175659D01*
X125813166Y-113168095D01*
X125834090Y-113161296D01*
X125851893Y-113148361D01*
X125868745Y-113138035D01*
X125879502Y-113132554D01*
X125888342Y-113128050D01*
X125910905Y-113105487D01*
X125910909Y-113105484D01*
X127745483Y-111270909D01*
X127768050Y-111248342D01*
X127774713Y-111235266D01*
X127778038Y-111228741D01*
X127788368Y-111211884D01*
X127795465Y-111202115D01*
X127801296Y-111194090D01*
X127808094Y-111173168D01*
X127815658Y-111154907D01*
X127821145Y-111144139D01*
X127821146Y-111144135D01*
X127825646Y-111135304D01*
X127827197Y-111125515D01*
X127827199Y-111125507D01*
X127829089Y-111113573D01*
X127833703Y-111094353D01*
X127837435Y-111082867D01*
X127837436Y-111082860D01*
X127840499Y-111073433D01*
X127840499Y-111041525D01*
X127840500Y-111041519D01*
X127840500Y-109348138D01*
X127860502Y-109280017D01*
X127914158Y-109233524D01*
X127984432Y-109223420D01*
X128049012Y-109252914D01*
X128066460Y-109271431D01*
X128066691Y-109271732D01*
X128066695Y-109271736D01*
X128071718Y-109278282D01*
X128078264Y-109283305D01*
X128107918Y-109306059D01*
X128197159Y-109374536D01*
X128343238Y-109435044D01*
X128500000Y-109455682D01*
X128508188Y-109454604D01*
X128648574Y-109436122D01*
X128656762Y-109435044D01*
X128802841Y-109374536D01*
X128928282Y-109278282D01*
X128930072Y-109280614D01*
X128979948Y-109253379D01*
X129006731Y-109250500D01*
X132813269Y-109250500D01*
X132881390Y-109270502D01*
X132891460Y-109278618D01*
X132891718Y-109278282D01*
X133017159Y-109374536D01*
X133163238Y-109435044D01*
X133320000Y-109455682D01*
X133328188Y-109454604D01*
X133468574Y-109436122D01*
X133476762Y-109435044D01*
X133622841Y-109374536D01*
X133712082Y-109306059D01*
X133741736Y-109283305D01*
X133748282Y-109278282D01*
X133753472Y-109271519D01*
X133790379Y-109223420D01*
X133844536Y-109152841D01*
X133905044Y-109006762D01*
X133925682Y-108850000D01*
X133905044Y-108693238D01*
X133844536Y-108547159D01*
X133748282Y-108421718D01*
X133622841Y-108325464D01*
X133476762Y-108264956D01*
X133320000Y-108244318D01*
X133163238Y-108264956D01*
X133017159Y-108325464D01*
X132891718Y-108421718D01*
X132889928Y-108419386D01*
X132840052Y-108446621D01*
X132813269Y-108449500D01*
X132606607Y-108449500D01*
X132538486Y-108429498D01*
X132491993Y-108375842D01*
X132481889Y-108305568D01*
X132511383Y-108240988D01*
X132558387Y-108207091D01*
X132612841Y-108184536D01*
X132713879Y-108107007D01*
X132731736Y-108093305D01*
X132738282Y-108088282D01*
X132757748Y-108062914D01*
X132786280Y-108025729D01*
X132834536Y-107962841D01*
X132895044Y-107816762D01*
X132915682Y-107660000D01*
X132900497Y-107544661D01*
X132896122Y-107511426D01*
X132895044Y-107503238D01*
X132834536Y-107357159D01*
X132738282Y-107231718D01*
X132633691Y-107151462D01*
X132591824Y-107094125D01*
X132587602Y-107023254D01*
X132622366Y-106961351D01*
X132685078Y-106928070D01*
X132710395Y-106925500D01*
X133863269Y-106925500D01*
X133931390Y-106945502D01*
X133941460Y-106953618D01*
X133941718Y-106953282D01*
X134067159Y-107049536D01*
X134213238Y-107110044D01*
X134370000Y-107130682D01*
X134378188Y-107129604D01*
X134518574Y-107111122D01*
X134526762Y-107110044D01*
X134672841Y-107049536D01*
X134798282Y-106953282D01*
X134817748Y-106927914D01*
X134859602Y-106873368D01*
X134894536Y-106827841D01*
X134955044Y-106681762D01*
X134957204Y-106665359D01*
X134974604Y-106533188D01*
X134975682Y-106525000D01*
X134955044Y-106368238D01*
X134894536Y-106222159D01*
X134798282Y-106096718D01*
X134672841Y-106000464D01*
X134526762Y-105939956D01*
X134370000Y-105919318D01*
X134213238Y-105939956D01*
X134067159Y-106000464D01*
X133941718Y-106096718D01*
X133939928Y-106094386D01*
X133890052Y-106121621D01*
X133863269Y-106124500D01*
X129006731Y-106124500D01*
X128938610Y-106104498D01*
X128928540Y-106096382D01*
X128928282Y-106096718D01*
X128892670Y-106069392D01*
X128802841Y-106000464D01*
X128780980Y-105991409D01*
X128725699Y-105946861D01*
X128703278Y-105879498D01*
X128720836Y-105810706D01*
X128772798Y-105762328D01*
X128780980Y-105758591D01*
X128802841Y-105749536D01*
X128928282Y-105653282D01*
X128930072Y-105655614D01*
X128979948Y-105628379D01*
X129006731Y-105625500D01*
X129873269Y-105625500D01*
X129941390Y-105645502D01*
X129951460Y-105653618D01*
X129951718Y-105653282D01*
X130077159Y-105749536D01*
X130223238Y-105810044D01*
X130380000Y-105830682D01*
X130388188Y-105829604D01*
X130528574Y-105811122D01*
X130536762Y-105810044D01*
X130682841Y-105749536D01*
X130808282Y-105653282D01*
X130827748Y-105627914D01*
X130882798Y-105556170D01*
X130904536Y-105527841D01*
X130965044Y-105381762D01*
X130985682Y-105225000D01*
X130965044Y-105068238D01*
X130904536Y-104922159D01*
X130808282Y-104796718D01*
X130682841Y-104700464D01*
X130536762Y-104639956D01*
X130380000Y-104619318D01*
X130223238Y-104639956D01*
X130077159Y-104700464D01*
X129951718Y-104796718D01*
X129949928Y-104794386D01*
X129900052Y-104821621D01*
X129873269Y-104824500D01*
X129006731Y-104824500D01*
X128938610Y-104804498D01*
X128928540Y-104796382D01*
X128928282Y-104796718D01*
X128865298Y-104748389D01*
X128802841Y-104700464D01*
X128656762Y-104639956D01*
X128500000Y-104619318D01*
X128343238Y-104639956D01*
X128197159Y-104700464D01*
X128071718Y-104796718D01*
X128066695Y-104803264D01*
X128066691Y-104803268D01*
X128066460Y-104803569D01*
X128066201Y-104803758D01*
X128060850Y-104809109D01*
X128060015Y-104808274D01*
X128009121Y-104845435D01*
X127938250Y-104849654D01*
X127876348Y-104814888D01*
X127843069Y-104752174D01*
X127840500Y-104726862D01*
X127840500Y-104328083D01*
X127860502Y-104259962D01*
X127877405Y-104238988D01*
X128808988Y-103307405D01*
X128871300Y-103273379D01*
X128898083Y-103270500D01*
X130053269Y-103270500D01*
X130121390Y-103290502D01*
X130131460Y-103298618D01*
X130131718Y-103298282D01*
X130257159Y-103394536D01*
X130403238Y-103455044D01*
X130560000Y-103475682D01*
X130568188Y-103474604D01*
X130708574Y-103456122D01*
X130716762Y-103455044D01*
X130862841Y-103394536D01*
X130967162Y-103314488D01*
X130981736Y-103303305D01*
X130988282Y-103298282D01*
X130998402Y-103285094D01*
X131028468Y-103245910D01*
X131084536Y-103172841D01*
X131145044Y-103026762D01*
X131165682Y-102870000D01*
X131145044Y-102713238D01*
X131084536Y-102567159D01*
X130988282Y-102441718D01*
X130862841Y-102345464D01*
X130716762Y-102284956D01*
X130560000Y-102264318D01*
X130403238Y-102284956D01*
X130395609Y-102288116D01*
X130264789Y-102342303D01*
X130264786Y-102342305D01*
X130257159Y-102345464D01*
X130250608Y-102350491D01*
X130247639Y-102352205D01*
X130178644Y-102368942D01*
X130111552Y-102345721D01*
X130067665Y-102289914D01*
X130060917Y-102219239D01*
X130062217Y-102213587D01*
X130065044Y-102206762D01*
X130085682Y-102050000D01*
X130065044Y-101893238D01*
X130004536Y-101747159D01*
X129930291Y-101650401D01*
X129913305Y-101628264D01*
X129908282Y-101621718D01*
X129782841Y-101525464D01*
X129636762Y-101464956D01*
X129493782Y-101446132D01*
X129428856Y-101417411D01*
X129389764Y-101358146D01*
X129385307Y-101304765D01*
X129404604Y-101158188D01*
X129405682Y-101150000D01*
X129385044Y-100993238D01*
X129324536Y-100847159D01*
X129228282Y-100721718D01*
X129102841Y-100625464D01*
X128956762Y-100564956D01*
X128800000Y-100544318D01*
X128643238Y-100564956D01*
X128497159Y-100625464D01*
X128371718Y-100721718D01*
X128369928Y-100719386D01*
X128320052Y-100746621D01*
X128293269Y-100749500D01*
X127406567Y-100749500D01*
X127397136Y-100752564D01*
X127397132Y-100752565D01*
X127385647Y-100756297D01*
X127366422Y-100760913D01*
X127354488Y-100762803D01*
X127354487Y-100762803D01*
X127344696Y-100764354D01*
X127335863Y-100768855D01*
X127335859Y-100768856D01*
X127325094Y-100774341D01*
X127306834Y-100781905D01*
X127285910Y-100788704D01*
X127268107Y-100801639D01*
X127251254Y-100811965D01*
X127231658Y-100821950D01*
X127209095Y-100844513D01*
X127209091Y-100844516D01*
X125464516Y-102589091D01*
X125464513Y-102589095D01*
X125441950Y-102611658D01*
X125437446Y-102620498D01*
X125431965Y-102631255D01*
X125421639Y-102648107D01*
X125408704Y-102665910D01*
X125401907Y-102686830D01*
X125394341Y-102705094D01*
X125388856Y-102715859D01*
X125388855Y-102715863D01*
X125384354Y-102724696D01*
X125382803Y-102734487D01*
X125382803Y-102734488D01*
X125380913Y-102746422D01*
X125376297Y-102765647D01*
X125372565Y-102777132D01*
X125372564Y-102777136D01*
X125369500Y-102786567D01*
X125369500Y-109741917D01*
X125349498Y-109810038D01*
X125332595Y-109831012D01*
X124571012Y-110592595D01*
X124508700Y-110626621D01*
X124481917Y-110629500D01*
X120798690Y-110629500D01*
X120730569Y-110609498D01*
X120684076Y-110555842D01*
X120673972Y-110485568D01*
X120703466Y-110420988D01*
X120716589Y-110408943D01*
X120718342Y-110408050D01*
X120740901Y-110385491D01*
X120740910Y-110385483D01*
X121625483Y-109500909D01*
X121648050Y-109478342D01*
X121652553Y-109469505D01*
X121658038Y-109458741D01*
X121668368Y-109441884D01*
X121675465Y-109432115D01*
X121681296Y-109424090D01*
X121688094Y-109403168D01*
X121695658Y-109384907D01*
X121701145Y-109374139D01*
X121701146Y-109374135D01*
X121705646Y-109365304D01*
X121707197Y-109355515D01*
X121707199Y-109355507D01*
X121709089Y-109343573D01*
X121713703Y-109324353D01*
X121717435Y-109312867D01*
X121717436Y-109312860D01*
X121720499Y-109303433D01*
X121720499Y-109271525D01*
X121720500Y-109271519D01*
X121720500Y-103366567D01*
X121717436Y-103357136D01*
X121717435Y-103357132D01*
X121713703Y-103345647D01*
X121709087Y-103326422D01*
X121707197Y-103314488D01*
X121707197Y-103314487D01*
X121705646Y-103304696D01*
X121701145Y-103295863D01*
X121701144Y-103295859D01*
X121695659Y-103285094D01*
X121688093Y-103266830D01*
X121681296Y-103245910D01*
X121668361Y-103228107D01*
X121658035Y-103211255D01*
X121652554Y-103200498D01*
X121648050Y-103191658D01*
X121625487Y-103169095D01*
X121625484Y-103169091D01*
X120775909Y-102319516D01*
X120775905Y-102319513D01*
X120753342Y-102296950D01*
X120733746Y-102286965D01*
X120716893Y-102276639D01*
X120699090Y-102263704D01*
X120678166Y-102256905D01*
X120659906Y-102249341D01*
X120649141Y-102243856D01*
X120649137Y-102243855D01*
X120640304Y-102239354D01*
X120630513Y-102237803D01*
X120630512Y-102237803D01*
X120618578Y-102235913D01*
X120599353Y-102231297D01*
X120587868Y-102227565D01*
X120587864Y-102227564D01*
X120578433Y-102224500D01*
X118611731Y-102224500D01*
X118543610Y-102204498D01*
X118533540Y-102196382D01*
X118533282Y-102196718D01*
X118414392Y-102105491D01*
X118407841Y-102100464D01*
X118261762Y-102039956D01*
X118105000Y-102019318D01*
X117948238Y-102039956D01*
X117802159Y-102100464D01*
X117676718Y-102196718D01*
X117580464Y-102322159D01*
X117519956Y-102468238D01*
X117518878Y-102476426D01*
X117518121Y-102482175D01*
X117499318Y-102625000D01*
X117519956Y-102781762D01*
X117580464Y-102927841D01*
X117626542Y-102987891D01*
X117665283Y-103038379D01*
X117676718Y-103053282D01*
X117802159Y-103149536D01*
X117948238Y-103210044D01*
X117956426Y-103211122D01*
X117967698Y-103212606D01*
X118105000Y-103230682D01*
X118113188Y-103229604D01*
X118117055Y-103229095D01*
X118242302Y-103212606D01*
X118253574Y-103211122D01*
X118261762Y-103210044D01*
X118407841Y-103149536D01*
X118533282Y-103053282D01*
X118535072Y-103055614D01*
X118584948Y-103028379D01*
X118611731Y-103025500D01*
X120296917Y-103025500D01*
X120365038Y-103045502D01*
X120386012Y-103062405D01*
X120882595Y-103558988D01*
X120916621Y-103621300D01*
X120919500Y-103648083D01*
X120919500Y-109021917D01*
X120899498Y-109090038D01*
X120882595Y-109111013D01*
X120351011Y-109642596D01*
X120288699Y-109676621D01*
X120261916Y-109679500D01*
X117619731Y-109679500D01*
X117551610Y-109659498D01*
X117505117Y-109605842D01*
X117495013Y-109535568D01*
X117524507Y-109470988D01*
X117530636Y-109464405D01*
X117531736Y-109463305D01*
X117538282Y-109458282D01*
X117634536Y-109332841D01*
X117695044Y-109186762D01*
X117698117Y-109163424D01*
X117714604Y-109038188D01*
X117715682Y-109030000D01*
X117695044Y-108873238D01*
X117634536Y-108727159D01*
X117538282Y-108601718D01*
X117412841Y-108505464D01*
X117266762Y-108444956D01*
X117110000Y-108424318D01*
X116953238Y-108444956D01*
X116945609Y-108448116D01*
X116860199Y-108483494D01*
X116789609Y-108491083D01*
X116726122Y-108459304D01*
X116689895Y-108398246D01*
X116692429Y-108327294D01*
X116712018Y-108290381D01*
X116789509Y-108189392D01*
X116794536Y-108182841D01*
X116855044Y-108036762D01*
X116875682Y-107880000D01*
X116855044Y-107723238D01*
X116794536Y-107577159D01*
X116698282Y-107451718D01*
X116700614Y-107449928D01*
X116673379Y-107400052D01*
X116670500Y-107373269D01*
X116670500Y-105796567D01*
X116667436Y-105787136D01*
X116667435Y-105787132D01*
X116663703Y-105775647D01*
X116659087Y-105756422D01*
X116657197Y-105744488D01*
X116657197Y-105744487D01*
X116655646Y-105734696D01*
X116651145Y-105725863D01*
X116651144Y-105725859D01*
X116645659Y-105715094D01*
X116638093Y-105696830D01*
X116631296Y-105675910D01*
X116618361Y-105658107D01*
X116608035Y-105641255D01*
X116602554Y-105630498D01*
X116598050Y-105621658D01*
X116575487Y-105599095D01*
X116575484Y-105599091D01*
X115227405Y-104251012D01*
X115193379Y-104188700D01*
X115190500Y-104161917D01*
X115190500Y-103533098D01*
X115210502Y-103464977D01*
X115264158Y-103418484D01*
X115334432Y-103408380D01*
X115393204Y-103433135D01*
X115447159Y-103474536D01*
X115593238Y-103535044D01*
X115750000Y-103555682D01*
X115758188Y-103554604D01*
X115898574Y-103536122D01*
X115906762Y-103535044D01*
X116052841Y-103474536D01*
X116178282Y-103378282D01*
X116180072Y-103380614D01*
X116229948Y-103353379D01*
X116256731Y-103350500D01*
X116261916Y-103350500D01*
X116330037Y-103370502D01*
X116351011Y-103387404D01*
X116732595Y-103768987D01*
X116766620Y-103831300D01*
X116769500Y-103858083D01*
X116769500Y-104063269D01*
X116749498Y-104131390D01*
X116741382Y-104141460D01*
X116741718Y-104141718D01*
X116645464Y-104267159D01*
X116584956Y-104413238D01*
X116564318Y-104570000D01*
X116584956Y-104726762D01*
X116645464Y-104872841D01*
X116741718Y-104998282D01*
X116867159Y-105094536D01*
X117013238Y-105155044D01*
X117170000Y-105175682D01*
X117178188Y-105174604D01*
X117318574Y-105156122D01*
X117326762Y-105155044D01*
X117472841Y-105094536D01*
X117598282Y-104998282D01*
X117694536Y-104872841D01*
X117755044Y-104726762D01*
X117775682Y-104570000D01*
X117755044Y-104413238D01*
X117694536Y-104267159D01*
X117598282Y-104141718D01*
X117600614Y-104139928D01*
X117573379Y-104090052D01*
X117570500Y-104063269D01*
X117570500Y-103608481D01*
X117570499Y-103608475D01*
X117570499Y-103576567D01*
X117567436Y-103567140D01*
X117567435Y-103567133D01*
X117563703Y-103555647D01*
X117559089Y-103536427D01*
X117557199Y-103524493D01*
X117557197Y-103524485D01*
X117555646Y-103514696D01*
X117551146Y-103505865D01*
X117551145Y-103505861D01*
X117545658Y-103495093D01*
X117538094Y-103476832D01*
X117531296Y-103455910D01*
X117518368Y-103438116D01*
X117508038Y-103421259D01*
X117502552Y-103410493D01*
X117502551Y-103410492D01*
X117498050Y-103401658D01*
X117408342Y-103311950D01*
X116740909Y-102644516D01*
X116740905Y-102644513D01*
X116718342Y-102621950D01*
X116698746Y-102611965D01*
X116681893Y-102601639D01*
X116664090Y-102588704D01*
X116643166Y-102581905D01*
X116624906Y-102574341D01*
X116614141Y-102568856D01*
X116614137Y-102568855D01*
X116605304Y-102564354D01*
X116595513Y-102562803D01*
X116595512Y-102562803D01*
X116583578Y-102560913D01*
X116564353Y-102556297D01*
X116552868Y-102552565D01*
X116552864Y-102552564D01*
X116543433Y-102549500D01*
X116256731Y-102549500D01*
X116188610Y-102529498D01*
X116178540Y-102521382D01*
X116178282Y-102521718D01*
X116098643Y-102460609D01*
X116052841Y-102425464D01*
X115906762Y-102364956D01*
X115750000Y-102344318D01*
X115593238Y-102364956D01*
X115447159Y-102425464D01*
X115414531Y-102450500D01*
X115393204Y-102466865D01*
X115326983Y-102492465D01*
X115257435Y-102478200D01*
X115206639Y-102428599D01*
X115190500Y-102366902D01*
X115190500Y-101486731D01*
X115210502Y-101418610D01*
X115218618Y-101408540D01*
X115218282Y-101408282D01*
X115314536Y-101282841D01*
X115375044Y-101136762D01*
X115395682Y-100980000D01*
X115375044Y-100823238D01*
X115314536Y-100677159D01*
X115218282Y-100551718D01*
X115092841Y-100455464D01*
X114946762Y-100394956D01*
X114790000Y-100374318D01*
X114633238Y-100394956D01*
X114487159Y-100455464D01*
X114361718Y-100551718D01*
X114265464Y-100677159D01*
X114204956Y-100823238D01*
X114184318Y-100980000D01*
X114204956Y-101136762D01*
X114265464Y-101282841D01*
X114361718Y-101408282D01*
X114359386Y-101410072D01*
X114386621Y-101459948D01*
X114389500Y-101486731D01*
X114389500Y-104443433D01*
X114392564Y-104452864D01*
X114392565Y-104452868D01*
X114396297Y-104464353D01*
X114400913Y-104483578D01*
X114404354Y-104505304D01*
X114408855Y-104514137D01*
X114408856Y-104514141D01*
X114414341Y-104524906D01*
X114421905Y-104543166D01*
X114428704Y-104564090D01*
X114441639Y-104581893D01*
X114451965Y-104598745D01*
X114461950Y-104618342D01*
X114484513Y-104640905D01*
X114484516Y-104640909D01*
X115832595Y-105988988D01*
X115866621Y-106051300D01*
X115869500Y-106078083D01*
X115869500Y-106192180D01*
X115849498Y-106260301D01*
X115795842Y-106306794D01*
X115725568Y-106316898D01*
X115660988Y-106287404D01*
X115627092Y-106240399D01*
X115622699Y-106229793D01*
X115622696Y-106229788D01*
X115619536Y-106222159D01*
X115523282Y-106096718D01*
X115397841Y-106000464D01*
X115251762Y-105939956D01*
X115095000Y-105919318D01*
X114938238Y-105939956D01*
X114792159Y-106000464D01*
X114666718Y-106096718D01*
X114664928Y-106094386D01*
X114615052Y-106121621D01*
X114588269Y-106124500D01*
X114353083Y-106124500D01*
X114284962Y-106104498D01*
X114263987Y-106087595D01*
X113817404Y-105641011D01*
X113783379Y-105578699D01*
X113780500Y-105551916D01*
X113780500Y-102156731D01*
X113800502Y-102088610D01*
X113808618Y-102078540D01*
X113808282Y-102078282D01*
X113852699Y-102020396D01*
X113904536Y-101952841D01*
X113965044Y-101806762D01*
X113985682Y-101650000D01*
X113965044Y-101493238D01*
X113904536Y-101347159D01*
X113808282Y-101221718D01*
X113682841Y-101125464D01*
X113536762Y-101064956D01*
X113380000Y-101044318D01*
X113223238Y-101064956D01*
X113077159Y-101125464D01*
X112951718Y-101221718D01*
X112855464Y-101347159D01*
X112794956Y-101493238D01*
X112774318Y-101650000D01*
X112794956Y-101806762D01*
X112855464Y-101952841D01*
X112907301Y-102020396D01*
X112951718Y-102078282D01*
X112949386Y-102080072D01*
X112976621Y-102129948D01*
X112979500Y-102156731D01*
X112979500Y-105833433D01*
X112982564Y-105842864D01*
X112982565Y-105842868D01*
X112986297Y-105854353D01*
X112990913Y-105873578D01*
X112994354Y-105895304D01*
X112998855Y-105904137D01*
X112998856Y-105904141D01*
X113004341Y-105914906D01*
X113011905Y-105933166D01*
X113018704Y-105954090D01*
X113031639Y-105971893D01*
X113041965Y-105988745D01*
X113051950Y-106008342D01*
X113074503Y-106030895D01*
X113074516Y-106030909D01*
X113806950Y-106763342D01*
X113896658Y-106853050D01*
X113905494Y-106857552D01*
X113905495Y-106857553D01*
X113916259Y-106863038D01*
X113933116Y-106873368D01*
X113950910Y-106886296D01*
X113971832Y-106893094D01*
X113990093Y-106900658D01*
X114000861Y-106906145D01*
X114000865Y-106906146D01*
X114009696Y-106910646D01*
X114019485Y-106912197D01*
X114019493Y-106912199D01*
X114031427Y-106914089D01*
X114050647Y-106918703D01*
X114062133Y-106922435D01*
X114062140Y-106922436D01*
X114071567Y-106925499D01*
X114103477Y-106925499D01*
X114103481Y-106925500D01*
X114588269Y-106925500D01*
X114656390Y-106945502D01*
X114666460Y-106953618D01*
X114666718Y-106953282D01*
X114792159Y-107049536D01*
X114938238Y-107110044D01*
X115095000Y-107130682D01*
X115103188Y-107129604D01*
X115243574Y-107111122D01*
X115251762Y-107110044D01*
X115397841Y-107049536D01*
X115523282Y-106953282D01*
X115542748Y-106927914D01*
X115584602Y-106873368D01*
X115619536Y-106827841D01*
X115622696Y-106820212D01*
X115622699Y-106820207D01*
X115627092Y-106809601D01*
X115671640Y-106754320D01*
X115739004Y-106731900D01*
X115807795Y-106749459D01*
X115856173Y-106801421D01*
X115869500Y-106857820D01*
X115869500Y-107373269D01*
X115849498Y-107441390D01*
X115841382Y-107451460D01*
X115841718Y-107451718D01*
X115745464Y-107577159D01*
X115684956Y-107723238D01*
X115664318Y-107880000D01*
X115684956Y-108036762D01*
X115745464Y-108182841D01*
X115797463Y-108250608D01*
X115833594Y-108297694D01*
X115841718Y-108308282D01*
X115848264Y-108313305D01*
X115965857Y-108403537D01*
X116007724Y-108460875D01*
X116011946Y-108531746D01*
X115977182Y-108593649D01*
X115914469Y-108626930D01*
X115889153Y-108629500D01*
X113688083Y-108629500D01*
X113619962Y-108609498D01*
X113598988Y-108592595D01*
X112247405Y-107241012D01*
X112213379Y-107178700D01*
X112210500Y-107151917D01*
X112210500Y-100186731D01*
X112230502Y-100118610D01*
X112238618Y-100108540D01*
X112238282Y-100108282D01*
X112329509Y-99989392D01*
X112334536Y-99982841D01*
X112395044Y-99836762D01*
X112415682Y-99680000D01*
X112395044Y-99523238D01*
X112334536Y-99377159D01*
X112238282Y-99251718D01*
X112112841Y-99155464D01*
X111966762Y-99094956D01*
X111810000Y-99074318D01*
X111653238Y-99094956D01*
X111507159Y-99155464D01*
X111381718Y-99251718D01*
X111285464Y-99377159D01*
X111224956Y-99523238D01*
X111204318Y-99680000D01*
X111224956Y-99836762D01*
X111285464Y-99982841D01*
X111290491Y-99989392D01*
X111381718Y-100108282D01*
X111379386Y-100110072D01*
X111406621Y-100159948D01*
X111409500Y-100186731D01*
X111409500Y-107433433D01*
X111412564Y-107442864D01*
X111412565Y-107442868D01*
X111416297Y-107454353D01*
X111420913Y-107473578D01*
X111424354Y-107495304D01*
X111428855Y-107504137D01*
X111428856Y-107504141D01*
X111434341Y-107514906D01*
X111441905Y-107533166D01*
X111448704Y-107554090D01*
X111461639Y-107571893D01*
X111471965Y-107588745D01*
X111481950Y-107608342D01*
X111504513Y-107630905D01*
X111504516Y-107630909D01*
X113209091Y-109335484D01*
X113209095Y-109335487D01*
X113231658Y-109358050D01*
X113240492Y-109362551D01*
X113240493Y-109362552D01*
X113251257Y-109368037D01*
X113268113Y-109378366D01*
X113285911Y-109391297D01*
X113306836Y-109398096D01*
X113325097Y-109405660D01*
X113335860Y-109411144D01*
X113344696Y-109415646D01*
X113354489Y-109417197D01*
X113366422Y-109419087D01*
X113385648Y-109423703D01*
X113406567Y-109430500D01*
X113410394Y-109430500D01*
X113471490Y-109459464D01*
X113509017Y-109519732D01*
X113508003Y-109590722D01*
X113468770Y-109649893D01*
X113403774Y-109678461D01*
X113387626Y-109679500D01*
X110798083Y-109679500D01*
X110729962Y-109659498D01*
X110708988Y-109642595D01*
X110217405Y-109151012D01*
X110183379Y-109088700D01*
X110180500Y-109061917D01*
X110180500Y-108916731D01*
X110200502Y-108848610D01*
X110208618Y-108838540D01*
X110208282Y-108838282D01*
X110286837Y-108735907D01*
X110304536Y-108712841D01*
X110365044Y-108566762D01*
X110385682Y-108410000D01*
X110365044Y-108253238D01*
X110304536Y-108107159D01*
X110208282Y-107981718D01*
X110193805Y-107970609D01*
X110096285Y-107895780D01*
X110082841Y-107885464D01*
X109936762Y-107824956D01*
X109780000Y-107804318D01*
X109623238Y-107824956D01*
X109477159Y-107885464D01*
X109463715Y-107895780D01*
X109366196Y-107970609D01*
X109351718Y-107981718D01*
X109255464Y-108107159D01*
X109194956Y-108253238D01*
X109174318Y-108410000D01*
X109194956Y-108566762D01*
X109198116Y-108574391D01*
X109252304Y-108705211D01*
X109255464Y-108712841D01*
X109259538Y-108718150D01*
X109276105Y-108786442D01*
X109252884Y-108853534D01*
X109197077Y-108897421D01*
X109126402Y-108904169D01*
X109073544Y-108880409D01*
X108979088Y-108807931D01*
X108962841Y-108795464D01*
X108816762Y-108734956D01*
X108783250Y-108730544D01*
X108738381Y-108724637D01*
X108660000Y-108714318D01*
X108581619Y-108724637D01*
X108536751Y-108730544D01*
X108503238Y-108734956D01*
X108357159Y-108795464D01*
X108231718Y-108891718D01*
X108226695Y-108898264D01*
X108226692Y-108898267D01*
X108215263Y-108913162D01*
X108157926Y-108955030D01*
X108087055Y-108959252D01*
X108025151Y-108924489D01*
X107991870Y-108861776D01*
X107989300Y-108836459D01*
X107989300Y-108807931D01*
X108009302Y-108739810D01*
X108017418Y-108729740D01*
X108017082Y-108729482D01*
X108024824Y-108719392D01*
X108113336Y-108604041D01*
X108173844Y-108457962D01*
X108176224Y-108439888D01*
X108193404Y-108309388D01*
X108194482Y-108301200D01*
X108173844Y-108144438D01*
X108113336Y-107998359D01*
X108030566Y-107890491D01*
X108022105Y-107879464D01*
X108017082Y-107872918D01*
X107996760Y-107857324D01*
X107958695Y-107828116D01*
X107891641Y-107776664D01*
X107745562Y-107716156D01*
X107588800Y-107695518D01*
X107432038Y-107716156D01*
X107285959Y-107776664D01*
X107218905Y-107828116D01*
X107180841Y-107857324D01*
X107160518Y-107872918D01*
X107155495Y-107879464D01*
X107147034Y-107890491D01*
X107064264Y-107998359D01*
X107003756Y-108144438D01*
X106983118Y-108301200D01*
X106984196Y-108309388D01*
X107001377Y-108439888D01*
X107003756Y-108457962D01*
X107064264Y-108604041D01*
X107152776Y-108719392D01*
X107160518Y-108729482D01*
X107158186Y-108731272D01*
X107185421Y-108781148D01*
X107188300Y-108807931D01*
X107188300Y-110882233D01*
X107191364Y-110891664D01*
X107191365Y-110891668D01*
X107195097Y-110903153D01*
X107199713Y-110922378D01*
X107203154Y-110944104D01*
X107207655Y-110952937D01*
X107207656Y-110952941D01*
X107213141Y-110963706D01*
X107220705Y-110981966D01*
X107227504Y-111002890D01*
X107240439Y-111020693D01*
X107250765Y-111037545D01*
X107260750Y-111057142D01*
X107283313Y-111079705D01*
X107283316Y-111079709D01*
X107836793Y-111633185D01*
X108388013Y-112184405D01*
X108422038Y-112246717D01*
X108416974Y-112317532D01*
X108374427Y-112374368D01*
X108307907Y-112399179D01*
X108298918Y-112399500D01*
X105408893Y-112399500D01*
X105340772Y-112379498D01*
X105294279Y-112325842D01*
X105284175Y-112255568D01*
X105313669Y-112190988D01*
X105372685Y-112152814D01*
X105510755Y-112111391D01*
X105520342Y-112107633D01*
X105711595Y-112013939D01*
X105720445Y-112008664D01*
X105893828Y-111884992D01*
X105901700Y-111878339D01*
X106052552Y-111728012D01*
X106059230Y-111720165D01*
X106183503Y-111547220D01*
X106188813Y-111538383D01*
X106283170Y-111347467D01*
X106286969Y-111337872D01*
X106348877Y-111134110D01*
X106351055Y-111124037D01*
X106352486Y-111113162D01*
X106350275Y-111098978D01*
X106337117Y-111095200D01*
X104890500Y-111095200D01*
X104822379Y-111075198D01*
X104775886Y-111021542D01*
X104764500Y-110969200D01*
X104764500Y-110713200D01*
X104784502Y-110645079D01*
X104838158Y-110598586D01*
X104890500Y-110587200D01*
X106336844Y-110587200D01*
X106350375Y-110583227D01*
X106351680Y-110574147D01*
X106309714Y-110407075D01*
X106306394Y-110397324D01*
X106221472Y-110202014D01*
X106216605Y-110192939D01*
X106100926Y-110014126D01*
X106094636Y-110005957D01*
X105951306Y-109848440D01*
X105943773Y-109841415D01*
X105776639Y-109709422D01*
X105768052Y-109703717D01*
X105581617Y-109600799D01*
X105572205Y-109596569D01*
X105380531Y-109528693D01*
X105322995Y-109487099D01*
X105297079Y-109421001D01*
X105311013Y-109351385D01*
X105360372Y-109300354D01*
X105388706Y-109288562D01*
X105394290Y-109287003D01*
X105394299Y-109287000D01*
X105400225Y-109285345D01*
X105405714Y-109282572D01*
X105405720Y-109282570D01*
X105578616Y-109195233D01*
X105584110Y-109192458D01*
X105599845Y-109180165D01*
X105741601Y-109069413D01*
X105746451Y-109065624D01*
X105760366Y-109049504D01*
X105877040Y-108914334D01*
X105877040Y-108914333D01*
X105881064Y-108909672D01*
X105887122Y-108899009D01*
X105938861Y-108807931D01*
X105982823Y-108730544D01*
X106047851Y-108535063D01*
X106073671Y-108330674D01*
X106074083Y-108301200D01*
X106053980Y-108096170D01*
X105994435Y-107898949D01*
X105897718Y-107717049D01*
X105814781Y-107615359D01*
X105771406Y-107562175D01*
X105771403Y-107562172D01*
X105767511Y-107557400D01*
X105754935Y-107546996D01*
X105613525Y-107430011D01*
X105613521Y-107430009D01*
X105608775Y-107426082D01*
X105427555Y-107328097D01*
X105230754Y-107267177D01*
X105224629Y-107266533D01*
X105224628Y-107266533D01*
X105031998Y-107246287D01*
X105031996Y-107246287D01*
X105025869Y-107245643D01*
X104939029Y-107253546D01*
X104826842Y-107263755D01*
X104826839Y-107263756D01*
X104820703Y-107264314D01*
X104623072Y-107322480D01*
X104440502Y-107417926D01*
X104435701Y-107421786D01*
X104435698Y-107421788D01*
X104316768Y-107517410D01*
X104279947Y-107547015D01*
X104147524Y-107704830D01*
X104144556Y-107710228D01*
X104144553Y-107710233D01*
X104055725Y-107871812D01*
X104048276Y-107885362D01*
X104046414Y-107891232D01*
X104029568Y-107944338D01*
X103989905Y-108003222D01*
X103924702Y-108031314D01*
X103854663Y-108019697D01*
X103802023Y-107972057D01*
X103787262Y-107936935D01*
X103769714Y-107867075D01*
X103766394Y-107857324D01*
X103681472Y-107662014D01*
X103676605Y-107652939D01*
X103560926Y-107474126D01*
X103554636Y-107465957D01*
X103411306Y-107308440D01*
X103403773Y-107301415D01*
X103236639Y-107169422D01*
X103228052Y-107163717D01*
X103041617Y-107060799D01*
X103032205Y-107056569D01*
X102840531Y-106988693D01*
X102782995Y-106947099D01*
X102757079Y-106881001D01*
X102771013Y-106811385D01*
X102820372Y-106760354D01*
X102848706Y-106748562D01*
X102854290Y-106747003D01*
X102854299Y-106747000D01*
X102860225Y-106745345D01*
X102865714Y-106742572D01*
X102865720Y-106742570D01*
X103018570Y-106665359D01*
X103044110Y-106652458D01*
X103057367Y-106642101D01*
X103132795Y-106583170D01*
X103206451Y-106525624D01*
X103214058Y-106516812D01*
X103337040Y-106374334D01*
X103337040Y-106374333D01*
X103341064Y-106369672D01*
X103361887Y-106333018D01*
X103414501Y-106240399D01*
X103442823Y-106190544D01*
X103507851Y-105995063D01*
X103533671Y-105790674D01*
X103534083Y-105761200D01*
X103532638Y-105746462D01*
X103963020Y-105746462D01*
X103963856Y-105756422D01*
X103979534Y-105943116D01*
X103980259Y-105951753D01*
X103981958Y-105957678D01*
X104025141Y-106108274D01*
X104037044Y-106149786D01*
X104039859Y-106155263D01*
X104039860Y-106155266D01*
X104117735Y-106306794D01*
X104131212Y-106333018D01*
X104259177Y-106494470D01*
X104263870Y-106498464D01*
X104263871Y-106498465D01*
X104411227Y-106623874D01*
X104416064Y-106627991D01*
X104421442Y-106630997D01*
X104421444Y-106630998D01*
X104482926Y-106665359D01*
X104595898Y-106728497D01*
X104675373Y-106754320D01*
X104785971Y-106790256D01*
X104785975Y-106790257D01*
X104791829Y-106792159D01*
X104996394Y-106816551D01*
X105002529Y-106816079D01*
X105002531Y-106816079D01*
X105058539Y-106811769D01*
X105201800Y-106800746D01*
X105207730Y-106799090D01*
X105207732Y-106799090D01*
X105335767Y-106763342D01*
X105400225Y-106745345D01*
X105405714Y-106742572D01*
X105405720Y-106742570D01*
X105558570Y-106665359D01*
X105584110Y-106652458D01*
X105597367Y-106642101D01*
X105672795Y-106583170D01*
X105746451Y-106525624D01*
X105754058Y-106516812D01*
X105877040Y-106374334D01*
X105877040Y-106374333D01*
X105881064Y-106369672D01*
X105901887Y-106333018D01*
X105954501Y-106240399D01*
X105982823Y-106190544D01*
X106047851Y-105995063D01*
X106073671Y-105790674D01*
X106074083Y-105761200D01*
X106053980Y-105556170D01*
X105994435Y-105358949D01*
X105897718Y-105177049D01*
X105802752Y-105060609D01*
X105771406Y-105022175D01*
X105771403Y-105022172D01*
X105767511Y-105017400D01*
X105750286Y-105003150D01*
X105613525Y-104890011D01*
X105613521Y-104890009D01*
X105608775Y-104886082D01*
X105457888Y-104804498D01*
X105432974Y-104791027D01*
X105427555Y-104788097D01*
X105230754Y-104727177D01*
X105224629Y-104726533D01*
X105224628Y-104726533D01*
X105031998Y-104706287D01*
X105031996Y-104706287D01*
X105025869Y-104705643D01*
X104939029Y-104713546D01*
X104826842Y-104723755D01*
X104826839Y-104723756D01*
X104820703Y-104724314D01*
X104623072Y-104782480D01*
X104617607Y-104785337D01*
X104582733Y-104803569D01*
X104440502Y-104877926D01*
X104435701Y-104881786D01*
X104435698Y-104881788D01*
X104298950Y-104991736D01*
X104279947Y-105007015D01*
X104147524Y-105164830D01*
X104144556Y-105170228D01*
X104144553Y-105170233D01*
X104105929Y-105240491D01*
X104048276Y-105345362D01*
X103985984Y-105541732D01*
X103985298Y-105547849D01*
X103985297Y-105547853D01*
X103968122Y-105700972D01*
X103963020Y-105746462D01*
X103532638Y-105746462D01*
X103513980Y-105556170D01*
X103454435Y-105358949D01*
X103357718Y-105177049D01*
X103262752Y-105060609D01*
X103231406Y-105022175D01*
X103231403Y-105022172D01*
X103227511Y-105017400D01*
X103210286Y-105003150D01*
X103073525Y-104890011D01*
X103073521Y-104890009D01*
X103068775Y-104886082D01*
X102917888Y-104804498D01*
X102892974Y-104791027D01*
X102887555Y-104788097D01*
X102690754Y-104727177D01*
X102684629Y-104726533D01*
X102684628Y-104726533D01*
X102491998Y-104706287D01*
X102491996Y-104706287D01*
X102485869Y-104705643D01*
X102399029Y-104713546D01*
X102286842Y-104723755D01*
X102286839Y-104723756D01*
X102280703Y-104724314D01*
X102083072Y-104782480D01*
X102077607Y-104785337D01*
X102042733Y-104803569D01*
X101900502Y-104877926D01*
X101895701Y-104881786D01*
X101895698Y-104881788D01*
X101758950Y-104991736D01*
X101739947Y-105007015D01*
X101607524Y-105164830D01*
X101604556Y-105170228D01*
X101604553Y-105170233D01*
X101565929Y-105240491D01*
X101508276Y-105345362D01*
X101445984Y-105541732D01*
X101445298Y-105547849D01*
X101445297Y-105547853D01*
X101428122Y-105700972D01*
X101423020Y-105746462D01*
X101423856Y-105756422D01*
X101439534Y-105943116D01*
X101440259Y-105951753D01*
X101441958Y-105957678D01*
X101485141Y-106108274D01*
X101497044Y-106149786D01*
X101499859Y-106155263D01*
X101499860Y-106155266D01*
X101577735Y-106306794D01*
X101591212Y-106333018D01*
X101719177Y-106494470D01*
X101723870Y-106498464D01*
X101723871Y-106498465D01*
X101871227Y-106623874D01*
X101876064Y-106627991D01*
X101881442Y-106630997D01*
X101881444Y-106630998D01*
X101942926Y-106665359D01*
X102055898Y-106728497D01*
X102120937Y-106749629D01*
X102179542Y-106789702D01*
X102207180Y-106855098D01*
X102195074Y-106925055D01*
X102147068Y-106977362D01*
X102121146Y-106989227D01*
X101955368Y-107043412D01*
X101945859Y-107047409D01*
X101756963Y-107145742D01*
X101748238Y-107151236D01*
X101577933Y-107279105D01*
X101570226Y-107285948D01*
X101423090Y-107439917D01*
X101416604Y-107447927D01*
X101300588Y-107618000D01*
X101245677Y-107663003D01*
X101175152Y-107671174D01*
X101111405Y-107639920D01*
X101074675Y-107579163D01*
X101070500Y-107546996D01*
X101070500Y-107456567D01*
X101067436Y-107447136D01*
X101067435Y-107447132D01*
X101063703Y-107435647D01*
X101059087Y-107416422D01*
X101057197Y-107404488D01*
X101057197Y-107404487D01*
X101055646Y-107394696D01*
X101051145Y-107385863D01*
X101051144Y-107385859D01*
X101045659Y-107375094D01*
X101038093Y-107356830D01*
X101031296Y-107335910D01*
X101018361Y-107318107D01*
X101008035Y-107301255D01*
X101002554Y-107290498D01*
X100998050Y-107281658D01*
X100975487Y-107259095D01*
X100975484Y-107259091D01*
X100035775Y-106319382D01*
X100001749Y-106257070D01*
X100006814Y-106186255D01*
X100024908Y-106153583D01*
X100089506Y-106069397D01*
X100089509Y-106069392D01*
X100094536Y-106062841D01*
X100155044Y-105916762D01*
X100163498Y-105852551D01*
X100174604Y-105768188D01*
X100175682Y-105760000D01*
X100155044Y-105603238D01*
X100094536Y-105457159D01*
X99998282Y-105331718D01*
X99872841Y-105235464D01*
X99726762Y-105174956D01*
X99706383Y-105172273D01*
X99578188Y-105155396D01*
X99570000Y-105154318D01*
X99561812Y-105155396D01*
X99433618Y-105172273D01*
X99413238Y-105174956D01*
X99267159Y-105235464D01*
X99141718Y-105331718D01*
X99045464Y-105457159D01*
X98984956Y-105603238D01*
X98964318Y-105760000D01*
X89951292Y-105760000D01*
X90087047Y-105700972D01*
X90087050Y-105700970D01*
X90091784Y-105698912D01*
X90292049Y-105569355D01*
X90311215Y-105551916D01*
X90464642Y-105412307D01*
X90464643Y-105412305D01*
X90468464Y-105408829D01*
X90471663Y-105404778D01*
X90471667Y-105404774D01*
X90613091Y-105225700D01*
X90613093Y-105225696D01*
X90616293Y-105221645D01*
X90731564Y-105012831D01*
X90734938Y-105003305D01*
X90809459Y-104792863D01*
X90809460Y-104792861D01*
X90811183Y-104787994D01*
X90841037Y-104620396D01*
X90852106Y-104558260D01*
X90852106Y-104558256D01*
X90853012Y-104553172D01*
X90855926Y-104314671D01*
X90819847Y-104078898D01*
X90745745Y-103852182D01*
X90714947Y-103793018D01*
X90637999Y-103645203D01*
X90637998Y-103645202D01*
X90635610Y-103640614D01*
X90611480Y-103608475D01*
X90495503Y-103454010D01*
X90495501Y-103454008D01*
X90492398Y-103449875D01*
X90391421Y-103353379D01*
X90323695Y-103288658D01*
X90323694Y-103288657D01*
X90319958Y-103285087D01*
X90298575Y-103270500D01*
X90204699Y-103206462D01*
X101423020Y-103206462D01*
X101424258Y-103221200D01*
X101439079Y-103397696D01*
X101440259Y-103411753D01*
X101441958Y-103417678D01*
X101490362Y-103586482D01*
X101497044Y-103609786D01*
X101499859Y-103615263D01*
X101499860Y-103615266D01*
X101547990Y-103708917D01*
X101591212Y-103793018D01*
X101719177Y-103954470D01*
X101723870Y-103958464D01*
X101723871Y-103958465D01*
X101859605Y-104073983D01*
X101876064Y-104087991D01*
X102055898Y-104188497D01*
X102134717Y-104214107D01*
X102245971Y-104250256D01*
X102245975Y-104250257D01*
X102251829Y-104252159D01*
X102456394Y-104276551D01*
X102462529Y-104276079D01*
X102462531Y-104276079D01*
X102518539Y-104271769D01*
X102661800Y-104260746D01*
X102667730Y-104259090D01*
X102667732Y-104259090D01*
X102854297Y-104207000D01*
X102854296Y-104207000D01*
X102860225Y-104205345D01*
X102865714Y-104202572D01*
X102865720Y-104202570D01*
X103006631Y-104131390D01*
X103044110Y-104112458D01*
X103206451Y-103985624D01*
X103231796Y-103956262D01*
X103337040Y-103834334D01*
X103337040Y-103834333D01*
X103341064Y-103829672D01*
X103346804Y-103819569D01*
X103439776Y-103655907D01*
X103442823Y-103650544D01*
X103507851Y-103455063D01*
X103533671Y-103250674D01*
X103533890Y-103235006D01*
X103534034Y-103224722D01*
X103534034Y-103224718D01*
X103534083Y-103221200D01*
X103532638Y-103206462D01*
X103963020Y-103206462D01*
X103964258Y-103221200D01*
X103979079Y-103397696D01*
X103980259Y-103411753D01*
X103981958Y-103417678D01*
X104030362Y-103586482D01*
X104037044Y-103609786D01*
X104039859Y-103615263D01*
X104039860Y-103615266D01*
X104087990Y-103708917D01*
X104131212Y-103793018D01*
X104259177Y-103954470D01*
X104263870Y-103958464D01*
X104263871Y-103958465D01*
X104399605Y-104073983D01*
X104416064Y-104087991D01*
X104595898Y-104188497D01*
X104674717Y-104214107D01*
X104785971Y-104250256D01*
X104785975Y-104250257D01*
X104791829Y-104252159D01*
X104996394Y-104276551D01*
X105002529Y-104276079D01*
X105002531Y-104276079D01*
X105058539Y-104271769D01*
X105201800Y-104260746D01*
X105207730Y-104259090D01*
X105207732Y-104259090D01*
X105394297Y-104207000D01*
X105394296Y-104207000D01*
X105400225Y-104205345D01*
X105405714Y-104202572D01*
X105405720Y-104202570D01*
X105546631Y-104131390D01*
X105584110Y-104112458D01*
X105746451Y-103985624D01*
X105771796Y-103956262D01*
X105877040Y-103834334D01*
X105877040Y-103834333D01*
X105881064Y-103829672D01*
X105886804Y-103819569D01*
X105979776Y-103655907D01*
X105982823Y-103650544D01*
X106047851Y-103455063D01*
X106073671Y-103250674D01*
X106073890Y-103235006D01*
X106074034Y-103224722D01*
X106074034Y-103224718D01*
X106074083Y-103221200D01*
X106053980Y-103016170D01*
X105994435Y-102818949D01*
X105897718Y-102637049D01*
X105773183Y-102484354D01*
X105771406Y-102482175D01*
X105771403Y-102482172D01*
X105767511Y-102477400D01*
X105754958Y-102467015D01*
X105613525Y-102350011D01*
X105613521Y-102350009D01*
X105608775Y-102346082D01*
X105427555Y-102248097D01*
X105230754Y-102187177D01*
X105224629Y-102186533D01*
X105224628Y-102186533D01*
X105031998Y-102166287D01*
X105031996Y-102166287D01*
X105025869Y-102165643D01*
X104939029Y-102173546D01*
X104826842Y-102183755D01*
X104826839Y-102183756D01*
X104820703Y-102184314D01*
X104623072Y-102242480D01*
X104617607Y-102245337D01*
X104537981Y-102286965D01*
X104440502Y-102337926D01*
X104435701Y-102341786D01*
X104435698Y-102341788D01*
X104296907Y-102453379D01*
X104279947Y-102467015D01*
X104147524Y-102624830D01*
X104144556Y-102630228D01*
X104144553Y-102630233D01*
X104061250Y-102781762D01*
X104048276Y-102805362D01*
X103985984Y-103001732D01*
X103985298Y-103007849D01*
X103985297Y-103007853D01*
X103963707Y-103200337D01*
X103963020Y-103206462D01*
X103532638Y-103206462D01*
X103513980Y-103016170D01*
X103454435Y-102818949D01*
X103357718Y-102637049D01*
X103233183Y-102484354D01*
X103231406Y-102482175D01*
X103231403Y-102482172D01*
X103227511Y-102477400D01*
X103214958Y-102467015D01*
X103073525Y-102350011D01*
X103073521Y-102350009D01*
X103068775Y-102346082D01*
X102887555Y-102248097D01*
X102690754Y-102187177D01*
X102684629Y-102186533D01*
X102684628Y-102186533D01*
X102491998Y-102166287D01*
X102491996Y-102166287D01*
X102485869Y-102165643D01*
X102399029Y-102173546D01*
X102286842Y-102183755D01*
X102286839Y-102183756D01*
X102280703Y-102184314D01*
X102083072Y-102242480D01*
X102077607Y-102245337D01*
X101997981Y-102286965D01*
X101900502Y-102337926D01*
X101895701Y-102341786D01*
X101895698Y-102341788D01*
X101756907Y-102453379D01*
X101739947Y-102467015D01*
X101607524Y-102624830D01*
X101604556Y-102630228D01*
X101604553Y-102630233D01*
X101521250Y-102781762D01*
X101508276Y-102805362D01*
X101445984Y-103001732D01*
X101445298Y-103007849D01*
X101445297Y-103007853D01*
X101423707Y-103200337D01*
X101423020Y-103206462D01*
X90204699Y-103206462D01*
X90127197Y-103153594D01*
X90122918Y-103150675D01*
X89932756Y-103062405D01*
X89911267Y-103052430D01*
X89911264Y-103052429D01*
X89906572Y-103050251D01*
X89676728Y-102986509D01*
X89671591Y-102985960D01*
X89485349Y-102966056D01*
X89485341Y-102966056D01*
X89482014Y-102965700D01*
X89343537Y-102965700D01*
X89340964Y-102965912D01*
X89340953Y-102965912D01*
X89171435Y-102979849D01*
X89171429Y-102979850D01*
X89166284Y-102980273D01*
X89056482Y-103007853D01*
X88939963Y-103037120D01*
X88939959Y-103037121D01*
X88934952Y-103038379D01*
X88930219Y-103040437D01*
X88930216Y-103040438D01*
X88720953Y-103131428D01*
X88720950Y-103131430D01*
X88716216Y-103133488D01*
X88515951Y-103263045D01*
X88512128Y-103266524D01*
X88512125Y-103266526D01*
X88343358Y-103420093D01*
X88339536Y-103423571D01*
X88336337Y-103427622D01*
X88336333Y-103427626D01*
X88194909Y-103606700D01*
X88191707Y-103610755D01*
X88076436Y-103819569D01*
X88074712Y-103824438D01*
X88074710Y-103824442D01*
X87998541Y-104039537D01*
X87996817Y-104044406D01*
X87954988Y-104279228D01*
X87952074Y-104517729D01*
X86605000Y-104517729D01*
X86605000Y-100666462D01*
X101423020Y-100666462D01*
X101423536Y-100672606D01*
X101437972Y-100844513D01*
X101440259Y-100871753D01*
X101441958Y-100877678D01*
X101472907Y-100985609D01*
X101497044Y-101069786D01*
X101499859Y-101075263D01*
X101499860Y-101075266D01*
X101575126Y-101221718D01*
X101591212Y-101253018D01*
X101719177Y-101414470D01*
X101723870Y-101418464D01*
X101723871Y-101418465D01*
X101855502Y-101530491D01*
X101876064Y-101547991D01*
X102055898Y-101648497D01*
X102149287Y-101678841D01*
X102245971Y-101710256D01*
X102245975Y-101710257D01*
X102251829Y-101712159D01*
X102456394Y-101736551D01*
X102462529Y-101736079D01*
X102462531Y-101736079D01*
X102518539Y-101731769D01*
X102661800Y-101720746D01*
X102667730Y-101719090D01*
X102667732Y-101719090D01*
X102791604Y-101684504D01*
X102860225Y-101665345D01*
X102865714Y-101662572D01*
X102865720Y-101662570D01*
X103038616Y-101575233D01*
X103044110Y-101572458D01*
X103206451Y-101445624D01*
X103220283Y-101429600D01*
X103337040Y-101294334D01*
X103337040Y-101294333D01*
X103341064Y-101289672D01*
X103361887Y-101253018D01*
X103427929Y-101136762D01*
X103442823Y-101110544D01*
X103507851Y-100915063D01*
X103533671Y-100710674D01*
X103534083Y-100681200D01*
X103532638Y-100666462D01*
X103963020Y-100666462D01*
X103963536Y-100672606D01*
X103977972Y-100844513D01*
X103980259Y-100871753D01*
X103981958Y-100877678D01*
X104012907Y-100985609D01*
X104037044Y-101069786D01*
X104039859Y-101075263D01*
X104039860Y-101075266D01*
X104115126Y-101221718D01*
X104131212Y-101253018D01*
X104259177Y-101414470D01*
X104263870Y-101418464D01*
X104263871Y-101418465D01*
X104395502Y-101530491D01*
X104416064Y-101547991D01*
X104595898Y-101648497D01*
X104689287Y-101678841D01*
X104785971Y-101710256D01*
X104785975Y-101710257D01*
X104791829Y-101712159D01*
X104996394Y-101736551D01*
X105002529Y-101736079D01*
X105002531Y-101736079D01*
X105058539Y-101731769D01*
X105201800Y-101720746D01*
X105207730Y-101719090D01*
X105207732Y-101719090D01*
X105331604Y-101684504D01*
X105400225Y-101665345D01*
X105405714Y-101662572D01*
X105405720Y-101662570D01*
X105578616Y-101575233D01*
X105584110Y-101572458D01*
X105746451Y-101445624D01*
X105760283Y-101429600D01*
X105877040Y-101294334D01*
X105877040Y-101294333D01*
X105881064Y-101289672D01*
X105901887Y-101253018D01*
X105967929Y-101136762D01*
X105982823Y-101110544D01*
X106047851Y-100915063D01*
X106073671Y-100710674D01*
X106074083Y-100681200D01*
X106053980Y-100476170D01*
X105994435Y-100278949D01*
X105897718Y-100097049D01*
X105798349Y-99975211D01*
X105771406Y-99942175D01*
X105771403Y-99942172D01*
X105767511Y-99937400D01*
X105645861Y-99836762D01*
X105613525Y-99810011D01*
X105613521Y-99810009D01*
X105608775Y-99806082D01*
X105427555Y-99708097D01*
X105230754Y-99647177D01*
X105224629Y-99646533D01*
X105224628Y-99646533D01*
X105031998Y-99626287D01*
X105031996Y-99626287D01*
X105025869Y-99625643D01*
X104939029Y-99633546D01*
X104826842Y-99643755D01*
X104826839Y-99643756D01*
X104820703Y-99644314D01*
X104623072Y-99702480D01*
X104440502Y-99797926D01*
X104435701Y-99801786D01*
X104435698Y-99801788D01*
X104382711Y-99844391D01*
X104279947Y-99927015D01*
X104147524Y-100084830D01*
X104144556Y-100090228D01*
X104144553Y-100090233D01*
X104051243Y-100259965D01*
X104048276Y-100265362D01*
X103985984Y-100461732D01*
X103985298Y-100467849D01*
X103985297Y-100467853D01*
X103974051Y-100568116D01*
X103963020Y-100666462D01*
X103532638Y-100666462D01*
X103513980Y-100476170D01*
X103454435Y-100278949D01*
X103357718Y-100097049D01*
X103258349Y-99975211D01*
X103231406Y-99942175D01*
X103231403Y-99942172D01*
X103227511Y-99937400D01*
X103105861Y-99836762D01*
X103073525Y-99810011D01*
X103073521Y-99810009D01*
X103068775Y-99806082D01*
X102887555Y-99708097D01*
X102690754Y-99647177D01*
X102684629Y-99646533D01*
X102684628Y-99646533D01*
X102491998Y-99626287D01*
X102491996Y-99626287D01*
X102485869Y-99625643D01*
X102399029Y-99633546D01*
X102286842Y-99643755D01*
X102286839Y-99643756D01*
X102280703Y-99644314D01*
X102083072Y-99702480D01*
X101900502Y-99797926D01*
X101895701Y-99801786D01*
X101895698Y-99801788D01*
X101842711Y-99844391D01*
X101739947Y-99927015D01*
X101607524Y-100084830D01*
X101604556Y-100090228D01*
X101604553Y-100090233D01*
X101511243Y-100259965D01*
X101508276Y-100265362D01*
X101445984Y-100461732D01*
X101445298Y-100467849D01*
X101445297Y-100467853D01*
X101434051Y-100568116D01*
X101423020Y-100666462D01*
X86605000Y-100666462D01*
X86605000Y-98126462D01*
X101423020Y-98126462D01*
X101440259Y-98331753D01*
X101497044Y-98529786D01*
X101499859Y-98535263D01*
X101499860Y-98535266D01*
X101520747Y-98575907D01*
X101591212Y-98713018D01*
X101719177Y-98874470D01*
X101876064Y-99007991D01*
X102055898Y-99108497D01*
X102150738Y-99139312D01*
X102245971Y-99170256D01*
X102245975Y-99170257D01*
X102251829Y-99172159D01*
X102456394Y-99196551D01*
X102462529Y-99196079D01*
X102462531Y-99196079D01*
X102518539Y-99191769D01*
X102661800Y-99180746D01*
X102667730Y-99179090D01*
X102667732Y-99179090D01*
X102854297Y-99127000D01*
X102854296Y-99127000D01*
X102860225Y-99125345D01*
X102865714Y-99122572D01*
X102865720Y-99122570D01*
X103038616Y-99035233D01*
X103044110Y-99032458D01*
X103206451Y-98905624D01*
X103341064Y-98749672D01*
X103361887Y-98713018D01*
X103439776Y-98575907D01*
X103442823Y-98570544D01*
X103507851Y-98375063D01*
X103533671Y-98170674D01*
X103534083Y-98141200D01*
X103532638Y-98126462D01*
X103963020Y-98126462D01*
X103980259Y-98331753D01*
X104037044Y-98529786D01*
X104039859Y-98535263D01*
X104039860Y-98535266D01*
X104060747Y-98575907D01*
X104131212Y-98713018D01*
X104259177Y-98874470D01*
X104416064Y-99007991D01*
X104595898Y-99108497D01*
X104690738Y-99139312D01*
X104785971Y-99170256D01*
X104785975Y-99170257D01*
X104791829Y-99172159D01*
X104996394Y-99196551D01*
X105002529Y-99196079D01*
X105002531Y-99196079D01*
X105058539Y-99191769D01*
X105201800Y-99180746D01*
X105207730Y-99179090D01*
X105207732Y-99179090D01*
X105394297Y-99127000D01*
X105394296Y-99127000D01*
X105400225Y-99125345D01*
X105405714Y-99122572D01*
X105405720Y-99122570D01*
X105578616Y-99035233D01*
X105584110Y-99032458D01*
X105746451Y-98905624D01*
X105881064Y-98749672D01*
X105901887Y-98713018D01*
X105979776Y-98575907D01*
X105982823Y-98570544D01*
X106047851Y-98375063D01*
X106073671Y-98170674D01*
X106074083Y-98141200D01*
X106053980Y-97936170D01*
X105994435Y-97738949D01*
X105897718Y-97557049D01*
X105824359Y-97467102D01*
X105771406Y-97402175D01*
X105771403Y-97402172D01*
X105767511Y-97397400D01*
X105750286Y-97383150D01*
X105613525Y-97270011D01*
X105613521Y-97270009D01*
X105608775Y-97266082D01*
X105427555Y-97168097D01*
X105230754Y-97107177D01*
X105224629Y-97106533D01*
X105224628Y-97106533D01*
X105031998Y-97086287D01*
X105031996Y-97086287D01*
X105025869Y-97085643D01*
X104939029Y-97093546D01*
X104826842Y-97103755D01*
X104826839Y-97103756D01*
X104820703Y-97104314D01*
X104623072Y-97162480D01*
X104440502Y-97257926D01*
X104435701Y-97261786D01*
X104435698Y-97261788D01*
X104284754Y-97383150D01*
X104279947Y-97387015D01*
X104147524Y-97544830D01*
X104144556Y-97550228D01*
X104144553Y-97550233D01*
X104051243Y-97719965D01*
X104048276Y-97725362D01*
X103985984Y-97921732D01*
X103985298Y-97927849D01*
X103985297Y-97927853D01*
X103963707Y-98120337D01*
X103963020Y-98126462D01*
X103532638Y-98126462D01*
X103513980Y-97936170D01*
X103454435Y-97738949D01*
X103357718Y-97557049D01*
X103284359Y-97467102D01*
X103231406Y-97402175D01*
X103231403Y-97402172D01*
X103227511Y-97397400D01*
X103210286Y-97383150D01*
X103073525Y-97270011D01*
X103073521Y-97270009D01*
X103068775Y-97266082D01*
X102887555Y-97168097D01*
X102690754Y-97107177D01*
X102684629Y-97106533D01*
X102684628Y-97106533D01*
X102491998Y-97086287D01*
X102491996Y-97086287D01*
X102485869Y-97085643D01*
X102399029Y-97093546D01*
X102286842Y-97103755D01*
X102286839Y-97103756D01*
X102280703Y-97104314D01*
X102083072Y-97162480D01*
X101900502Y-97257926D01*
X101895701Y-97261786D01*
X101895698Y-97261788D01*
X101744754Y-97383150D01*
X101739947Y-97387015D01*
X101607524Y-97544830D01*
X101604556Y-97550228D01*
X101604553Y-97550233D01*
X101511243Y-97719965D01*
X101508276Y-97725362D01*
X101445984Y-97921732D01*
X101445298Y-97927849D01*
X101445297Y-97927853D01*
X101423707Y-98120337D01*
X101423020Y-98126462D01*
X86605000Y-98126462D01*
X86605000Y-94517729D01*
X87952074Y-94517729D01*
X87988153Y-94753502D01*
X88062255Y-94980218D01*
X88064643Y-94984806D01*
X88064645Y-94984810D01*
X88079232Y-95012831D01*
X88172390Y-95191786D01*
X88175493Y-95195919D01*
X88175495Y-95195922D01*
X88310597Y-95375859D01*
X88315602Y-95382525D01*
X88488042Y-95547313D01*
X88492314Y-95550227D01*
X88492315Y-95550228D01*
X88567037Y-95601200D01*
X88685082Y-95681725D01*
X88793255Y-95731937D01*
X88896733Y-95779970D01*
X88896736Y-95779971D01*
X88901428Y-95782149D01*
X89131272Y-95845891D01*
X89136409Y-95846440D01*
X89322651Y-95866344D01*
X89322659Y-95866344D01*
X89325986Y-95866700D01*
X89464463Y-95866700D01*
X89467036Y-95866488D01*
X89467047Y-95866488D01*
X89636565Y-95852551D01*
X89636571Y-95852550D01*
X89641716Y-95852127D01*
X89757382Y-95823074D01*
X89868037Y-95795280D01*
X89868041Y-95795279D01*
X89873048Y-95794021D01*
X89877781Y-95791963D01*
X89877784Y-95791962D01*
X90087047Y-95700972D01*
X90087050Y-95700970D01*
X90091784Y-95698912D01*
X90265606Y-95586462D01*
X101423020Y-95586462D01*
X101423536Y-95592606D01*
X101439453Y-95782149D01*
X101440259Y-95791753D01*
X101441958Y-95797678D01*
X101457693Y-95852551D01*
X101497044Y-95989786D01*
X101499859Y-95995263D01*
X101499860Y-95995266D01*
X101520747Y-96035907D01*
X101591212Y-96173018D01*
X101719177Y-96334470D01*
X101876064Y-96467991D01*
X102055898Y-96568497D01*
X102150738Y-96599312D01*
X102245971Y-96630256D01*
X102245975Y-96630257D01*
X102251829Y-96632159D01*
X102456394Y-96656551D01*
X102462529Y-96656079D01*
X102462531Y-96656079D01*
X102518539Y-96651769D01*
X102661800Y-96640746D01*
X102667730Y-96639090D01*
X102667732Y-96639090D01*
X102854297Y-96587000D01*
X102854296Y-96587000D01*
X102860225Y-96585345D01*
X102865714Y-96582572D01*
X102865720Y-96582570D01*
X103038616Y-96495233D01*
X103044110Y-96492458D01*
X103206451Y-96365624D01*
X103341064Y-96209672D01*
X103361887Y-96173018D01*
X103439776Y-96035907D01*
X103442823Y-96030544D01*
X103507851Y-95835063D01*
X103533671Y-95630674D01*
X103534083Y-95601200D01*
X103532638Y-95586462D01*
X103963020Y-95586462D01*
X103963536Y-95592606D01*
X103979453Y-95782149D01*
X103980259Y-95791753D01*
X103981958Y-95797678D01*
X103997693Y-95852551D01*
X104037044Y-95989786D01*
X104039859Y-95995263D01*
X104039860Y-95995266D01*
X104060747Y-96035907D01*
X104131212Y-96173018D01*
X104259177Y-96334470D01*
X104416064Y-96467991D01*
X104595898Y-96568497D01*
X104690738Y-96599312D01*
X104785971Y-96630256D01*
X104785975Y-96630257D01*
X104791829Y-96632159D01*
X104996394Y-96656551D01*
X105002529Y-96656079D01*
X105002531Y-96656079D01*
X105058539Y-96651769D01*
X105201800Y-96640746D01*
X105207730Y-96639090D01*
X105207732Y-96639090D01*
X105394297Y-96587000D01*
X105394296Y-96587000D01*
X105400225Y-96585345D01*
X105405714Y-96582572D01*
X105405720Y-96582570D01*
X105578616Y-96495233D01*
X105584110Y-96492458D01*
X105746451Y-96365624D01*
X105881064Y-96209672D01*
X105901887Y-96173018D01*
X105979776Y-96035907D01*
X105982823Y-96030544D01*
X106047851Y-95835063D01*
X106073671Y-95630674D01*
X106074083Y-95601200D01*
X106053980Y-95396170D01*
X105994435Y-95198949D01*
X105897718Y-95017049D01*
X105824359Y-94927102D01*
X105771406Y-94862175D01*
X105771403Y-94862172D01*
X105767511Y-94857400D01*
X105750286Y-94843150D01*
X105613525Y-94730011D01*
X105613521Y-94730009D01*
X105608775Y-94726082D01*
X105427555Y-94628097D01*
X105230754Y-94567177D01*
X105224629Y-94566533D01*
X105224628Y-94566533D01*
X105031998Y-94546287D01*
X105031996Y-94546287D01*
X105025869Y-94545643D01*
X104943137Y-94553172D01*
X104826842Y-94563755D01*
X104826839Y-94563756D01*
X104820703Y-94564314D01*
X104623072Y-94622480D01*
X104440502Y-94717926D01*
X104435701Y-94721786D01*
X104435698Y-94721788D01*
X104284754Y-94843150D01*
X104279947Y-94847015D01*
X104147524Y-95004830D01*
X104144556Y-95010228D01*
X104144553Y-95010233D01*
X104140637Y-95017357D01*
X104048276Y-95185362D01*
X103985984Y-95381732D01*
X103985298Y-95387849D01*
X103985297Y-95387853D01*
X103982554Y-95412307D01*
X103963020Y-95586462D01*
X103532638Y-95586462D01*
X103513980Y-95396170D01*
X103454435Y-95198949D01*
X103357718Y-95017049D01*
X103284359Y-94927102D01*
X103231406Y-94862175D01*
X103231403Y-94862172D01*
X103227511Y-94857400D01*
X103210286Y-94843150D01*
X103073525Y-94730011D01*
X103073521Y-94730009D01*
X103068775Y-94726082D01*
X102887555Y-94628097D01*
X102690754Y-94567177D01*
X102684629Y-94566533D01*
X102684628Y-94566533D01*
X102491998Y-94546287D01*
X102491996Y-94546287D01*
X102485869Y-94545643D01*
X102403137Y-94553172D01*
X102286842Y-94563755D01*
X102286839Y-94563756D01*
X102280703Y-94564314D01*
X102083072Y-94622480D01*
X101900502Y-94717926D01*
X101895701Y-94721786D01*
X101895698Y-94721788D01*
X101744754Y-94843150D01*
X101739947Y-94847015D01*
X101607524Y-95004830D01*
X101604556Y-95010228D01*
X101604553Y-95010233D01*
X101600637Y-95017357D01*
X101508276Y-95185362D01*
X101445984Y-95381732D01*
X101445298Y-95387849D01*
X101445297Y-95387853D01*
X101442554Y-95412307D01*
X101423020Y-95586462D01*
X90265606Y-95586462D01*
X90292049Y-95569355D01*
X90313070Y-95550228D01*
X90464642Y-95412307D01*
X90464643Y-95412305D01*
X90468464Y-95408829D01*
X90471663Y-95404778D01*
X90471667Y-95404774D01*
X90613091Y-95225700D01*
X90613093Y-95225696D01*
X90616293Y-95221645D01*
X90639302Y-95179965D01*
X90647076Y-95165882D01*
X90731564Y-95012831D01*
X90734398Y-95004830D01*
X90809459Y-94792863D01*
X90809460Y-94792861D01*
X90811183Y-94787994D01*
X90850193Y-94568999D01*
X90852106Y-94558260D01*
X90852106Y-94558256D01*
X90853012Y-94553172D01*
X90855926Y-94314671D01*
X90819847Y-94078898D01*
X90745745Y-93852182D01*
X90733893Y-93829413D01*
X90637999Y-93645203D01*
X90637998Y-93645202D01*
X90635610Y-93640614D01*
X90625795Y-93627541D01*
X90495503Y-93454010D01*
X90495501Y-93454008D01*
X90492398Y-93449875D01*
X90319958Y-93285087D01*
X90122918Y-93150675D01*
X89993656Y-93090674D01*
X89911267Y-93052430D01*
X89911264Y-93052429D01*
X89906572Y-93050251D01*
X89676728Y-92986509D01*
X89671591Y-92985960D01*
X89485349Y-92966056D01*
X89485341Y-92966056D01*
X89482014Y-92965700D01*
X89343537Y-92965700D01*
X89340964Y-92965912D01*
X89340953Y-92965912D01*
X89171435Y-92979849D01*
X89171429Y-92979850D01*
X89166284Y-92980273D01*
X89050618Y-93009326D01*
X88939963Y-93037120D01*
X88939959Y-93037121D01*
X88934952Y-93038379D01*
X88930219Y-93040437D01*
X88930216Y-93040438D01*
X88720953Y-93131428D01*
X88720950Y-93131430D01*
X88716216Y-93133488D01*
X88515951Y-93263045D01*
X88512128Y-93266524D01*
X88512125Y-93266526D01*
X88343358Y-93420093D01*
X88339536Y-93423571D01*
X88336337Y-93427622D01*
X88336333Y-93427626D01*
X88282408Y-93495907D01*
X88191707Y-93610755D01*
X88076436Y-93819569D01*
X88074712Y-93824438D01*
X88074710Y-93824442D01*
X88001776Y-94030401D01*
X87996817Y-94044406D01*
X87954988Y-94279228D01*
X87952074Y-94517729D01*
X86605000Y-94517729D01*
X86605000Y-90932865D01*
X90768994Y-90932865D01*
X90769510Y-90939009D01*
X90783037Y-91100092D01*
X90784592Y-91118614D01*
X90786291Y-91124539D01*
X90830433Y-91278481D01*
X90835971Y-91297795D01*
X90921176Y-91463585D01*
X91036959Y-91609668D01*
X91178912Y-91730479D01*
X91341627Y-91821417D01*
X91518907Y-91879019D01*
X91703998Y-91901090D01*
X91710133Y-91900618D01*
X91710135Y-91900618D01*
X91883710Y-91887262D01*
X91883715Y-91887261D01*
X91889851Y-91886789D01*
X91895786Y-91885132D01*
X91981808Y-91861115D01*
X92052798Y-91862062D01*
X92104786Y-91893379D01*
X92356891Y-92145484D01*
X92356895Y-92145487D01*
X92379458Y-92168050D01*
X92388298Y-92172554D01*
X92399055Y-92178035D01*
X92415907Y-92188361D01*
X92433710Y-92201296D01*
X92454634Y-92208095D01*
X92472894Y-92215659D01*
X92483659Y-92221144D01*
X92483663Y-92221145D01*
X92492496Y-92225646D01*
X92502287Y-92227197D01*
X92502288Y-92227197D01*
X92514222Y-92229087D01*
X92533447Y-92233703D01*
X92544932Y-92237435D01*
X92544936Y-92237436D01*
X92554367Y-92240500D01*
X97543433Y-92240500D01*
X97552864Y-92237436D01*
X97552868Y-92237435D01*
X97564353Y-92233703D01*
X97583578Y-92229087D01*
X97595512Y-92227197D01*
X97595513Y-92227197D01*
X97605304Y-92225646D01*
X97614137Y-92221145D01*
X97614141Y-92221144D01*
X97624906Y-92215659D01*
X97643166Y-92208095D01*
X97664090Y-92201296D01*
X97681893Y-92188361D01*
X97698745Y-92178035D01*
X97709502Y-92172554D01*
X97718342Y-92168050D01*
X97740905Y-92145487D01*
X97740909Y-92145484D01*
X98805484Y-91080909D01*
X98805487Y-91080905D01*
X98828050Y-91058342D01*
X98832555Y-91049501D01*
X98838037Y-91038742D01*
X98848365Y-91021887D01*
X98855467Y-91012112D01*
X98861296Y-91004089D01*
X98868094Y-90983168D01*
X98875658Y-90964908D01*
X98881144Y-90954141D01*
X98881145Y-90954137D01*
X98885646Y-90945304D01*
X98887520Y-90933475D01*
X98889087Y-90923578D01*
X98893703Y-90904353D01*
X98897435Y-90892868D01*
X98897436Y-90892864D01*
X98900500Y-90883433D01*
X98900500Y-90789166D01*
X101146757Y-90789166D01*
X101177065Y-90923646D01*
X101180145Y-90933475D01*
X101260270Y-91130803D01*
X101264913Y-91139994D01*
X101376194Y-91321588D01*
X101382277Y-91329899D01*
X101521713Y-91490867D01*
X101529080Y-91498083D01*
X101692934Y-91634116D01*
X101701381Y-91640031D01*
X101885256Y-91747479D01*
X101894542Y-91751929D01*
X102093501Y-91827903D01*
X102108366Y-91832222D01*
X102107789Y-91834208D01*
X102162760Y-91863282D01*
X102197610Y-91925136D01*
X102193488Y-91996013D01*
X102151701Y-92053409D01*
X102110430Y-92074428D01*
X102088989Y-92080738D01*
X102088984Y-92080740D01*
X102083072Y-92082480D01*
X101900502Y-92177926D01*
X101895701Y-92181786D01*
X101895698Y-92181788D01*
X101853571Y-92215659D01*
X101739947Y-92307015D01*
X101607524Y-92464830D01*
X101604556Y-92470228D01*
X101604553Y-92470233D01*
X101597815Y-92482490D01*
X101508276Y-92645362D01*
X101445984Y-92841732D01*
X101445298Y-92847849D01*
X101445297Y-92847853D01*
X101432079Y-92965700D01*
X101423020Y-93046462D01*
X101440259Y-93251753D01*
X101441958Y-93257678D01*
X101490690Y-93427626D01*
X101497044Y-93449786D01*
X101499859Y-93455263D01*
X101499860Y-93455266D01*
X101520747Y-93495907D01*
X101591212Y-93633018D01*
X101719177Y-93794470D01*
X101723870Y-93798464D01*
X101723871Y-93798465D01*
X101786989Y-93852182D01*
X101876064Y-93927991D01*
X102055898Y-94028497D01*
X102120520Y-94049494D01*
X102245971Y-94090256D01*
X102245975Y-94090257D01*
X102251829Y-94092159D01*
X102456394Y-94116551D01*
X102462529Y-94116079D01*
X102462531Y-94116079D01*
X102518539Y-94111769D01*
X102661800Y-94100746D01*
X102667730Y-94099090D01*
X102667732Y-94099090D01*
X102854297Y-94047000D01*
X102854296Y-94047000D01*
X102860225Y-94045345D01*
X102865714Y-94042572D01*
X102865720Y-94042570D01*
X103038616Y-93955233D01*
X103044110Y-93952458D01*
X103206451Y-93825624D01*
X103211678Y-93819569D01*
X103337040Y-93674334D01*
X103337040Y-93674333D01*
X103341064Y-93669672D01*
X103354965Y-93645203D01*
X103439776Y-93495907D01*
X103442823Y-93490544D01*
X103507851Y-93295063D01*
X103533671Y-93090674D01*
X103534083Y-93061200D01*
X103513980Y-92856170D01*
X103454435Y-92658949D01*
X103357718Y-92477049D01*
X103284359Y-92387102D01*
X103231406Y-92322175D01*
X103231403Y-92322172D01*
X103227511Y-92317400D01*
X103210286Y-92303150D01*
X103073525Y-92190011D01*
X103073521Y-92190009D01*
X103068775Y-92186082D01*
X102887555Y-92088097D01*
X102836683Y-92072350D01*
X102777525Y-92033099D01*
X102748977Y-91968095D01*
X102760105Y-91897976D01*
X102807376Y-91845004D01*
X102837735Y-91831299D01*
X102970755Y-91791391D01*
X102980342Y-91787633D01*
X103171595Y-91693939D01*
X103180445Y-91688664D01*
X103353828Y-91564992D01*
X103361700Y-91558339D01*
X103512552Y-91408012D01*
X103519230Y-91400165D01*
X103646522Y-91223019D01*
X103647647Y-91223827D01*
X103695169Y-91180076D01*
X103765107Y-91167861D01*
X103830546Y-91195397D01*
X103858370Y-91227228D01*
X103916190Y-91321583D01*
X103922277Y-91329899D01*
X104061713Y-91490867D01*
X104069080Y-91498083D01*
X104232934Y-91634116D01*
X104241381Y-91640031D01*
X104425256Y-91747479D01*
X104434542Y-91751929D01*
X104633501Y-91827903D01*
X104648366Y-91832222D01*
X104647789Y-91834208D01*
X104702760Y-91863282D01*
X104737610Y-91925136D01*
X104733488Y-91996013D01*
X104691701Y-92053409D01*
X104650430Y-92074428D01*
X104628989Y-92080738D01*
X104628984Y-92080740D01*
X104623072Y-92082480D01*
X104440502Y-92177926D01*
X104435701Y-92181786D01*
X104435698Y-92181788D01*
X104393571Y-92215659D01*
X104279947Y-92307015D01*
X104147524Y-92464830D01*
X104144556Y-92470228D01*
X104144553Y-92470233D01*
X104137815Y-92482490D01*
X104048276Y-92645362D01*
X103985984Y-92841732D01*
X103985298Y-92847849D01*
X103985297Y-92847853D01*
X103972079Y-92965700D01*
X103963020Y-93046462D01*
X103980259Y-93251753D01*
X103981958Y-93257678D01*
X104030690Y-93427626D01*
X104037044Y-93449786D01*
X104039859Y-93455263D01*
X104039860Y-93455266D01*
X104060747Y-93495907D01*
X104131212Y-93633018D01*
X104259177Y-93794470D01*
X104263870Y-93798464D01*
X104263871Y-93798465D01*
X104326989Y-93852182D01*
X104416064Y-93927991D01*
X104595898Y-94028497D01*
X104660520Y-94049494D01*
X104785971Y-94090256D01*
X104785975Y-94090257D01*
X104791829Y-94092159D01*
X104996394Y-94116551D01*
X105002529Y-94116079D01*
X105002531Y-94116079D01*
X105058539Y-94111769D01*
X105201800Y-94100746D01*
X105207730Y-94099090D01*
X105207732Y-94099090D01*
X105394297Y-94047000D01*
X105394296Y-94047000D01*
X105400225Y-94045345D01*
X105405714Y-94042572D01*
X105405720Y-94042570D01*
X105578616Y-93955233D01*
X105584110Y-93952458D01*
X105746451Y-93825624D01*
X105751678Y-93819569D01*
X105877040Y-93674334D01*
X105877040Y-93674333D01*
X105881064Y-93669672D01*
X105894965Y-93645203D01*
X105979776Y-93495907D01*
X105982823Y-93490544D01*
X106047851Y-93295063D01*
X106073671Y-93090674D01*
X106074083Y-93061200D01*
X106053980Y-92856170D01*
X105994435Y-92658949D01*
X105897718Y-92477049D01*
X105824359Y-92387102D01*
X105771406Y-92322175D01*
X105771403Y-92322172D01*
X105767511Y-92317400D01*
X105750286Y-92303150D01*
X105613525Y-92190011D01*
X105613521Y-92190009D01*
X105608775Y-92186082D01*
X105427555Y-92088097D01*
X105376683Y-92072350D01*
X105317525Y-92033099D01*
X105288977Y-91968095D01*
X105300105Y-91897976D01*
X105347376Y-91845004D01*
X105377735Y-91831299D01*
X105510755Y-91791391D01*
X105520342Y-91787633D01*
X105711595Y-91693939D01*
X105720445Y-91688664D01*
X105893828Y-91564992D01*
X105901700Y-91558339D01*
X106052552Y-91408012D01*
X106059230Y-91400165D01*
X106183503Y-91227220D01*
X106188813Y-91218383D01*
X106283170Y-91027467D01*
X106286969Y-91017872D01*
X106348877Y-90814110D01*
X106351055Y-90804037D01*
X106352486Y-90793162D01*
X106350275Y-90778978D01*
X106337117Y-90775200D01*
X101161725Y-90775200D01*
X101148194Y-90779173D01*
X101146757Y-90789166D01*
X98900500Y-90789166D01*
X98900500Y-90255383D01*
X101142889Y-90255383D01*
X101144412Y-90263807D01*
X101156792Y-90267200D01*
X106336844Y-90267200D01*
X106350375Y-90263227D01*
X106351680Y-90254147D01*
X106309714Y-90087075D01*
X106306394Y-90077324D01*
X106221472Y-89882014D01*
X106216605Y-89872939D01*
X106100926Y-89694126D01*
X106094636Y-89685957D01*
X105951306Y-89528440D01*
X105943773Y-89521415D01*
X105853345Y-89450000D01*
X107834318Y-89450000D01*
X107835396Y-89458188D01*
X107853784Y-89597856D01*
X107854956Y-89606762D01*
X107915464Y-89752841D01*
X108011718Y-89878282D01*
X108137159Y-89974536D01*
X108283238Y-90035044D01*
X108440000Y-90055682D01*
X108448188Y-90054604D01*
X108588574Y-90036122D01*
X108596762Y-90035044D01*
X108742841Y-89974536D01*
X108868282Y-89878282D01*
X108870072Y-89880614D01*
X108919948Y-89853379D01*
X108946731Y-89850500D01*
X116681917Y-89850500D01*
X116750038Y-89870502D01*
X116771012Y-89887405D01*
X118322595Y-91438987D01*
X118356620Y-91501299D01*
X118359500Y-91528082D01*
X118359500Y-96983269D01*
X118339498Y-97051390D01*
X118331382Y-97061460D01*
X118331718Y-97061718D01*
X118235464Y-97187159D01*
X118174956Y-97333238D01*
X118154318Y-97490000D01*
X118174956Y-97646762D01*
X118235464Y-97792841D01*
X118331718Y-97918282D01*
X118338264Y-97923305D01*
X118355030Y-97936170D01*
X118457159Y-98014536D01*
X118603238Y-98075044D01*
X118760000Y-98095682D01*
X118768188Y-98094604D01*
X118908574Y-98076122D01*
X118916762Y-98075044D01*
X119062841Y-98014536D01*
X119164970Y-97936170D01*
X119181736Y-97923305D01*
X119188282Y-97918282D01*
X119284536Y-97792841D01*
X119345044Y-97646762D01*
X119365682Y-97490000D01*
X119345044Y-97333238D01*
X119284536Y-97187159D01*
X119188282Y-97061718D01*
X119190614Y-97059928D01*
X119163379Y-97010052D01*
X119160500Y-96983269D01*
X119160500Y-91278481D01*
X119160499Y-91278475D01*
X119160499Y-91246567D01*
X119157436Y-91237140D01*
X119157435Y-91237133D01*
X119153703Y-91225647D01*
X119149089Y-91206427D01*
X119147199Y-91194493D01*
X119147197Y-91194485D01*
X119145646Y-91184696D01*
X119141146Y-91175865D01*
X119141145Y-91175861D01*
X119135658Y-91165093D01*
X119128094Y-91146832D01*
X119121296Y-91125910D01*
X119108368Y-91108116D01*
X119098038Y-91091259D01*
X119092552Y-91080493D01*
X119092551Y-91080492D01*
X119088050Y-91071658D01*
X118998342Y-90981950D01*
X117160909Y-89144516D01*
X117160905Y-89144513D01*
X117138342Y-89121950D01*
X117118746Y-89111965D01*
X117101893Y-89101639D01*
X117084090Y-89088704D01*
X117063166Y-89081905D01*
X117044906Y-89074341D01*
X117034141Y-89068856D01*
X117034137Y-89068855D01*
X117025304Y-89064354D01*
X117015513Y-89062803D01*
X117015512Y-89062803D01*
X117003578Y-89060913D01*
X116984353Y-89056297D01*
X116972868Y-89052565D01*
X116972864Y-89052564D01*
X116963433Y-89049500D01*
X108946731Y-89049500D01*
X108878610Y-89029498D01*
X108868540Y-89021382D01*
X108868282Y-89021718D01*
X108800398Y-88969629D01*
X108742841Y-88925464D01*
X108596762Y-88864956D01*
X108440000Y-88844318D01*
X108283238Y-88864956D01*
X108137159Y-88925464D01*
X108079602Y-88969629D01*
X108024176Y-89012159D01*
X108011718Y-89021718D01*
X108006695Y-89028264D01*
X108003932Y-89031865D01*
X107915464Y-89147159D01*
X107854956Y-89293238D01*
X107834318Y-89450000D01*
X105853345Y-89450000D01*
X105776639Y-89389422D01*
X105768052Y-89383717D01*
X105581617Y-89280799D01*
X105572205Y-89276569D01*
X105380531Y-89208693D01*
X105322995Y-89167099D01*
X105297079Y-89101001D01*
X105311013Y-89031385D01*
X105360372Y-88980354D01*
X105388706Y-88968562D01*
X105394290Y-88967003D01*
X105394299Y-88967000D01*
X105400225Y-88965345D01*
X105405714Y-88962572D01*
X105405720Y-88962570D01*
X105578616Y-88875233D01*
X105584110Y-88872458D01*
X105746451Y-88745624D01*
X105779252Y-88707624D01*
X105877040Y-88594334D01*
X105877040Y-88594333D01*
X105881064Y-88589672D01*
X105901887Y-88553018D01*
X105979776Y-88415907D01*
X105982823Y-88410544D01*
X106047851Y-88215063D01*
X106073671Y-88010674D01*
X106074083Y-87981200D01*
X106053980Y-87776170D01*
X105994435Y-87578949D01*
X105897718Y-87397049D01*
X105824359Y-87307102D01*
X105771406Y-87242175D01*
X105771403Y-87242172D01*
X105767511Y-87237400D01*
X105733243Y-87209051D01*
X105613525Y-87110011D01*
X105613521Y-87110009D01*
X105608775Y-87106082D01*
X105427555Y-87008097D01*
X105230754Y-86947177D01*
X105224629Y-86946533D01*
X105224628Y-86946533D01*
X105031998Y-86926287D01*
X105031996Y-86926287D01*
X105025869Y-86925643D01*
X104939029Y-86933546D01*
X104826842Y-86943755D01*
X104826839Y-86943756D01*
X104820703Y-86944314D01*
X104623072Y-87002480D01*
X104440502Y-87097926D01*
X104435701Y-87101786D01*
X104435698Y-87101788D01*
X104312705Y-87200677D01*
X104279947Y-87227015D01*
X104147524Y-87384830D01*
X104144556Y-87390228D01*
X104144553Y-87390233D01*
X104137815Y-87402490D01*
X104048276Y-87565362D01*
X103985984Y-87761732D01*
X103985298Y-87767849D01*
X103985297Y-87767853D01*
X103963707Y-87960337D01*
X103963020Y-87966462D01*
X103980259Y-88171753D01*
X103981958Y-88177678D01*
X103995186Y-88223808D01*
X104037044Y-88369786D01*
X104039859Y-88375263D01*
X104039860Y-88375266D01*
X104122371Y-88535815D01*
X104131212Y-88553018D01*
X104259177Y-88714470D01*
X104416064Y-88847991D01*
X104595898Y-88948497D01*
X104660937Y-88969629D01*
X104719542Y-89009702D01*
X104747180Y-89075098D01*
X104735074Y-89145055D01*
X104687068Y-89197362D01*
X104661146Y-89209227D01*
X104495368Y-89263412D01*
X104485859Y-89267409D01*
X104296963Y-89365742D01*
X104288238Y-89371236D01*
X104117933Y-89499105D01*
X104110226Y-89505948D01*
X103963090Y-89659917D01*
X103956604Y-89667927D01*
X103851693Y-89821721D01*
X103796782Y-89866724D01*
X103726257Y-89874895D01*
X103662510Y-89843641D01*
X103641813Y-89819157D01*
X103560927Y-89694126D01*
X103554636Y-89685957D01*
X103411306Y-89528440D01*
X103403773Y-89521415D01*
X103236639Y-89389422D01*
X103228052Y-89383717D01*
X103041617Y-89280799D01*
X103032205Y-89276569D01*
X103031935Y-89276473D01*
X103031841Y-89276405D01*
X103027489Y-89274449D01*
X103027893Y-89273551D01*
X102974399Y-89234879D01*
X102948483Y-89168781D01*
X102962417Y-89099165D01*
X103011776Y-89048134D01*
X103073995Y-89031700D01*
X103348248Y-89031700D01*
X103365522Y-89028264D01*
X103394561Y-89022488D01*
X103394562Y-89022488D01*
X103406731Y-89020067D01*
X103473052Y-88975752D01*
X103517367Y-88909431D01*
X103524170Y-88875233D01*
X103527793Y-88857016D01*
X103529000Y-88850948D01*
X103529000Y-87111452D01*
X103517367Y-87052969D01*
X103473052Y-86986648D01*
X103406731Y-86942333D01*
X103394562Y-86939912D01*
X103394561Y-86939912D01*
X103354316Y-86931907D01*
X103348248Y-86930700D01*
X101608752Y-86930700D01*
X101602684Y-86931907D01*
X101562439Y-86939912D01*
X101562438Y-86939912D01*
X101550269Y-86942333D01*
X101483948Y-86986648D01*
X101439633Y-87052969D01*
X101428000Y-87111452D01*
X101428000Y-88850948D01*
X101429207Y-88857016D01*
X101432831Y-88875233D01*
X101439633Y-88909431D01*
X101483948Y-88975752D01*
X101550269Y-89020067D01*
X101562438Y-89022488D01*
X101562439Y-89022488D01*
X101591478Y-89028264D01*
X101608752Y-89031700D01*
X101883733Y-89031700D01*
X101951854Y-89051702D01*
X101998347Y-89105358D01*
X102008451Y-89175632D01*
X101978957Y-89240212D01*
X101941913Y-89269463D01*
X101756963Y-89365742D01*
X101748238Y-89371236D01*
X101577933Y-89499105D01*
X101570226Y-89505948D01*
X101423090Y-89659917D01*
X101416604Y-89667927D01*
X101296598Y-89843849D01*
X101291500Y-89852823D01*
X101201838Y-90045983D01*
X101198275Y-90055670D01*
X101142889Y-90255383D01*
X98900500Y-90255383D01*
X98900500Y-84366731D01*
X98920502Y-84298610D01*
X98928618Y-84288540D01*
X98928282Y-84288282D01*
X98935229Y-84279228D01*
X99024536Y-84162841D01*
X99085044Y-84016762D01*
X99105682Y-83860000D01*
X99085044Y-83703238D01*
X99024536Y-83557159D01*
X98928282Y-83431718D01*
X98802841Y-83335464D01*
X98656762Y-83274956D01*
X98592730Y-83266526D01*
X98508188Y-83255396D01*
X98500000Y-83254318D01*
X98491812Y-83255396D01*
X98407271Y-83266526D01*
X98343238Y-83274956D01*
X98197159Y-83335464D01*
X98071718Y-83431718D01*
X97975464Y-83557159D01*
X97914956Y-83703238D01*
X97894318Y-83860000D01*
X97914956Y-84016762D01*
X97975464Y-84162841D01*
X98064771Y-84279228D01*
X98071718Y-84288282D01*
X98069386Y-84290072D01*
X98096621Y-84339948D01*
X98099500Y-84366731D01*
X98099500Y-90601917D01*
X98079498Y-90670038D01*
X98062595Y-90691012D01*
X97351012Y-91402595D01*
X97288700Y-91436621D01*
X97261917Y-91439500D01*
X92835883Y-91439500D01*
X92767762Y-91419498D01*
X92746788Y-91402595D01*
X92672106Y-91327913D01*
X92638080Y-91265601D01*
X92641643Y-91199048D01*
X92655364Y-91157801D01*
X92665078Y-91080909D01*
X92678285Y-90976370D01*
X92678286Y-90976363D01*
X92678727Y-90972868D01*
X92679099Y-90946200D01*
X92660909Y-90760687D01*
X92659128Y-90754788D01*
X92659127Y-90754783D01*
X92608814Y-90588139D01*
X92607033Y-90582240D01*
X92548094Y-90471392D01*
X92522416Y-90423098D01*
X92522414Y-90423095D01*
X92519522Y-90417656D01*
X92515632Y-90412886D01*
X92515629Y-90412882D01*
X92405605Y-90277980D01*
X92405602Y-90277977D01*
X92401710Y-90273205D01*
X92396056Y-90268527D01*
X92262834Y-90158316D01*
X92258085Y-90154387D01*
X92094116Y-90065729D01*
X92061620Y-90055670D01*
X92034346Y-90047227D01*
X91975186Y-90007976D01*
X91946639Y-89942971D01*
X91957768Y-89872852D01*
X92005039Y-89819881D01*
X92037722Y-89805503D01*
X92063457Y-89798318D01*
X92063460Y-89798317D01*
X92069387Y-89796662D01*
X92235768Y-89712617D01*
X92259436Y-89694126D01*
X92377794Y-89601654D01*
X92377795Y-89601653D01*
X92382655Y-89597856D01*
X92504454Y-89456750D01*
X92596526Y-89294674D01*
X92651836Y-89128406D01*
X92692317Y-89070082D01*
X92757905Y-89042902D01*
X92827776Y-89055497D01*
X92860489Y-89079082D01*
X93326363Y-89544955D01*
X93360388Y-89607268D01*
X93357370Y-89672148D01*
X93339772Y-89727624D01*
X93318994Y-89912865D01*
X93319510Y-89919009D01*
X93332077Y-90068659D01*
X93334592Y-90098614D01*
X93336291Y-90104539D01*
X93382933Y-90267200D01*
X93385971Y-90277795D01*
X93471176Y-90443585D01*
X93586959Y-90589668D01*
X93728912Y-90710479D01*
X93891627Y-90801417D01*
X94068907Y-90859019D01*
X94253998Y-90881090D01*
X94260133Y-90880618D01*
X94260135Y-90880618D01*
X94433710Y-90867262D01*
X94433715Y-90867261D01*
X94439851Y-90866789D01*
X94445781Y-90865133D01*
X94445783Y-90865133D01*
X94613459Y-90818317D01*
X94613458Y-90818317D01*
X94619387Y-90816662D01*
X94785768Y-90732617D01*
X94810255Y-90713486D01*
X94927794Y-90621654D01*
X94927795Y-90621653D01*
X94932655Y-90617856D01*
X95054454Y-90476750D01*
X95146526Y-90314674D01*
X95205364Y-90137801D01*
X95215740Y-90055670D01*
X95228285Y-89956370D01*
X95228286Y-89956363D01*
X95228727Y-89952868D01*
X95229099Y-89926200D01*
X95210909Y-89740687D01*
X95209128Y-89734788D01*
X95209127Y-89734783D01*
X95158814Y-89568139D01*
X95157033Y-89562240D01*
X95103422Y-89461412D01*
X95072416Y-89403098D01*
X95072414Y-89403095D01*
X95069522Y-89397656D01*
X95065632Y-89392886D01*
X95065629Y-89392882D01*
X94955605Y-89257980D01*
X94955602Y-89257977D01*
X94951710Y-89253205D01*
X94912934Y-89221127D01*
X94877251Y-89191606D01*
X94837513Y-89132772D01*
X94835892Y-89061794D01*
X94872901Y-89001207D01*
X94896151Y-88985761D01*
X94895652Y-88984897D01*
X94909912Y-88976664D01*
X94951148Y-88947790D01*
X94959523Y-88937313D01*
X94952455Y-88923867D01*
X94003884Y-87975295D01*
X93969859Y-87912983D01*
X93971694Y-87887332D01*
X94638408Y-87887332D01*
X94638539Y-87889166D01*
X94642790Y-87895780D01*
X95312391Y-88565380D01*
X95324161Y-88571807D01*
X95336176Y-88562511D01*
X95364466Y-88522107D01*
X95369946Y-88512617D01*
X95458326Y-88323087D01*
X95462072Y-88312795D01*
X95516196Y-88110799D01*
X95518099Y-88100004D01*
X95536326Y-87891675D01*
X95536326Y-87880725D01*
X95518099Y-87672396D01*
X95516196Y-87661601D01*
X95462072Y-87459605D01*
X95458326Y-87449313D01*
X95369946Y-87259783D01*
X95364466Y-87250293D01*
X95335589Y-87209051D01*
X95325113Y-87200677D01*
X95311666Y-87207745D01*
X94646021Y-87873389D01*
X94638408Y-87887332D01*
X93971694Y-87887332D01*
X93974924Y-87842167D01*
X94003885Y-87797105D01*
X94274000Y-87526990D01*
X94953176Y-86847813D01*
X94959606Y-86836038D01*
X94950310Y-86824024D01*
X94909912Y-86795736D01*
X94900416Y-86790253D01*
X94710887Y-86701874D01*
X94700595Y-86698128D01*
X94498599Y-86644004D01*
X94487804Y-86642101D01*
X94279475Y-86623874D01*
X94268525Y-86623874D01*
X94060196Y-86642101D01*
X94049401Y-86644004D01*
X93847405Y-86698128D01*
X93837113Y-86701874D01*
X93647579Y-86790256D01*
X93638099Y-86795730D01*
X93578771Y-86837272D01*
X93511497Y-86859960D01*
X93442636Y-86842675D01*
X93394052Y-86790905D01*
X93380500Y-86734059D01*
X93380500Y-83316731D01*
X93400502Y-83248610D01*
X93408618Y-83238540D01*
X93408282Y-83238282D01*
X93499509Y-83119392D01*
X93504536Y-83112841D01*
X93565044Y-82966762D01*
X93585682Y-82810000D01*
X93565044Y-82653238D01*
X93504536Y-82507159D01*
X93408282Y-82381718D01*
X93282841Y-82285464D01*
X93136762Y-82224956D01*
X92980000Y-82204318D01*
X92823238Y-82224956D01*
X92677159Y-82285464D01*
X92551718Y-82381718D01*
X92546695Y-82388264D01*
X92542225Y-82392734D01*
X92479913Y-82426760D01*
X92409098Y-82421695D01*
X92352262Y-82379148D01*
X92327451Y-82312628D01*
X92328209Y-82287188D01*
X92328604Y-82284189D01*
X92328604Y-82284188D01*
X92329682Y-82276000D01*
X92309044Y-82119238D01*
X92248536Y-81973159D01*
X92152282Y-81847718D01*
X92026841Y-81751464D01*
X91880762Y-81690956D01*
X91724000Y-81670318D01*
X91567238Y-81690956D01*
X91421159Y-81751464D01*
X91295718Y-81847718D01*
X91199464Y-81973159D01*
X91138956Y-82119238D01*
X91118318Y-82276000D01*
X91138956Y-82432762D01*
X91199464Y-82578841D01*
X91204491Y-82585392D01*
X91295718Y-82704282D01*
X91293386Y-82706072D01*
X91320621Y-82755948D01*
X91323500Y-82782731D01*
X91323500Y-87966669D01*
X91303498Y-88034790D01*
X91255875Y-88078331D01*
X91206483Y-88104152D01*
X91206478Y-88104155D01*
X91201023Y-88107007D01*
X91055752Y-88223808D01*
X90935935Y-88366601D01*
X90932971Y-88371993D01*
X90932968Y-88371997D01*
X90881121Y-88466307D01*
X90846135Y-88529946D01*
X90844274Y-88535813D01*
X90844273Y-88535815D01*
X90832856Y-88571807D01*
X90789772Y-88707624D01*
X90768994Y-88892865D01*
X90769510Y-88899009D01*
X90783876Y-89070082D01*
X90784592Y-89078614D01*
X90786291Y-89084539D01*
X90816992Y-89191606D01*
X90835971Y-89257795D01*
X90838790Y-89263280D01*
X90900687Y-89383717D01*
X90921176Y-89423585D01*
X91036959Y-89569668D01*
X91178912Y-89690479D01*
X91184290Y-89693485D01*
X91184292Y-89693486D01*
X91211731Y-89708821D01*
X91341627Y-89781417D01*
X91417124Y-89805947D01*
X91475729Y-89846020D01*
X91503366Y-89911417D01*
X91491259Y-89981374D01*
X91443253Y-90033680D01*
X91413763Y-90046653D01*
X91372129Y-90058907D01*
X91366214Y-90060648D01*
X91201023Y-90147007D01*
X91055752Y-90263808D01*
X90935935Y-90406601D01*
X90932971Y-90411993D01*
X90932968Y-90411997D01*
X90897370Y-90476750D01*
X90846135Y-90569946D01*
X90844274Y-90575813D01*
X90844273Y-90575815D01*
X90793651Y-90735395D01*
X90789772Y-90747624D01*
X90768994Y-90932865D01*
X86605000Y-90932865D01*
X86605000Y-84517729D01*
X87952074Y-84517729D01*
X87988153Y-84753502D01*
X88062255Y-84980218D01*
X88172390Y-85191786D01*
X88175493Y-85195919D01*
X88175495Y-85195922D01*
X88312497Y-85378390D01*
X88315602Y-85382525D01*
X88488042Y-85547313D01*
X88685082Y-85681725D01*
X88793255Y-85731937D01*
X88896733Y-85779970D01*
X88896736Y-85779971D01*
X88901428Y-85782149D01*
X89131272Y-85845891D01*
X89136409Y-85846440D01*
X89322651Y-85866344D01*
X89322659Y-85866344D01*
X89325986Y-85866700D01*
X89464463Y-85866700D01*
X89467036Y-85866488D01*
X89467047Y-85866488D01*
X89636565Y-85852551D01*
X89636571Y-85852550D01*
X89641716Y-85852127D01*
X89757382Y-85823074D01*
X89868037Y-85795280D01*
X89868041Y-85795279D01*
X89873048Y-85794021D01*
X89877781Y-85791963D01*
X89877784Y-85791962D01*
X90087047Y-85700972D01*
X90087050Y-85700970D01*
X90091784Y-85698912D01*
X90292049Y-85569355D01*
X90313070Y-85550228D01*
X90464642Y-85412307D01*
X90464643Y-85412305D01*
X90468464Y-85408829D01*
X90471663Y-85404778D01*
X90471667Y-85404774D01*
X90613091Y-85225700D01*
X90613093Y-85225696D01*
X90616293Y-85221645D01*
X90731564Y-85012831D01*
X90744855Y-84975300D01*
X90809459Y-84792863D01*
X90809460Y-84792861D01*
X90811183Y-84787994D01*
X90853012Y-84553172D01*
X90855926Y-84314671D01*
X90819847Y-84078898D01*
X90745745Y-83852182D01*
X90672473Y-83711426D01*
X90637999Y-83645203D01*
X90637998Y-83645202D01*
X90635610Y-83640614D01*
X90610147Y-83606700D01*
X90495503Y-83454010D01*
X90495501Y-83454008D01*
X90492398Y-83449875D01*
X90369368Y-83332304D01*
X90323695Y-83288658D01*
X90323694Y-83288657D01*
X90319958Y-83285087D01*
X90274853Y-83254318D01*
X90127197Y-83153594D01*
X90122918Y-83150675D01*
X90014745Y-83100463D01*
X89911267Y-83052430D01*
X89911264Y-83052429D01*
X89906572Y-83050251D01*
X89676728Y-82986509D01*
X89671591Y-82985960D01*
X89485349Y-82966056D01*
X89485341Y-82966056D01*
X89482014Y-82965700D01*
X89343537Y-82965700D01*
X89340964Y-82965912D01*
X89340953Y-82965912D01*
X89171435Y-82979849D01*
X89171429Y-82979850D01*
X89166284Y-82980273D01*
X89050618Y-83009326D01*
X88939963Y-83037120D01*
X88939959Y-83037121D01*
X88934952Y-83038379D01*
X88930219Y-83040437D01*
X88930216Y-83040438D01*
X88720953Y-83131428D01*
X88720950Y-83131430D01*
X88716216Y-83133488D01*
X88515951Y-83263045D01*
X88512128Y-83266524D01*
X88512125Y-83266526D01*
X88436364Y-83335464D01*
X88339536Y-83423571D01*
X88336337Y-83427622D01*
X88336333Y-83427626D01*
X88194909Y-83606700D01*
X88191707Y-83610755D01*
X88076436Y-83819569D01*
X88074712Y-83824438D01*
X88074710Y-83824442D01*
X87998541Y-84039537D01*
X87996817Y-84044406D01*
X87954988Y-84279228D01*
X87952074Y-84517729D01*
X86605000Y-84517729D01*
X86605000Y-76305963D01*
X120484757Y-76305963D01*
X120501175Y-76501483D01*
X120555258Y-76690091D01*
X120558076Y-76695574D01*
X120642123Y-76859113D01*
X120642126Y-76859117D01*
X120644944Y-76864601D01*
X120766818Y-77018369D01*
X120916238Y-77145535D01*
X120921616Y-77148541D01*
X120921618Y-77148542D01*
X120957932Y-77168837D01*
X121087513Y-77241257D01*
X121274118Y-77301889D01*
X121468946Y-77325121D01*
X121475081Y-77324649D01*
X121475083Y-77324649D01*
X121658434Y-77310541D01*
X121658438Y-77310540D01*
X121664576Y-77310068D01*
X121853556Y-77257303D01*
X122028689Y-77168837D01*
X122058515Y-77145535D01*
X122178453Y-77051829D01*
X122183303Y-77048040D01*
X122213084Y-77013539D01*
X122307485Y-76904173D01*
X122307485Y-76904172D01*
X122311509Y-76899511D01*
X122408425Y-76728909D01*
X122470358Y-76542732D01*
X122494949Y-76348071D01*
X122495341Y-76320000D01*
X122476194Y-76124728D01*
X122474413Y-76118829D01*
X122474412Y-76118824D01*
X122421265Y-75942793D01*
X122419484Y-75936894D01*
X122327370Y-75763653D01*
X122203361Y-75611602D01*
X122052180Y-75486535D01*
X121879585Y-75393213D01*
X121785868Y-75364203D01*
X121698039Y-75337015D01*
X121698036Y-75337014D01*
X121692152Y-75335193D01*
X121686027Y-75334549D01*
X121686026Y-75334549D01*
X121503147Y-75315327D01*
X121503146Y-75315327D01*
X121497019Y-75314683D01*
X121374383Y-75325844D01*
X121307759Y-75331907D01*
X121307758Y-75331907D01*
X121301618Y-75332466D01*
X121295704Y-75334207D01*
X121295702Y-75334207D01*
X121166734Y-75372165D01*
X121113393Y-75387864D01*
X121107928Y-75390721D01*
X120944972Y-75475912D01*
X120944968Y-75475915D01*
X120939512Y-75478767D01*
X120934712Y-75482627D01*
X120934711Y-75482627D01*
X120900326Y-75510273D01*
X120786600Y-75601711D01*
X120660480Y-75752016D01*
X120657516Y-75757408D01*
X120657513Y-75757412D01*
X120608570Y-75846440D01*
X120565956Y-75923954D01*
X120506628Y-76110978D01*
X120484757Y-76305963D01*
X86605000Y-76305963D01*
X86605000Y-74517729D01*
X87952074Y-74517729D01*
X87988153Y-74753502D01*
X88062255Y-74980218D01*
X88064643Y-74984806D01*
X88064645Y-74984810D01*
X88170001Y-75187197D01*
X88172390Y-75191786D01*
X88175493Y-75195919D01*
X88175495Y-75195922D01*
X88279580Y-75334549D01*
X88315602Y-75382525D01*
X88346767Y-75412307D01*
X88426172Y-75488188D01*
X88488042Y-75547313D01*
X88685082Y-75681725D01*
X88793255Y-75731937D01*
X88896733Y-75779970D01*
X88896736Y-75779971D01*
X88901428Y-75782149D01*
X89131272Y-75845891D01*
X89136409Y-75846440D01*
X89322651Y-75866344D01*
X89322659Y-75866344D01*
X89325986Y-75866700D01*
X89464463Y-75866700D01*
X89467036Y-75866488D01*
X89467047Y-75866488D01*
X89636565Y-75852551D01*
X89636571Y-75852550D01*
X89641716Y-75852127D01*
X89757382Y-75823074D01*
X89868037Y-75795280D01*
X89868041Y-75795279D01*
X89873048Y-75794021D01*
X89877781Y-75791963D01*
X89877784Y-75791962D01*
X90087047Y-75700972D01*
X90087050Y-75700970D01*
X90091784Y-75698912D01*
X90292049Y-75569355D01*
X90313070Y-75550228D01*
X90464642Y-75412307D01*
X90464643Y-75412305D01*
X90468464Y-75408829D01*
X90471663Y-75404778D01*
X90471667Y-75404774D01*
X90613091Y-75225700D01*
X90613093Y-75225696D01*
X90616293Y-75221645D01*
X90640851Y-75177159D01*
X90710097Y-75051718D01*
X90731564Y-75012831D01*
X90736090Y-75000052D01*
X90809459Y-74792863D01*
X90809460Y-74792861D01*
X90811183Y-74787994D01*
X90832098Y-74670583D01*
X90852106Y-74558260D01*
X90852106Y-74558256D01*
X90853012Y-74553172D01*
X90855926Y-74314671D01*
X90819847Y-74078898D01*
X90745745Y-73852182D01*
X90724607Y-73811575D01*
X90637999Y-73645203D01*
X90637998Y-73645202D01*
X90635610Y-73640614D01*
X90610147Y-73606700D01*
X90495503Y-73454010D01*
X90495501Y-73454008D01*
X90492398Y-73449875D01*
X90319958Y-73285087D01*
X90220751Y-73217412D01*
X90127197Y-73153594D01*
X90122918Y-73150675D01*
X89952569Y-73071602D01*
X89911267Y-73052430D01*
X89911264Y-73052429D01*
X89906572Y-73050251D01*
X89676728Y-72986509D01*
X89671591Y-72985960D01*
X89485349Y-72966056D01*
X89485341Y-72966056D01*
X89482014Y-72965700D01*
X89343537Y-72965700D01*
X89340964Y-72965912D01*
X89340953Y-72965912D01*
X89171435Y-72979849D01*
X89171429Y-72979850D01*
X89166284Y-72980273D01*
X89050618Y-73009326D01*
X88939963Y-73037120D01*
X88939959Y-73037121D01*
X88934952Y-73038379D01*
X88930219Y-73040437D01*
X88930216Y-73040438D01*
X88720953Y-73131428D01*
X88720950Y-73131430D01*
X88716216Y-73133488D01*
X88515951Y-73263045D01*
X88512128Y-73266524D01*
X88512125Y-73266526D01*
X88343358Y-73420093D01*
X88339536Y-73423571D01*
X88336337Y-73427622D01*
X88336333Y-73427626D01*
X88194909Y-73606700D01*
X88191707Y-73610755D01*
X88076436Y-73819569D01*
X88074712Y-73824438D01*
X88074710Y-73824442D01*
X88009502Y-74008584D01*
X87996817Y-74044406D01*
X87990983Y-74077159D01*
X87964962Y-74223238D01*
X87954988Y-74279228D01*
X87952074Y-74517729D01*
X86605000Y-74517729D01*
X86605000Y-71943433D01*
X89669500Y-71943433D01*
X89672564Y-71952864D01*
X89672565Y-71952868D01*
X89676297Y-71964353D01*
X89680913Y-71983578D01*
X89684354Y-72005304D01*
X89688855Y-72014137D01*
X89688856Y-72014141D01*
X89694341Y-72024906D01*
X89701905Y-72043166D01*
X89708704Y-72064090D01*
X89721639Y-72081893D01*
X89731965Y-72098745D01*
X89741950Y-72118342D01*
X89764513Y-72140905D01*
X89764516Y-72140909D01*
X90439091Y-72815484D01*
X90439095Y-72815487D01*
X90461658Y-72838050D01*
X90470492Y-72842551D01*
X90470493Y-72842552D01*
X90481257Y-72848037D01*
X90498113Y-72858366D01*
X90515911Y-72871297D01*
X90536836Y-72878096D01*
X90555097Y-72885660D01*
X90565860Y-72891144D01*
X90574696Y-72895646D01*
X90584489Y-72897197D01*
X90596422Y-72899087D01*
X90615648Y-72903703D01*
X90627133Y-72907435D01*
X90627135Y-72907435D01*
X90636567Y-72910500D01*
X91631917Y-72910500D01*
X91700038Y-72930502D01*
X91721012Y-72947405D01*
X92557131Y-73783523D01*
X93481658Y-74708050D01*
X93490492Y-74712551D01*
X93490493Y-74712552D01*
X93501259Y-74718038D01*
X93518116Y-74728368D01*
X93535910Y-74741296D01*
X93556832Y-74748094D01*
X93575093Y-74755658D01*
X93585861Y-74761145D01*
X93585865Y-74761146D01*
X93594696Y-74765646D01*
X93604485Y-74767197D01*
X93604493Y-74767199D01*
X93616427Y-74769089D01*
X93635647Y-74773703D01*
X93647133Y-74777435D01*
X93647140Y-74777436D01*
X93656567Y-74780499D01*
X93688477Y-74780499D01*
X93688481Y-74780500D01*
X98973269Y-74780500D01*
X99041390Y-74800502D01*
X99051460Y-74808618D01*
X99051718Y-74808282D01*
X99177159Y-74904536D01*
X99323238Y-74965044D01*
X99480000Y-74985682D01*
X99488188Y-74984604D01*
X99628574Y-74966122D01*
X99636762Y-74965044D01*
X99782841Y-74904536D01*
X99908282Y-74808282D01*
X99923850Y-74787994D01*
X99943321Y-74762618D01*
X100004536Y-74682841D01*
X100065044Y-74536762D01*
X100068327Y-74511829D01*
X100084604Y-74388188D01*
X100085682Y-74380000D01*
X100065044Y-74223238D01*
X100004536Y-74077159D01*
X99927391Y-73976621D01*
X99913305Y-73958264D01*
X99908282Y-73951718D01*
X99782841Y-73855464D01*
X99636762Y-73794956D01*
X99480000Y-73774318D01*
X99323238Y-73794956D01*
X99177159Y-73855464D01*
X99051718Y-73951718D01*
X99049928Y-73949386D01*
X99000052Y-73976621D01*
X98973269Y-73979500D01*
X93938082Y-73979500D01*
X93869961Y-73959498D01*
X93848987Y-73942595D01*
X92982769Y-73076376D01*
X92110909Y-72204516D01*
X92110905Y-72204513D01*
X92088342Y-72181950D01*
X92068746Y-72171965D01*
X92051893Y-72161639D01*
X92034090Y-72148704D01*
X92013166Y-72141905D01*
X91994906Y-72134341D01*
X91984141Y-72128856D01*
X91984137Y-72128855D01*
X91975304Y-72124354D01*
X91965513Y-72122803D01*
X91965512Y-72122803D01*
X91953578Y-72120913D01*
X91934364Y-72116301D01*
X91933102Y-72115891D01*
X91930801Y-72115143D01*
X91872193Y-72075076D01*
X91844550Y-72009681D01*
X91856650Y-71939724D01*
X91904651Y-71887413D01*
X91935843Y-71873948D01*
X92063459Y-71838317D01*
X92063458Y-71838317D01*
X92069387Y-71836662D01*
X92235768Y-71752617D01*
X92260255Y-71733486D01*
X92377794Y-71641654D01*
X92377795Y-71641653D01*
X92382655Y-71637856D01*
X92504454Y-71496750D01*
X92507498Y-71491392D01*
X92553472Y-71410463D01*
X92604511Y-71361112D01*
X92663028Y-71346700D01*
X92848117Y-71346700D01*
X92916238Y-71366702D01*
X92937212Y-71383605D01*
X94199091Y-72645484D01*
X94199095Y-72645487D01*
X94221658Y-72668050D01*
X94230497Y-72672554D01*
X94230499Y-72672555D01*
X94241258Y-72678037D01*
X94258114Y-72688365D01*
X94275911Y-72701296D01*
X94296832Y-72708094D01*
X94315092Y-72715658D01*
X94325859Y-72721144D01*
X94325863Y-72721145D01*
X94334696Y-72725646D01*
X94344487Y-72727197D01*
X94344488Y-72727197D01*
X94356422Y-72729087D01*
X94375647Y-72733703D01*
X94387132Y-72737435D01*
X94387136Y-72737436D01*
X94396567Y-72740500D01*
X97963269Y-72740500D01*
X98031390Y-72760502D01*
X98041460Y-72768618D01*
X98041718Y-72768282D01*
X98167159Y-72864536D01*
X98313238Y-72925044D01*
X98470000Y-72945682D01*
X98478188Y-72944604D01*
X98618574Y-72926122D01*
X98626762Y-72925044D01*
X98772841Y-72864536D01*
X98898282Y-72768282D01*
X98994536Y-72642841D01*
X99055044Y-72496762D01*
X99075682Y-72340000D01*
X99055044Y-72183238D01*
X98994536Y-72037159D01*
X98898282Y-71911718D01*
X98772841Y-71815464D01*
X98626762Y-71754956D01*
X98608996Y-71752617D01*
X98478188Y-71735396D01*
X98470000Y-71734318D01*
X98461812Y-71735396D01*
X98331005Y-71752617D01*
X98313238Y-71754956D01*
X98167159Y-71815464D01*
X98041718Y-71911718D01*
X98039928Y-71909386D01*
X97990052Y-71936621D01*
X97963269Y-71939500D01*
X94678083Y-71939500D01*
X94609962Y-71919498D01*
X94588988Y-71902595D01*
X93618263Y-70931870D01*
X93584237Y-70869558D01*
X93589302Y-70798743D01*
X93631849Y-70741907D01*
X93698369Y-70717096D01*
X93768827Y-70732787D01*
X93891627Y-70801417D01*
X94068907Y-70859019D01*
X94253998Y-70881090D01*
X94260133Y-70880618D01*
X94260135Y-70880618D01*
X94433710Y-70867262D01*
X94433715Y-70867261D01*
X94439851Y-70866789D01*
X94445781Y-70865133D01*
X94445783Y-70865133D01*
X94613459Y-70818317D01*
X94613458Y-70818317D01*
X94619387Y-70816662D01*
X94785768Y-70732617D01*
X94814104Y-70710479D01*
X94927794Y-70621654D01*
X94927795Y-70621653D01*
X94932655Y-70617856D01*
X95054454Y-70476750D01*
X95072996Y-70444110D01*
X95103472Y-70390463D01*
X95154511Y-70341112D01*
X95213028Y-70326700D01*
X99788117Y-70326700D01*
X99856238Y-70346702D01*
X99877212Y-70363605D01*
X100582595Y-71068988D01*
X100616621Y-71131300D01*
X100619500Y-71158083D01*
X100619500Y-74973269D01*
X100599498Y-75041390D01*
X100591382Y-75051460D01*
X100591718Y-75051718D01*
X100495464Y-75177159D01*
X100434956Y-75323238D01*
X100414318Y-75480000D01*
X100434956Y-75636762D01*
X100495464Y-75782841D01*
X100591718Y-75908282D01*
X100717159Y-76004536D01*
X100863238Y-76065044D01*
X101020000Y-76085682D01*
X101028188Y-76084604D01*
X101168574Y-76066122D01*
X101176762Y-76065044D01*
X101322841Y-76004536D01*
X101448282Y-75908282D01*
X101544536Y-75782841D01*
X101605044Y-75636762D01*
X101625682Y-75480000D01*
X101605044Y-75323238D01*
X101544536Y-75177159D01*
X101448282Y-75051718D01*
X101450614Y-75049928D01*
X101423379Y-75000052D01*
X101420500Y-74973269D01*
X101420500Y-73765963D01*
X120484757Y-73765963D01*
X120501175Y-73961483D01*
X120555258Y-74150091D01*
X120558076Y-74155574D01*
X120642123Y-74319113D01*
X120642126Y-74319117D01*
X120644944Y-74324601D01*
X120766818Y-74478369D01*
X120916238Y-74605535D01*
X120921616Y-74608541D01*
X120921618Y-74608542D01*
X120957932Y-74628837D01*
X121087513Y-74701257D01*
X121274118Y-74761889D01*
X121468946Y-74785121D01*
X121475081Y-74784649D01*
X121475083Y-74784649D01*
X121658434Y-74770541D01*
X121658438Y-74770540D01*
X121664576Y-74770068D01*
X121853556Y-74717303D01*
X122028689Y-74628837D01*
X122058515Y-74605535D01*
X122132145Y-74548009D01*
X122183303Y-74508040D01*
X122213084Y-74473539D01*
X122307485Y-74364173D01*
X122307485Y-74364172D01*
X122311509Y-74359511D01*
X122408425Y-74188909D01*
X122470358Y-74002732D01*
X122494949Y-73808071D01*
X122495341Y-73780000D01*
X122476194Y-73584728D01*
X122474413Y-73578829D01*
X122474412Y-73578824D01*
X122421265Y-73402793D01*
X122419484Y-73396894D01*
X122327370Y-73223653D01*
X122203361Y-73071602D01*
X122052180Y-72946535D01*
X121879585Y-72853213D01*
X121785869Y-72824203D01*
X121698039Y-72797015D01*
X121698036Y-72797014D01*
X121692152Y-72795193D01*
X121686027Y-72794549D01*
X121686026Y-72794549D01*
X121503147Y-72775327D01*
X121503146Y-72775327D01*
X121497019Y-72774683D01*
X121374383Y-72785844D01*
X121307759Y-72791907D01*
X121307758Y-72791907D01*
X121301618Y-72792466D01*
X121295704Y-72794207D01*
X121295702Y-72794207D01*
X121223437Y-72815476D01*
X121113393Y-72847864D01*
X121107928Y-72850721D01*
X120944972Y-72935912D01*
X120944968Y-72935915D01*
X120939512Y-72938767D01*
X120934712Y-72942627D01*
X120934711Y-72942627D01*
X120906014Y-72965700D01*
X120786600Y-73061711D01*
X120660480Y-73212016D01*
X120657516Y-73217408D01*
X120657513Y-73217412D01*
X120578813Y-73360567D01*
X120565956Y-73383954D01*
X120564095Y-73389821D01*
X120564094Y-73389823D01*
X120545044Y-73449875D01*
X120506628Y-73570978D01*
X120484757Y-73765963D01*
X101420500Y-73765963D01*
X101420500Y-71225963D01*
X120484757Y-71225963D01*
X120501175Y-71421483D01*
X120555258Y-71610091D01*
X120558076Y-71615574D01*
X120642123Y-71779113D01*
X120642126Y-71779117D01*
X120644944Y-71784601D01*
X120766818Y-71938369D01*
X120771511Y-71942363D01*
X120771512Y-71942364D01*
X120878877Y-72033738D01*
X120916238Y-72065535D01*
X120921616Y-72068541D01*
X120921618Y-72068542D01*
X120994904Y-72109500D01*
X121087513Y-72161257D01*
X121274118Y-72221889D01*
X121468946Y-72245121D01*
X121475081Y-72244649D01*
X121475083Y-72244649D01*
X121658434Y-72230541D01*
X121658438Y-72230540D01*
X121664576Y-72230068D01*
X121853556Y-72177303D01*
X122028689Y-72088837D01*
X122046303Y-72075076D01*
X122178453Y-71971829D01*
X122183303Y-71968040D01*
X122213084Y-71933539D01*
X122307485Y-71824173D01*
X122307485Y-71824172D01*
X122311509Y-71819511D01*
X122408425Y-71648909D01*
X122470358Y-71462732D01*
X122494949Y-71268071D01*
X122495341Y-71240000D01*
X122476194Y-71044728D01*
X122474413Y-71038829D01*
X122474412Y-71038824D01*
X122421265Y-70862793D01*
X122419484Y-70856894D01*
X122327370Y-70683653D01*
X122203361Y-70531602D01*
X122052180Y-70406535D01*
X121879585Y-70313213D01*
X121750340Y-70273205D01*
X121698039Y-70257015D01*
X121698036Y-70257014D01*
X121692152Y-70255193D01*
X121686027Y-70254549D01*
X121686026Y-70254549D01*
X121503147Y-70235327D01*
X121503146Y-70235327D01*
X121497019Y-70234683D01*
X121374383Y-70245844D01*
X121307759Y-70251907D01*
X121307758Y-70251907D01*
X121301618Y-70252466D01*
X121295704Y-70254207D01*
X121295702Y-70254207D01*
X121244503Y-70269276D01*
X121113393Y-70307864D01*
X121107928Y-70310721D01*
X120944972Y-70395912D01*
X120944968Y-70395915D01*
X120939512Y-70398767D01*
X120934712Y-70402627D01*
X120934711Y-70402627D01*
X120923057Y-70411997D01*
X120786600Y-70521711D01*
X120660480Y-70672016D01*
X120657516Y-70677408D01*
X120657513Y-70677412D01*
X120622141Y-70741754D01*
X120565956Y-70843954D01*
X120564095Y-70849821D01*
X120564094Y-70849823D01*
X120538067Y-70931870D01*
X120506628Y-71030978D01*
X120484757Y-71225963D01*
X101420500Y-71225963D01*
X101420500Y-70876567D01*
X101417436Y-70867136D01*
X101417435Y-70867132D01*
X101413703Y-70855647D01*
X101409087Y-70836422D01*
X101407197Y-70824488D01*
X101407197Y-70824487D01*
X101405646Y-70814696D01*
X101401145Y-70805863D01*
X101401144Y-70805859D01*
X101395658Y-70795092D01*
X101388092Y-70776828D01*
X101384360Y-70765342D01*
X101381296Y-70755911D01*
X101375275Y-70747624D01*
X101368365Y-70738113D01*
X101358037Y-70721258D01*
X101352555Y-70710499D01*
X101352554Y-70710497D01*
X101348050Y-70701658D01*
X101325487Y-70679095D01*
X101325484Y-70679091D01*
X100267109Y-69620716D01*
X100267105Y-69620713D01*
X100244542Y-69598150D01*
X100224946Y-69588165D01*
X100208093Y-69577839D01*
X100190290Y-69564904D01*
X100169366Y-69558105D01*
X100151106Y-69550541D01*
X100140341Y-69545056D01*
X100140337Y-69545055D01*
X100131504Y-69540554D01*
X100121713Y-69539003D01*
X100121712Y-69539003D01*
X100109778Y-69537113D01*
X100090553Y-69532497D01*
X100079068Y-69528765D01*
X100079064Y-69528764D01*
X100069633Y-69525700D01*
X95213312Y-69525700D01*
X95145191Y-69505698D01*
X95102061Y-69458853D01*
X95072416Y-69403098D01*
X95072414Y-69403095D01*
X95069522Y-69397656D01*
X95065632Y-69392886D01*
X95065629Y-69392882D01*
X94955605Y-69257980D01*
X94955602Y-69257977D01*
X94951710Y-69253205D01*
X94886303Y-69199095D01*
X94877251Y-69191606D01*
X94837513Y-69132772D01*
X94835892Y-69061794D01*
X94872901Y-69001207D01*
X94896151Y-68985761D01*
X94895652Y-68984897D01*
X94909912Y-68976664D01*
X94951148Y-68947790D01*
X94959523Y-68937312D01*
X94952457Y-68923868D01*
X94714552Y-68685963D01*
X120484757Y-68685963D01*
X120501175Y-68881483D01*
X120555258Y-69070091D01*
X120558076Y-69075574D01*
X120642123Y-69239113D01*
X120642126Y-69239117D01*
X120644944Y-69244601D01*
X120766818Y-69398369D01*
X120771511Y-69402363D01*
X120771512Y-69402364D01*
X120892930Y-69505698D01*
X120916238Y-69525535D01*
X120921616Y-69528541D01*
X120921618Y-69528542D01*
X120960981Y-69550541D01*
X121087513Y-69621257D01*
X121274118Y-69681889D01*
X121468946Y-69705121D01*
X121475081Y-69704649D01*
X121475083Y-69704649D01*
X121658434Y-69690541D01*
X121658438Y-69690540D01*
X121664576Y-69690068D01*
X121853556Y-69637303D01*
X122028689Y-69548837D01*
X122045681Y-69535562D01*
X122105996Y-69488438D01*
X122183303Y-69428040D01*
X122191875Y-69418110D01*
X122307485Y-69284173D01*
X122307485Y-69284172D01*
X122311509Y-69279511D01*
X122323741Y-69257980D01*
X122400049Y-69123653D01*
X122408425Y-69108909D01*
X122470358Y-68922732D01*
X122494949Y-68728071D01*
X122495341Y-68700000D01*
X122476194Y-68504728D01*
X122474413Y-68498829D01*
X122474412Y-68498824D01*
X122421265Y-68322793D01*
X122419484Y-68316894D01*
X122327370Y-68143653D01*
X122203361Y-67991602D01*
X122052180Y-67866535D01*
X121879585Y-67773213D01*
X121785868Y-67744203D01*
X121698039Y-67717015D01*
X121698036Y-67717014D01*
X121692152Y-67715193D01*
X121686027Y-67714549D01*
X121686026Y-67714549D01*
X121503147Y-67695327D01*
X121503146Y-67695327D01*
X121497019Y-67694683D01*
X121374383Y-67705844D01*
X121307759Y-67711907D01*
X121307758Y-67711907D01*
X121301618Y-67712466D01*
X121295704Y-67714207D01*
X121295702Y-67714207D01*
X121166734Y-67752165D01*
X121113393Y-67767864D01*
X121107928Y-67770721D01*
X120944972Y-67855912D01*
X120944968Y-67855915D01*
X120939512Y-67858767D01*
X120934712Y-67862627D01*
X120934711Y-67862627D01*
X120921326Y-67873389D01*
X120786600Y-67981711D01*
X120660480Y-68132016D01*
X120657516Y-68137408D01*
X120657513Y-68137412D01*
X120595283Y-68250608D01*
X120565956Y-68303954D01*
X120564095Y-68309821D01*
X120564094Y-68309823D01*
X120547580Y-68361882D01*
X120506628Y-68490978D01*
X120484757Y-68685963D01*
X94714552Y-68685963D01*
X94286811Y-68258221D01*
X94272868Y-68250608D01*
X94271034Y-68250739D01*
X94264420Y-68254990D01*
X93594820Y-68924591D01*
X93588393Y-68936361D01*
X93597687Y-68948375D01*
X93638088Y-68976664D01*
X93652348Y-68984897D01*
X93651164Y-68986948D01*
X93696890Y-69027186D01*
X93716371Y-69095458D01*
X93695849Y-69163424D01*
X93669327Y-69192691D01*
X93610558Y-69239943D01*
X93610553Y-69239948D01*
X93605752Y-69243808D01*
X93485935Y-69386601D01*
X93482971Y-69391993D01*
X93482968Y-69391997D01*
X93447370Y-69456750D01*
X93396135Y-69549946D01*
X93394274Y-69555813D01*
X93394273Y-69555815D01*
X93343651Y-69715395D01*
X93339772Y-69727624D01*
X93318994Y-69912865D01*
X93319510Y-69919009D01*
X93332077Y-70068659D01*
X93334592Y-70098614D01*
X93336291Y-70104539D01*
X93380854Y-70259949D01*
X93385971Y-70277795D01*
X93405679Y-70316143D01*
X93454155Y-70410465D01*
X93468415Y-70438212D01*
X93468415Y-70438213D01*
X93471176Y-70443585D01*
X93470155Y-70444110D01*
X93488490Y-70506268D01*
X93468573Y-70574414D01*
X93414975Y-70620973D01*
X93344714Y-70631165D01*
X93305919Y-70615447D01*
X93304542Y-70618150D01*
X93284945Y-70608165D01*
X93268093Y-70597839D01*
X93250290Y-70584904D01*
X93229366Y-70578105D01*
X93211106Y-70570541D01*
X93200341Y-70565056D01*
X93200337Y-70565055D01*
X93191504Y-70560554D01*
X93181713Y-70559003D01*
X93181712Y-70559003D01*
X93169778Y-70557113D01*
X93150553Y-70552497D01*
X93139068Y-70548765D01*
X93139064Y-70548764D01*
X93129633Y-70545700D01*
X92663312Y-70545700D01*
X92595191Y-70525698D01*
X92552061Y-70478853D01*
X92522416Y-70423098D01*
X92522414Y-70423095D01*
X92519522Y-70417656D01*
X92515632Y-70412886D01*
X92515629Y-70412882D01*
X92405605Y-70277980D01*
X92405602Y-70277977D01*
X92401710Y-70273205D01*
X92396056Y-70268527D01*
X92262834Y-70158316D01*
X92258085Y-70154387D01*
X92094116Y-70065729D01*
X92065516Y-70056876D01*
X92034346Y-70047227D01*
X91975186Y-70007976D01*
X91946639Y-69942971D01*
X91957768Y-69872852D01*
X92005039Y-69819881D01*
X92037722Y-69805503D01*
X92063457Y-69798318D01*
X92063460Y-69798317D01*
X92069387Y-69796662D01*
X92235768Y-69712617D01*
X92245363Y-69705121D01*
X92377794Y-69601654D01*
X92377795Y-69601653D01*
X92382655Y-69597856D01*
X92504454Y-69456750D01*
X92533009Y-69406485D01*
X92563535Y-69352749D01*
X92596526Y-69294674D01*
X92655364Y-69117801D01*
X92670094Y-69001207D01*
X92678285Y-68936370D01*
X92678286Y-68936361D01*
X92678727Y-68932868D01*
X92679099Y-68906200D01*
X92660909Y-68720687D01*
X92659128Y-68714788D01*
X92659127Y-68714783D01*
X92608814Y-68548139D01*
X92607033Y-68542240D01*
X92519522Y-68377656D01*
X92515632Y-68372886D01*
X92515629Y-68372882D01*
X92405605Y-68237980D01*
X92405602Y-68237977D01*
X92401710Y-68233205D01*
X92396056Y-68228527D01*
X92285917Y-68137412D01*
X92258085Y-68114387D01*
X92094116Y-68025729D01*
X91971188Y-67987677D01*
X91921936Y-67972431D01*
X91921933Y-67972430D01*
X91916049Y-67970609D01*
X91909924Y-67969965D01*
X91909923Y-67969965D01*
X91736796Y-67951768D01*
X91736795Y-67951768D01*
X91730668Y-67951124D01*
X91652549Y-67958233D01*
X91551171Y-67967459D01*
X91551168Y-67967460D01*
X91545032Y-67968018D01*
X91539122Y-67969757D01*
X91539119Y-67969758D01*
X91372129Y-68018907D01*
X91366214Y-68020648D01*
X91201023Y-68107007D01*
X91055752Y-68223808D01*
X90935935Y-68366601D01*
X90895361Y-68440404D01*
X90845018Y-68490460D01*
X90784949Y-68505700D01*
X90592281Y-68505700D01*
X90592277Y-68505701D01*
X90560367Y-68505701D01*
X90550940Y-68508764D01*
X90550933Y-68508765D01*
X90539447Y-68512497D01*
X90520227Y-68517111D01*
X90508293Y-68519001D01*
X90508285Y-68519003D01*
X90498496Y-68520554D01*
X90489665Y-68525054D01*
X90489661Y-68525055D01*
X90478893Y-68530542D01*
X90460632Y-68538106D01*
X90439710Y-68544904D01*
X90424718Y-68555797D01*
X90421916Y-68557832D01*
X90405059Y-68568162D01*
X90394293Y-68573648D01*
X90394292Y-68573649D01*
X90385458Y-68578150D01*
X90362891Y-68600717D01*
X89764516Y-69199091D01*
X89764513Y-69199095D01*
X89741950Y-69221658D01*
X89737446Y-69230498D01*
X89731965Y-69241255D01*
X89721639Y-69258107D01*
X89708704Y-69275910D01*
X89701907Y-69296830D01*
X89694341Y-69315094D01*
X89688856Y-69325859D01*
X89688855Y-69325863D01*
X89684354Y-69334696D01*
X89682803Y-69344487D01*
X89682803Y-69344488D01*
X89680913Y-69356422D01*
X89676297Y-69375647D01*
X89672565Y-69387132D01*
X89672564Y-69387136D01*
X89669500Y-69396567D01*
X89669500Y-71943433D01*
X86605000Y-71943433D01*
X86605000Y-67891675D01*
X93011674Y-67891675D01*
X93029901Y-68100004D01*
X93031804Y-68110799D01*
X93085928Y-68312795D01*
X93089674Y-68323087D01*
X93178054Y-68512617D01*
X93183534Y-68522107D01*
X93212411Y-68563349D01*
X93222887Y-68571723D01*
X93236334Y-68564655D01*
X93901979Y-67899011D01*
X93908356Y-67887332D01*
X94638408Y-67887332D01*
X94638539Y-67889166D01*
X94642790Y-67895780D01*
X95312391Y-68565380D01*
X95324161Y-68571807D01*
X95336176Y-68562511D01*
X95364466Y-68522107D01*
X95369946Y-68512617D01*
X95458326Y-68323087D01*
X95462072Y-68312795D01*
X95516196Y-68110799D01*
X95518099Y-68100004D01*
X95536326Y-67891675D01*
X95536326Y-67880725D01*
X95518099Y-67672396D01*
X95516196Y-67661601D01*
X95462072Y-67459605D01*
X95458326Y-67449313D01*
X95369946Y-67259783D01*
X95364466Y-67250293D01*
X95335589Y-67209051D01*
X95325113Y-67200677D01*
X95311666Y-67207745D01*
X94646021Y-67873389D01*
X94638408Y-67887332D01*
X93908356Y-67887332D01*
X93909592Y-67885068D01*
X93909461Y-67883234D01*
X93905210Y-67876620D01*
X93235609Y-67207020D01*
X93223839Y-67200593D01*
X93211824Y-67209889D01*
X93183534Y-67250293D01*
X93178054Y-67259783D01*
X93089674Y-67449313D01*
X93085928Y-67459605D01*
X93031804Y-67661601D01*
X93029901Y-67672396D01*
X93011674Y-67880725D01*
X93011674Y-67891675D01*
X86605000Y-67891675D01*
X86605000Y-66835087D01*
X93588477Y-66835087D01*
X93595545Y-66848534D01*
X94261189Y-67514179D01*
X94275132Y-67521792D01*
X94276966Y-67521661D01*
X94283580Y-67517410D01*
X94953180Y-66847809D01*
X94959607Y-66836039D01*
X94950313Y-66824025D01*
X94909912Y-66795736D01*
X94900416Y-66790253D01*
X94710887Y-66701874D01*
X94700595Y-66698128D01*
X94498599Y-66644004D01*
X94487804Y-66642101D01*
X94279475Y-66623874D01*
X94268525Y-66623874D01*
X94060196Y-66642101D01*
X94049401Y-66644004D01*
X93847405Y-66698128D01*
X93837113Y-66701874D01*
X93647583Y-66790254D01*
X93638093Y-66795734D01*
X93596851Y-66824611D01*
X93588477Y-66835087D01*
X86605000Y-66835087D01*
X86605000Y-66145963D01*
X120484757Y-66145963D01*
X120501175Y-66341483D01*
X120555258Y-66530091D01*
X120558076Y-66535574D01*
X120642123Y-66699113D01*
X120642126Y-66699117D01*
X120644944Y-66704601D01*
X120766818Y-66858369D01*
X120916238Y-66985535D01*
X120921616Y-66988541D01*
X120921618Y-66988542D01*
X120957932Y-67008837D01*
X121087513Y-67081257D01*
X121274118Y-67141889D01*
X121468946Y-67165121D01*
X121475081Y-67164649D01*
X121475083Y-67164649D01*
X121658434Y-67150541D01*
X121658438Y-67150540D01*
X121664576Y-67150068D01*
X121853556Y-67097303D01*
X122028689Y-67008837D01*
X122058515Y-66985535D01*
X122178453Y-66891829D01*
X122183303Y-66888040D01*
X122213084Y-66853539D01*
X122307485Y-66744173D01*
X122307485Y-66744172D01*
X122311509Y-66739511D01*
X122408425Y-66568909D01*
X122470358Y-66382732D01*
X122494949Y-66188071D01*
X122495341Y-66160000D01*
X122476194Y-65964728D01*
X122474413Y-65958829D01*
X122474412Y-65958824D01*
X122421265Y-65782793D01*
X122419484Y-65776894D01*
X122327370Y-65603653D01*
X122203361Y-65451602D01*
X122052180Y-65326535D01*
X121879585Y-65233213D01*
X121730931Y-65187197D01*
X121698039Y-65177015D01*
X121698036Y-65177014D01*
X121692152Y-65175193D01*
X121686027Y-65174549D01*
X121686026Y-65174549D01*
X121503147Y-65155327D01*
X121503146Y-65155327D01*
X121497019Y-65154683D01*
X121374383Y-65165844D01*
X121307759Y-65171907D01*
X121307758Y-65171907D01*
X121301618Y-65172466D01*
X121295704Y-65174207D01*
X121295702Y-65174207D01*
X121221922Y-65195922D01*
X121113393Y-65227864D01*
X121107928Y-65230721D01*
X120944972Y-65315912D01*
X120944968Y-65315915D01*
X120939512Y-65318767D01*
X120934712Y-65322627D01*
X120934711Y-65322627D01*
X120900326Y-65350273D01*
X120786600Y-65441711D01*
X120660480Y-65592016D01*
X120657516Y-65597408D01*
X120657513Y-65597412D01*
X120611162Y-65681725D01*
X120565956Y-65763954D01*
X120506628Y-65950978D01*
X120484757Y-66145963D01*
X86605000Y-66145963D01*
X86605000Y-64517729D01*
X87952074Y-64517729D01*
X87988153Y-64753502D01*
X88062255Y-64980218D01*
X88172390Y-65191786D01*
X88175493Y-65195919D01*
X88175495Y-65195922D01*
X88273563Y-65326535D01*
X88315602Y-65382525D01*
X88488042Y-65547313D01*
X88685082Y-65681725D01*
X88793255Y-65731937D01*
X88896733Y-65779970D01*
X88896736Y-65779971D01*
X88901428Y-65782149D01*
X89131272Y-65845891D01*
X89136409Y-65846440D01*
X89322651Y-65866344D01*
X89322659Y-65866344D01*
X89325986Y-65866700D01*
X89464463Y-65866700D01*
X89467036Y-65866488D01*
X89467047Y-65866488D01*
X89636565Y-65852551D01*
X89636571Y-65852550D01*
X89641716Y-65852127D01*
X89757382Y-65823074D01*
X89868037Y-65795280D01*
X89868041Y-65795279D01*
X89873048Y-65794021D01*
X89877781Y-65791963D01*
X89877784Y-65791962D01*
X90087047Y-65700972D01*
X90087050Y-65700970D01*
X90091784Y-65698912D01*
X90292049Y-65569355D01*
X90313070Y-65550228D01*
X90464642Y-65412307D01*
X90464643Y-65412305D01*
X90468464Y-65408829D01*
X90471663Y-65404778D01*
X90471667Y-65404774D01*
X90613091Y-65225700D01*
X90613093Y-65225696D01*
X90616293Y-65221645D01*
X90731564Y-65012831D01*
X90744855Y-64975300D01*
X90809459Y-64792863D01*
X90809460Y-64792861D01*
X90811183Y-64787994D01*
X90842877Y-64610068D01*
X90852106Y-64558260D01*
X90852106Y-64558256D01*
X90853012Y-64553172D01*
X90855926Y-64314671D01*
X90819847Y-64078898D01*
X90745745Y-63852182D01*
X90737641Y-63836613D01*
X90637999Y-63645203D01*
X90637998Y-63645202D01*
X90635610Y-63640614D01*
X90620133Y-63620000D01*
X90609594Y-63605963D01*
X120484757Y-63605963D01*
X120501175Y-63801483D01*
X120555258Y-63990091D01*
X120558076Y-63995574D01*
X120642123Y-64159113D01*
X120642126Y-64159117D01*
X120644944Y-64164601D01*
X120766818Y-64318369D01*
X120916238Y-64445535D01*
X120921616Y-64448541D01*
X120921618Y-64448542D01*
X120957932Y-64468837D01*
X121087513Y-64541257D01*
X121274118Y-64601889D01*
X121468946Y-64625121D01*
X121475081Y-64624649D01*
X121475083Y-64624649D01*
X121658434Y-64610541D01*
X121658438Y-64610540D01*
X121664576Y-64610068D01*
X121853556Y-64557303D01*
X122028689Y-64468837D01*
X122058515Y-64445535D01*
X122178453Y-64351829D01*
X122183303Y-64348040D01*
X122207645Y-64319840D01*
X122307485Y-64204173D01*
X122307485Y-64204172D01*
X122311509Y-64199511D01*
X122408425Y-64028909D01*
X122470358Y-63842732D01*
X122494949Y-63648071D01*
X122495341Y-63620000D01*
X122476194Y-63424728D01*
X122474413Y-63418829D01*
X122474412Y-63418824D01*
X122421265Y-63242793D01*
X122419484Y-63236894D01*
X122327370Y-63063653D01*
X122203361Y-62911602D01*
X122052180Y-62786535D01*
X121879585Y-62693213D01*
X121785868Y-62664203D01*
X121698039Y-62637015D01*
X121698036Y-62637014D01*
X121692152Y-62635193D01*
X121686027Y-62634549D01*
X121686026Y-62634549D01*
X121503147Y-62615327D01*
X121503146Y-62615327D01*
X121497019Y-62614683D01*
X121374383Y-62625844D01*
X121307759Y-62631907D01*
X121307758Y-62631907D01*
X121301618Y-62632466D01*
X121295704Y-62634207D01*
X121295702Y-62634207D01*
X121166734Y-62672165D01*
X121113393Y-62687864D01*
X121107928Y-62690721D01*
X120944972Y-62775912D01*
X120944968Y-62775915D01*
X120939512Y-62778767D01*
X120934712Y-62782627D01*
X120934711Y-62782627D01*
X120900326Y-62810273D01*
X120786600Y-62901711D01*
X120660480Y-63052016D01*
X120657516Y-63057408D01*
X120657513Y-63057412D01*
X120604637Y-63153594D01*
X120565956Y-63223954D01*
X120564095Y-63229821D01*
X120564094Y-63229823D01*
X120536292Y-63317466D01*
X120506628Y-63410978D01*
X120484757Y-63605963D01*
X90609594Y-63605963D01*
X90495503Y-63454010D01*
X90495501Y-63454008D01*
X90492398Y-63449875D01*
X90319958Y-63285087D01*
X90122918Y-63150675D01*
X89947188Y-63069104D01*
X89911267Y-63052430D01*
X89911264Y-63052429D01*
X89906572Y-63050251D01*
X89676728Y-62986509D01*
X89671591Y-62985960D01*
X89485349Y-62966056D01*
X89485341Y-62966056D01*
X89482014Y-62965700D01*
X89343537Y-62965700D01*
X89340964Y-62965912D01*
X89340953Y-62965912D01*
X89171435Y-62979849D01*
X89171429Y-62979850D01*
X89166284Y-62980273D01*
X89050618Y-63009326D01*
X88939963Y-63037120D01*
X88939959Y-63037121D01*
X88934952Y-63038379D01*
X88930219Y-63040437D01*
X88930216Y-63040438D01*
X88720953Y-63131428D01*
X88720950Y-63131430D01*
X88716216Y-63133488D01*
X88515951Y-63263045D01*
X88512128Y-63266524D01*
X88512125Y-63266526D01*
X88359825Y-63405109D01*
X88339536Y-63423571D01*
X88336337Y-63427622D01*
X88336333Y-63427626D01*
X88195491Y-63605963D01*
X88191707Y-63610755D01*
X88189211Y-63615276D01*
X88189210Y-63615278D01*
X88169173Y-63651575D01*
X88076436Y-63819569D01*
X88074712Y-63824438D01*
X88074710Y-63824442D01*
X87998541Y-64039537D01*
X87996817Y-64044406D01*
X87990673Y-64078898D01*
X87968358Y-64204173D01*
X87954988Y-64279228D01*
X87952074Y-64517729D01*
X86605000Y-64517729D01*
X86605000Y-61065963D01*
X120484757Y-61065963D01*
X120501175Y-61261483D01*
X120555258Y-61450091D01*
X120558076Y-61455574D01*
X120642123Y-61619113D01*
X120642126Y-61619117D01*
X120644944Y-61624601D01*
X120766818Y-61778369D01*
X120916238Y-61905535D01*
X120921616Y-61908541D01*
X120921618Y-61908542D01*
X120957932Y-61928837D01*
X121087513Y-62001257D01*
X121274118Y-62061889D01*
X121468946Y-62085121D01*
X121475081Y-62084649D01*
X121475083Y-62084649D01*
X121658434Y-62070541D01*
X121658438Y-62070540D01*
X121664576Y-62070068D01*
X121853556Y-62017303D01*
X122028689Y-61928837D01*
X122058515Y-61905535D01*
X122178453Y-61811829D01*
X122183303Y-61808040D01*
X122213084Y-61773539D01*
X122307485Y-61664173D01*
X122307485Y-61664172D01*
X122311509Y-61659511D01*
X122408425Y-61488909D01*
X122470358Y-61302732D01*
X122494949Y-61108071D01*
X122495341Y-61080000D01*
X122476194Y-60884728D01*
X122474413Y-60878829D01*
X122474412Y-60878824D01*
X122421265Y-60702793D01*
X122419484Y-60696894D01*
X122327370Y-60523653D01*
X122203361Y-60371602D01*
X122052180Y-60246535D01*
X121879585Y-60153213D01*
X121785868Y-60124203D01*
X121698039Y-60097015D01*
X121698036Y-60097014D01*
X121692152Y-60095193D01*
X121686027Y-60094549D01*
X121686026Y-60094549D01*
X121503147Y-60075327D01*
X121503146Y-60075327D01*
X121497019Y-60074683D01*
X121374383Y-60085844D01*
X121307759Y-60091907D01*
X121307758Y-60091907D01*
X121301618Y-60092466D01*
X121295704Y-60094207D01*
X121295702Y-60094207D01*
X121166734Y-60132165D01*
X121113393Y-60147864D01*
X121107928Y-60150721D01*
X120944972Y-60235912D01*
X120944968Y-60235915D01*
X120939512Y-60238767D01*
X120934712Y-60242627D01*
X120934711Y-60242627D01*
X120900326Y-60270273D01*
X120786600Y-60361711D01*
X120660480Y-60512016D01*
X120657516Y-60517408D01*
X120657513Y-60517412D01*
X120578813Y-60660567D01*
X120565956Y-60683954D01*
X120506628Y-60870978D01*
X120484757Y-61065963D01*
X86605000Y-61065963D01*
X86605000Y-52046000D01*
X86625002Y-51977879D01*
X86678658Y-51931386D01*
X86731000Y-51920000D01*
X103337088Y-51920000D01*
X103405209Y-51940002D01*
G37*
%TD.AperFunction*%
%TD*%
M02*
