M48
; DRILL file {KiCad (6.0.8)} date Fri Oct 14 13:45:07 2022
; FORMAT={-:-/ absolute / inch / decimal}
; #@! TF.CreationDate,2022-10-14T13:45:07-03:00
; #@! TF.GenerationSoftware,Kicad,Pcbnew,(6.0.8)
; #@! TF.FileFunction,MixedPlating,1,2
FMAT,2
INCH
; #@! TA.AperFunction,Plated,PTH,ViaDrill
T1C0.0157
; #@! TA.AperFunction,Plated,PTH,ComponentDrill
T2C0.0315
; #@! TA.AperFunction,Plated,PTH,ComponentDrill
T3C0.0394
; #@! TA.AperFunction,Plated,PTH,ComponentDrill
T4C0.1181
; #@! TA.AperFunction,NonPlated,NPTH,ComponentDrill
T5C0.0945
%
G90
G05
T1
X3.6112Y-3.2392
X3.6606Y-3.2602
X3.8386Y-3.4601
X3.8386Y-3.7122
X3.8768Y-2.848
X3.878Y-3.3016
X3.9012Y-4.8612
X3.9165Y-2.9283
X3.9201Y-4.1638
X3.9232Y-2.6358
X3.9299Y-4.2638
X3.9317Y-4.9898
X3.9317Y-5.032
X3.9317Y-5.0793
X3.9772Y-2.9717
X4.2057Y-4.6974
X4.2242Y-4.6517
X4.2358Y-4.2638
X4.2557Y-4.6864
X4.2693Y-3.5217
X4.278Y-4.3039
X4.322Y-4.2681
X4.402Y-3.9244
X4.4638Y-4.002
X4.5193Y-3.9756
X4.5313Y-4.1939
X4.5571Y-4.0531
X4.5776Y-4.2472
X4.6106Y-4.2925
X4.613Y-4.1169
X4.6498Y-4.0404
X4.6756Y-3.8382
X5.0591Y-4.1427
X5.0591Y-4.1939
X5.0591Y-4.2386
X5.0591Y-4.2854
X5.0709Y-3.9823
X5.0976Y-4.0177
X5.1331Y-4.1427
X5.1402Y-4.05
X5.2091Y-4.2386
X5.2488Y-4.2854
X5.2902Y-4.1939
T2
X3.6112Y-2.7128
X3.6112Y-2.7932
X3.6112Y-3.5002
X3.6112Y-3.5806
X3.6112Y-4.2876
X3.6112Y-4.368
X3.6112Y-5.075
X3.6112Y-5.1554
X3.7116Y-2.6727
X3.7116Y-2.753
X3.7116Y-3.4601
X3.7116Y-3.5404
X3.7116Y-4.2475
X3.7116Y-4.3278
X3.7116Y-5.0349
X3.7116Y-5.1152
X4.7831Y-2.2047
X4.7831Y-2.3047
X4.7831Y-2.4047
X4.7831Y-2.5047
X4.7831Y-2.6047
X4.7831Y-2.7047
X4.7831Y-2.8047
X4.7831Y-2.9047
X4.7831Y-3.0047
X4.7831Y-4.8526
X4.7831Y-4.9526
X4.7831Y-5.0526
X4.7831Y-5.1526
X4.7831Y-5.2526
X4.7831Y-5.3526
X4.7831Y-5.4526
X4.7831Y-5.5526
X4.7831Y-5.6526
T3
X4.0346Y-3.4638
X4.0346Y-3.5638
X4.0346Y-3.6638
X4.0346Y-3.7638
X4.0346Y-3.8638
X4.0346Y-3.9638
X4.0346Y-4.0638
X4.0346Y-4.1638
X4.0346Y-4.2638
X4.0346Y-4.3638
X4.1346Y-3.4638
X4.1346Y-3.5638
X4.1346Y-3.6638
X4.1346Y-3.7638
X4.1346Y-3.8638
X4.1346Y-3.9638
X4.1346Y-4.0638
X4.1346Y-4.1638
X4.1346Y-4.2638
X4.1346Y-4.3638
T4
X4.1094Y-2.163
X4.1094Y-5.667
T5
X3.5198Y-2.5361
X3.5198Y-2.9298
X3.5198Y-3.3235
X3.5198Y-3.7172
X3.5198Y-4.1109
X3.5198Y-4.5046
X3.5198Y-4.8983
X3.5198Y-5.292
T0
M30
